/* XPM */
static const char *background[] = {
/* columns rows colors chars-per-pixel */
"64 64 223 2 ",
"   c #A8D07F",
".  c #A7CF82",
"X  c #A8CF81",
"o  c #A8CF82",
"O  c #A9CF83",
"+  c #A7D080",
"@  c #A7D180",
"#  c #A6D081",
"$  c #A7D081",
"%  c #A6D181",
"&  c #A7D181",
"*  c #A7D281",
"=  c #A7D381",
"-  c #A7D082",
";  c #A6D182",
":  c #A7D182",
">  c #A7D083",
",  c #A7D183",
"<  c #A7D282",
"1  c #A7D283",
"2  c #A7D184",
"3  c #A7D284",
"4  c #A8D080",
"5  c #A9D180",
"6  c #A8D081",
"7  c #A8D181",
"8  c #A9D181",
"9  c #A8D281",
"0  c #A9D281",
"q  c #A8D381",
"w  c #A9D381",
"e  c #AAD281",
"r  c #AAD381",
"t  c #A8D082",
"y  c #A9D082",
"u  c #A8D182",
"i  c #A9D182",
"p  c #A8D083",
"a  c #A9D083",
"s  c #A8D183",
"d  c #A9D183",
"f  c #AAD182",
"g  c #ABD182",
"h  c #AAD183",
"j  c #ABD183",
"k  c #A8D282",
"l  c #A9D282",
"z  c #A8D382",
"x  c #A9D382",
"c  c #A8D283",
"v  c #A9D283",
"b  c #A8D383",
"n  c #A9D383",
"m  c #AAD282",
"M  c #ABD282",
"N  c #AAD382",
"B  c #ABD382",
"V  c #AAD283",
"C  c #ABD283",
"Z  c #AAD383",
"A  c #ABD383",
"S  c #ACD283",
"D  c #ACD383",
"F  c #A8D482",
"G  c #A9D482",
"H  c #A8D483",
"J  c #A9D483",
"K  c #AAD482",
"L  c #ABD482",
"P  c #ABD582",
"I  c #AAD483",
"U  c #ABD483",
"Y  c #ABD583",
"T  c #ACD482",
"R  c #ACD483",
"E  c #ACD583",
"W  c #A9D084",
"Q  c #A8D184",
"!  c #A9D184",
"~  c #A9D185",
"^  c #AAD184",
"/  c #ABD184",
"(  c #AAD185",
")  c #ABD185",
"_  c #A8D284",
"`  c #A9D284",
"'  c #A8D384",
"]  c #A9D384",
"[  c #A8D285",
"{  c #A9D285",
"}  c #A8D385",
"|  c #A9D385",
" . c #AAD284",
".. c #ABD284",
"X. c #AAD384",
"o. c #ABD384",
"O. c #AAD285",
"+. c #ABD285",
"@. c #AAD385",
"#. c #ABD385",
"$. c #A9D286",
"%. c #A8D386",
"&. c #A9D287",
"*. c #AAD286",
"=. c #ABD286",
"-. c #AAD386",
";. c #ABD386",
":. c #AAD287",
">. c #AAD387",
",. c #ABD387",
"<. c #ACD284",
"1. c #ADD284",
"2. c #ACD384",
"3. c #ADD384",
"4. c #ACD285",
"5. c #ADD285",
"6. c #ACD385",
"7. c #ADD385",
"8. c #ACD286",
"9. c #ACD386",
"0. c #ADD386",
"q. c #ACD387",
"w. c #ADD387",
"e. c #AED386",
"r. c #A9D484",
"t. c #A9D584",
"y. c #A8D485",
"u. c #A9D485",
"i. c #A8D585",
"p. c #A9D585",
"a. c #AAD484",
"s. c #ABD484",
"d. c #AAD584",
"f. c #ABD584",
"g. c #AAD485",
"h. c #ABD485",
"j. c #AAD585",
"k. c #ABD585",
"l. c #ABD685",
"z. c #AAD486",
"x. c #ABD486",
"c. c #AAD586",
"v. c #ABD586",
"b. c #ABD487",
"n. c #ABD587",
"m. c #ABD686",
"M. c #ABD687",
"N. c #ACD484",
"B. c #ADD484",
"V. c #ACD584",
"C. c #ACD485",
"Z. c #ADD485",
"A. c #ACD585",
"S. c #ADD585",
"D. c #AED485",
"F. c #AED585",
"G. c #ACD684",
"H. c #ACD685",
"J. c #AED685",
"K. c #ACD486",
"L. c #ADD486",
"P. c #ACD586",
"I. c #ADD586",
"U. c #ACD487",
"Y. c #ADD487",
"T. c #ACD587",
"R. c #ADD587",
"E. c #AED486",
"W. c #AED586",
"Q. c #AFD586",
"!. c #AED487",
"~. c #AFD487",
"^. c #AED587",
"/. c #AFD587",
"(. c #ACD686",
"). c #ADD686",
"_. c #ACD786",
"`. c #ACD687",
"'. c #ADD687",
"]. c #AED686",
"[. c #AED687",
"{. c #AFD687",
"}. c #AFD787",
"|. c #A7D089",
" X c #A8D088",
".X c #A8D089",
"XX c #ABD189",
"oX c #A9D388",
"OX c #AAD288",
"+X c #ABD288",
"@X c #AAD388",
"#X c #AAD289",
"$X c #A8D18A",
"%X c #AAD18A",
"&X c #A8D28A",
"*X c #AAD28A",
"=X c #AAD38A",
"-X c #AAD38B",
";X c #ACD388",
":X c #ACD289",
">X c #AAD488",
",X c #ACD488",
"<X c #ADD488",
"1X c #ACD588",
"2X c #ADD588",
"3X c #ACD489",
"4X c #ADD489",
"5X c #ADD589",
"6X c #AED488",
"7X c #AED588",
"8X c #AFD588",
"9X c #AFD589",
"0X c #ADD688",
"qX c #ACD788",
"wX c #ADD788",
"eX c #ADD689",
"rX c #AED688",
"tX c #AFD688",
"yX c #AFD788",
"uX c #AED689",
"iX c #AFD689",
"pX c #B0D688",
"aX c #B0D689",
/* pixels */
"N ] s.] N N s.] s.s.s.K.s.K.6.K.K.K.K.K.K.K.K.K.K.K.K.K.K.6.s.] s.K.6.K.K.K.K.K.6.K.s.s.s.] U ] ] ] ] s.K.6.6.K.] ] ] ] ] s.] N ",
"N N N N N N ] s.] s.] s.K.K.s.K.K.K.K.<X<X<XK.K.s.K.K.K.K.6.] s.s.s.] K.K.K.K.K.K.K.K.K.] N ] ] s.] 6.s.K.6.s.s.] N ] ] s.] ] ] ",
"N N N N N U N s.N s.s.] s.s.K.K.s.<X<X<X<X<XK.K.K.K.K.K.K.K.K.6.s.] K.K.K.K.6.6.6.s.K.] s.] ] ] s.] 6.6.K.s.K.] U s.N s.s.] ] ] ",
"N N N s.N N N U U s.] K.<X] 6.K.K.K.K.K.K.K.K.K.K.K.K.K.K.K.K.K.] K.K.K.K.K.K.s.] N s.s.s.K.s.] s.] ] s.6.s.K.K.] K.s.s.K.] ] ] ",
"s.U N ] N ] s.N s.K.K.K.K.K.K.K.6.K.K.<XK.K.K.K.<Xs.K.6.] K.] s.s.K.K.K.K.K.K.] N ] ] ] s.] N N s.] K.] s.s.] K.] ] ] ] ] s.s.] ",
"] ] N ] s.] ] ] ] K.6.6.K.K.6.K.K.K.K.K.K.s.K.K.K.K.s.] ] ] ] 6.K.K.K.K.K.6.K.] s.K.6.s.s.K.] N K.] K.K.] s.] K.] ] 6.] ] s.s.K.",
"] N N N s.] ] ] K.K.K.s.] ] R U s.K.<XK.K.s.K.K.] s.s.s.] s.s.K.K.K.s.] ] s.:XK.K.s.s.K.s.s.s.N K.s.s.s.] K.K.K.] K.K.K.s.] ] ] ",
"] ] U ] ] N N ] K.s.K.] ] ] ] ] s.K.K.K.K.K.K.K.N ] ] N ] ] s.K.K.s.K.s.s.K.K.K.] ] s.s.<Xs.] ] ] 6.] ] ] s.] K.s.6.K.] s.s.s.s.",
"] ] N N ] ] ] s.K.K.s.D ] K.K.] U ] ] ] s.K.K.] K.K.] K.] N N N ] K.] ] s.K.K.s.] ] s.] K.] s.] s.s.K.K.s.K.] ] ] K.K.K.K.] ] 6.",
"] s.N s.N N s.s.s.] ] ] U K.s.] N ] K.] K.K.K.] K.s.s.s.K.] s.] ] ] ] K.K.K.K.K.s.K.] 6.s.K.s.] K.K.K.K.s.6.s.] s.K.K.K.s.s.s.6.",
"] K.6.N N N ] N s.N N N ] s.N N ] s.] ] ] 6.] 6.s.] s.s.] ] ] 6.s.] K.K.K.K.N N ] ] ] ] s.s.s.K.] K.s.K.s.K.] 6.s.K.K.K.K.] s.K.",
"s.] N N N N U s.K.] N N N ] ] s.] s.] ] ] ] s.N s.] K.s.] ] U ] K.K.K.<XK.] N s.K.K.N s.s.s.] K.s.K.K.s.s.] s.s.K.K.K.K.K.K.K.s.",
"] N ] ] ] N s.K.s.] N N < N ] ] K.6.N s.N ] s.N ] ] K.K.] 6.] 6.K.K.K.6.6.] ] 6.K.s.] ] s.] K.s.] s.] s.] K.] K.K.<XK.K.K.K.K.K.",
"] N s.s.] N K.K.K.N N ] ] ] s.s.s.K.K.] ] ] N N N N N ] ] s.s.K.K.U ] K.] K.s.K.] ] ] 6.K.] ] s.] N s.K.] ] ] K.K.pXpX<X<XK.K.K.",
"N N ] 6.s.N ] s.s.K.] s.] U K.] N 6.] N N N ] N s.N N 6.6.] K.K.K.N K.s.K.U K.] U s.] s.6.U K.] N ] s.K.s.s.6.K.<XK.K.K.<XK.K.K.",
"] ] ] N ] N s.s.s.K.K.K.] N s.] ] ] ] ] N N N ] 6.N ] s.6.K.K.K.s.s.] s.] K.K.s.6.6.s.K.s.s.6.K.s.] ] ] ] K.6.K.K.K.K.K.K.<XK.K.",
"U s.N N K.s.N ] N ] s.] s.N s.] ] ] ] N N N K.] ] s.K.K.K.] K.6.s.s.] ] s.K.s.] ] ] s.s.s.K.s.] s.s.6.] ] K.K.6.<XK.K.s.K.K.6.] ",
"K.s.] K.s.] ] s.] N ] ] ] s.s.] N s.K.s.N ] ] 6.] s.] K.s.] 6.] ] K.] ] K.K.K.6.] ] ] ] 6.6.K.s.N K.K.K.s.] K.K.K.K.s.K.6.K.K.K.",
"K.] ] s.s.U s.N ] N N N N ] ] N N s.6.s.s.] ] 6.s.N ] ] N ] s.s.K.K.s.s.6.K.6.K.6.] ] N ] K.s.6.] K.K.6.K.K.K.K.K.K.K.6.K.K.K.6.",
"s.N N ] 6.] s.D ] N N N N N N N N ] ] K.6.s.K.K.s.N N ] N ] K.6.s.s.] 6.K.K.K.K.K.s.] ] K.K.6.6.K.K.K.K.K.s.K.<XK.<X<XK.K.K.K.K.",
"K.U s.s.] ] ] s.s.] ] ] N ] N ] N ] ] N s.s.s.] ] N ] ] U ] ] s.] ] ] U ] s.s.K.s.N ] ] ] K.6.6.K.K.K.<XK.s.s.K.<X<X<XK.K.K.K.K.",
"K.6.U ] 6.K.K.] K.N N ] ] ] ] s.6.] s.] ] K.s.] s.s.] ] ] ] ] ] ] ] s.K.s.U s.K.s.] ] s.] s.K.6.6.s.K.K.K.K.K.K.<XK.<XK.K.s.K.K.",
"K.s.] N ] K.6.] ] N U N ] s.K.K.s.K.] ] N ] ] s.s.] ] ] ] s.] ] ] s.N s.] s.K.K.s.] ] ] s.K.6.6.s.6.s.K.<XK.K.K.K.K.K.K.K.K.K.<X",
"s.K.] N N ] N K.s.N N ] ] 6.K.K.s.6.] N N N N ] ] ] ] N ] K.s.] N ] s.s.K.N ] ] s.] s.] 6.K.s.6.K.K.s.K.6.K.K.K.K.K.K.K.K.<XK.K.",
"s.R 6.] ] s.s.] 6.] ] ] s.] 6.] s.] ] N 6.N N s.s.] ] N ] N ] s.N K.] s.] N ] s.K.] ] K.] s.K.] s.K.s.K.6.K.6.6.K.K.6.] 6.K.K.K.",
"N N N s.s.s.] K.K.] K.s.s.] s.s.N ] K.] K.s.s.] N N ] ] N ] s.] ] ] ] ] N ] s.K.s.] ] s.K.6.K.6.K.K.K.K.] K.K.K.K.K.K.s.N K.K.6.",
"N N ] s.] s.N s.s.K.] s.] s.] 6.] ] ] K.K.] s.] 3 s.] N ] N ] N s.] s.s.] N ] K.s.s.s.K.K.s.s.K.K.K.K.K.K.K.K.K.K.s.<XK.s.] K.6.",
"N N ] s.K.] s.N ] U ] ] s.s.] K.] N ] s.s.K.s.] ] ] s.s.] ] s.6.s.] ] N ] U ] K.K.6.K.K.K.K.s.K.K.K.] s.<XK.K.<XK.K.K.K.K.] K.s.",
"] ] ] s.] N ] ] ] s.s.] N ] K.K.] ] 6.6.K.] ] ] N N s.6.] N ] ] ] ] ] N s.] K.] K.K.] 6.K.K.K.K.K.K.s.6.K.K.K.K.K.N s.] K.:XK.K.",
"s.] s.s.] s.] ] ] s.] ] ] s.s.K.6.] ] <XK.s.] ] N N N ] N ] N K.] N ] s.] N ] 6.s.s.] ] s.K.K.K.K.6.s.6.K.K.K.6.K.K.K.K.K.K.K.K.",
"] N N ] ] ] s.K.] K.] N s.s.] K.] N K.K.K.] ] ] s.] ] s.s.] ] K.] s.] N ] ] K.K.s.] ] ] ] K.K.K.s.] K.K.K.K.s.K.s.K.<X<XK.K.<X<X",
"] ] N ] N N ] s.] ] s.K.] K.] s.] ] s.K.U K.N N s.] s.N N ] ] s.] ] s.] ] K.K.K.K.K.K.] s.K.s.K.N ] K.K.K.s.6.6.K.K.K.K.K.K.<X<X",
"] ] s.K.U N s.] ] K.s.] ] ] N ] s.s.K.] N ] K.] s.N N ] N N N ] N s.U N ] K.K.s.K.s.] ] s.s.] s.] s.s.] N K.s.] ] s.] K.s.6.OXOX",
"s.] ] K.N s.K.K.s.s.K.s.s.N s.] K.K.K.K.s.s.K.s.s.N ] ] ] s.] ] s.] N N ] s.<X] K.K.6.6.N s.] 6.s.] ] ] s.] ] ] K.s.6.6.6.K.:XOX",
"K.] s.] N ] ] 6.s.] ] K.N s.N ] ] 6.K.K.] s.U ] N N ] ] ] ] ] K.s.N N N s.K.] K.K.K.K.s.] ] ] ] ] ] ] ] ] ] N s.6.s.6.6.] K.>XOX",
"] ] ] s.] U ] 6.s.] ] s.s.] U s.] ] ] s.K.s.] s.] s.] ] N ] K.K.s.] < N s.K.s.s.K.K.s.K.K.s.s.] ] N N s.s.] K.s.] U ] K.<X] OXOX",
"] ] ] U ] N ] ] s.] N ] N s.] ] s.s.] 6.K.] ] s.s.s.N N N ] s.s.N ] ] N ] s.K.] K.K.s.K.K.K.] N N ] s.s.] s.s.] K.] ] s.<XOXOXOX",
"s.s.] ] ] N N N N N N N s.] ] N N N ] ] ] ] s.N N s.s.N N s.] ] U ] N ] ] s.K.] K.K.s.s.K.s.] U s.] s.6.6.] ] ] s.] ] ] >XOXOXOX",
"s.] ] ] N N N ] N ] N N ] ] ] ] ] N ] N ] s.N N N s.s.] ] ] K.] N s.] s.K.6.s.] 6.s.] ] s.] K.N N s.s.] ] N N ] ] ] ] ] s.OXOX|.",
"] N U N N N N U ] ] N N N N ] s.] N ] N ] ] N N N s.] s.] ] N N N ] N N ] s.s.] s.s.K.] s.s.s.K.s.s.K.] 6.] ] N K.] K.<X] ] <XOX",
"] ] N ] ] N N N N N < N N ] ] ] N N ] N ] 6.s.N N ] N ] N N N ] ] N ] ] ] ] K.6.] 6.s.K.s.6.6.6.] ] s.] N ] s.6.6.] s.s.] ] OXOX",
"] ] ] ] N N N N N < O N ] ] N ] ] ] N ] s.s.] N N N N N 6.] s.] s.] s.] ] N s.K.K.K.s.6.s.] 6.K.N ] N N N N ] 6.R K.s.s.N ] ] OX",
"N N N < N < N N ] N N N N N N N ] K.] N ] ] ] N N N ] ] ] s.] s.s.s.s.6.s.s.K.s.K.6.s.] K.] s.] U ] s.s.U ] ] 6.s.K.s.] ] s.] :X",
"N N N < < N N N ] ] < ] N N N N ] ] N ] N N s.N ] N N N ] ] ] ] ] s.K.s.K.] K.K.6.] s.K.s.] K.] s.] ] s.] N ] ] s.K.6.K.s.] ] ] ",
"] ] N < < 3 < N ] ] N N N N N N N N N ] ] N ] N N N N ] U 6.N N K.s.] ] s.6.K.s.K.K.s.K.K.s.] ] N N ] s.s.] N N ] U K.K.s.] N s.",
"] N N N < < < N N N N N N N O N < N N N N ] ] ] N N ] K.K.K.s.s.K.6.] s.K.K.s.] s.K.6.K.s.K.] ] ] 6.N ] ] N N ] ] ] K.s.s.] s.] ",
"N N N ] N N N N N N N D ] N N N N N N N ] N N s.] N N 6.K.6.K.s.U ] ] ] ] s.s.] U s.K.s.s.s.] ] s.U ] N N N ] s.6.s.] K.N N 6.6.",
"N N ] s.] N N N N N N N ] N N N N N ] ] N N N s.s.U N ] ] ] ] ] N s.] ] N ] N ] s.] 6.] K.N ] N K.K.s.6.s.] ] ] ] ] s.] N R ] s.",
"N < < N < N < N N < N N N N ] ] N N ] N N N ] ] s.s.] ] N ] N ] s.K.] N U ] N N ] K.K.K.] s.K.] s.] ] s.s.K.] N ] N N ] N s.s.] ",
"O N N N N O N < < N < ] N N N N . < ] U ] ] ] ] ] N < N N N ] K.N s.] N K.s.K.] ] K.K.6.N ] s.] ] ] ] ] s.s.] N N N N N ] N U ] ",
"N < < N < ] N < < N N N N N N N N N N ] N N ] ] ] N N < N N N ] N ] N ] K.s.K.K.s.K.K.U N N N N ] N N ] s.] ] ] N N ] ] N ] ] ] ",
"N N N N N ] N N . < < N N N N ] N N N ] ] ] ] N ] U ] ] ] ] N ] ] N ] s.s.K.K.K.U s.s.N N N N ] ] ] ] s.s.] ] s.] s.s.U ] ] ] ] ",
"] N N < N ] N N < < N N N ] ] N N N ] ] N ] ] N N N N K.K.K.N ] s.] ] ] s.] K.K.] s.N N ] ] N N N ] ] s.] ] ] N s.] ] ] ] ] ] ] ",
"N N N . N ] N N < < N N N ] N N N N N ] s.] N s.N N ] ] 6.] N ] s.N < N N s.K.K.s.s.s.N ] N s.] 6.] s.] N s.] 6.] s.s.] ] ] ] N ",
"] N ] N N N N   < N N N < N ] ] U N ] N ] N N ] ] ] ] s.] N N N ] ] N N ] N K.K.K.s.K.] ] s.] s.] s.s.K.s.] ] K.6.K.6.6.] N N ] ",
"N ] ] N N N ] N N O N N N N ] N N ] 6.N ] N N ] s.] ] ] ] ] N ] N ] N ] N ] K.K.D ] 6.N ] N ] ] N ] N ] ] N 6.s.6.] 6.6.] ] ] N ",
"N N N ] N N < < N N N N N N N N ] ] ] ] N N N ] s.s.] ] ] N N N N ] ] N N ] K.] s.K.s.N N < N ] ] ] ] N N U N N ] ] s.s.K.] ] N ",
"N N N N N N N < N ] N N N N N N ] N ] ] ] N ] ] ] ] s.] ] N < O N N N N < N ] ] ] K.N N N N N N 6.s.] ] N ] ] s.] ] K.] N ] ] ] ",
"N N N N . . < N N N < N O N N N N N ] ] N N ] 6.] N ] ] s.N N N N ] N . N N ] ] N ] U N N ] N ] ] N N ] ] ] ] ] s.s.] s.] N ] ] ",
"N N N N < . < ] N N N N ] N N N ] ] ] ] N N ] ] ] ] 6.D 6.] N ] ] N N N N N ] s.s.s.] ] ] ] ] ] N ] ] s.6.] ] s.U N ] N N ] ] U ",
"N N U ] N N N N N N N N N N ] N ] ] ] N N N ] ] ] s.K.] ] ] N ] ] N < N ] ] s.] s.s.N N ] N ] ] ] N U s.] ] N 6.N ] N N ] N ] ] ",
"N N ] < N < N N N N N ] ] N N N N ] N N N N N N U K.s.s.] ] N ] N N N ] s.] s.N N N N N N N ] ] ] ] U N N U K.K.6.s.s.] N ] ] N ",
"] < N N N N N N ] < N N N N N N N N N N ] N < N s.N s.] ] ] N ] ] N ] ] ] U ] N N N N N N N ] ] ] N N N s.K.s.s.s.] N < ] N N ] ",
"N < N N N N N < < N ] ] N N ] ] N N N N N ] N N 6.D s.6.s.] U N N ] ] ] N N N ] N N N N ] ] N N N N N N N ] ] N ] N N ] ] < N N "
};
