/* XPM */
static const char *exit[] = {
/* columns rows colors chars-per-pixel */
"64 64 211 2 ",
"   c #1C0B05",
".  c #1E0F0A",
"X  c #220D05",
"o  c #2C0C02",
"O  c #250700",
"+  c #330D00",
"@  c #3C0D00",
"#  c #370700",
"$  c #261006",
"%  c #2E1106",
"&  c #23120B",
"*  c #2B160A",
"=  c #2C180C",
"-  c #331403",
";  c #3C1302",
":  c #3D1A06",
">  c #351B0D",
",  c #391D0D",
"<  c #341704",
"1  c #211410",
"2  c #2B1B14",
"3  c #2C1E19",
"4  c #271A11",
"5  c #321D13",
"6  c #3C200D",
"7  c #2F221D",
"8  c #312312",
"9  c #3C2314",
"0  c #32231D",
"q  c #3D2519",
"w  c #353019",
"e  c #2F2421",
"r  c #312623",
"t  c #342925",
"y  c #362C29",
"u  c #392E2B",
"i  c #3C312D",
"p  c #3D3331",
"a  c #3F3837",
"s  c #400F00",
"d  c #431501",
"f  c #4A1601",
"g  c #451A04",
"h  c #4A1D05",
"j  c #431E0A",
"k  c #491F0A",
"l  c #551E04",
"z  c #591E03",
"x  c #4E2107",
"c  c #4A220B",
"v  c #532206",
"b  c #54260A",
"n  c #58270A",
"m  c #56280B",
"M  c #5A290B",
"N  c #472A15",
"B  c #4A2B17",
"V  c #4C2D1A",
"C  c #442716",
"Z  c #532613",
"A  c #5A2F19",
"S  c #572E18",
"D  c #453C1E",
"F  c #493F1E",
"G  c #4A331C",
"H  c #55321C",
"J  c #5D341C",
"K  c #5E391E",
"L  c #583715",
"P  c #622C0C",
"I  c #6D2C0B",
"U  c #742F0D",
"Y  c #68320E",
"T  c #75310E",
"R  c #622E10",
"E  c #643111",
"W  c #6B3511",
"Q  c #62361F",
"!  c #61391F",
"~  c #6C3A17",
"^  c #713712",
"/  c #753B14",
"(  c #7C3D15",
")  c #773A16",
"_  c #4F3A2D",
"`  c #463829",
"'  c #533622",
"]  c #5A3520",
"[  c #543A23",
"{  c #5D3A23",
"}  c #553E2E",
"|  c #423632",
" . c #463A34",
".. c #4A3B33",
"X. c #443D3C",
"o. c #493F3B",
"O. c #623A21",
"+. c #613621",
"@. c #3E4224",
"#. c #4A401F",
"$. c #7E4217",
"%. c #72411C",
"&. c #7E461B",
"*. c #63441B",
"=. c #4E4420",
"-. c #46462A",
";. c #504520",
":. c #58472B",
">. c #484335",
",. c #5D4F32",
"<. c #4E5836",
"1. c #585733",
"2. c #5C5128",
"3. c #6B4226",
"4. c #63422A",
"5. c #6B462A",
"6. c #654D22",
"7. c #604E30",
"8. c #615535",
"9. c #625837",
"0. c #655A3B",
"q. c #764725",
"w. c #57653B",
"e. c #50713F",
"r. c #616C3D",
"t. c #646132",
"y. c #5B6D42",
"u. c #547744",
"i. c #557844",
"p. c #5A7846",
"a. c #696743",
"s. c #65794B",
"d. c #6A7E51",
"f. c #737C51",
"g. c #803C14",
"h. c #813610",
"j. c #824217",
"k. c #844519",
"l. c #8A461A",
"z. c #864A1A",
"x. c #8B4B1B",
"c. c #894717",
"v. c #924E1D",
"b. c #8D501C",
"n. c #96521E",
"m. c #99531F",
"M. c #975117",
"N. c #A0561D",
"B. c #AB611E",
"V. c #8D5021",
"C. c #975320",
"Z. c #9B5520",
"A. c #9E5821",
"S. c #844F26",
"D. c #A45B23",
"F. c #AC5F22",
"G. c #946334",
"H. c #5D8A50",
"J. c #5D834C",
"K. c #608049",
"L. c #698E54",
"P. c #798759",
"I. c #699E5C",
"U. c #689859",
"Y. c #749D5F",
"T. c #69A25D",
"R. c #7E9562",
"E. c #7D9B66",
"W. c #6BA560",
"Q. c #76A866",
"!. c #77B469",
"~. c #78B469",
"^. c #76B96C",
"/. c #7ABC6E",
"(. c #75B167",
"). c #7BC06F",
"_. c #7BC472",
"`. c #E78D31",
"'. c #85A66D",
"]. c #89AD72",
"[. c #87AD72",
"{. c #8DB476",
"}. c #87BB76",
"|. c #93BD7D",
" X c #F8B466",
".X c #8CC57C",
"XX c #95C17F",
"oX c #90CD7F",
"OX c #92CE81",
"+X c #9BCC86",
"@X c #98C682",
"#X c #95D183",
"$X c #99D386",
"%X c #9CD58A",
"&X c #9FD98E",
"*X c #A2D38B",
"=X c #A3D38B",
"-X c #A2D28A",
";X c #A1D18A",
":X c #A3D48B",
">X c #A2D48B",
",X c #A3D48C",
"<X c #A2D68D",
"1X c #A4D48C",
"2X c #A3D38B",
"3X c #A6D98F",
"4X c #A4D98E",
"5X c #A6DC91",
"6X c #A9DE92",
"7X c #A9DC91",
"8X c #AAE094",
/* pixels */
"*X*X:X*X:X:X:X:X:X:X:X:X:X:X:X:X:X:X*X*X,X:X:X*X,X:X,X:X:X,X:X:X:X,X,X:X,X:X:X:X:X:X:X:X:X:X:X:X:X:X:X:X*X:X:X:X:X*X*X*X:X:X:X*X",
":X*X:X:X:X*X*X:X:X:X:X,X:X*X:X,X:X:X:X:X:X,X:X*X:X*X*X,X:X:X:X,X,X=X:X,X,X:X:X:X:X,X*X:X:X,X:X:X:X:X:X:X*X:X:X:X:X*X:X:X:X:X:X*X",
":X*X:X*X*X:X:X:X:X:X:X*X*X*X:X,X:X,X,X:X:X:X*X*X*X:X:X*X*X:X:X:X,X:X:X*X:X:X*X*X,X*X*X*X:X,X:X:X:X:X:X:X:X:X*X:X:X:X,X:X:X:X:X:X",
"*X:X*X*X,X,X:X:X:X:X:X:X,X*X:X,X:X:X:X,X:X:X:X*X*X:X,X*X*X*X*X*X*X*X*X*X*X,X,X*X:X*X:X:X,X:X:X:X,X,X:X:X:X:X:X:X:X:X:X:X:X:X:X*X",
":X:X:X*X*X:X:X*X:X:X:X,X:X:X:X,X:X:X,X:X:X:X,X*X:X*X*X:X3X6X6X6X6X6X6X3X*X*X*X*X*X*X*X:X,X,X,X:X,X:X:X:X*X:X*X:X:X:X:X:X,X:X:X:X",
":X*X:X*X*X:X*X*X:X*X,X1X:X:X:X:X,X,X:X,X:X:X,X*X*X5X6X%X|.'.R.P.P.R.'.|.,X8X6X*X*X*X:X:X:X,X,X,X,X,X:X:X:X*X:X*X:X,X:X:X:X:X:X:X",
":X*X*X*X*X*X:X*X:X:X,X:X:X1X:X:X:X:X*X:X:X*X*X7X6X{.P.0.4.{ J J J ] { :.,.s.[.5X6X*X*X,X:X,X:X:X*X*X:X:X:X:X:X:X:X:X*X:X:X:X:X*X",
":X*X:X:X:X*X:X:X*X:X:X:X:X:X,X:X:X*X:X:X*X1X6X{.a.4.+.Q K ! O.O.! ! K O.O.H q -.E.6X3X*X:X:X,X,X:X:X:X:X,X:X*X:X:X:X:X:X*X:X:X*X",
":X*X:X:X*X:X:X*X:X:X:X:X:X:X,X,X,X:X,X*X3X,XP.{ Q ! K O.O.K H H H J O.! K O.3.H & >.|.6X*X*X,X:X:X:X:X:X,X:X*X*X:X:X*X:X*X*X:X:X",
"*X*X:X*X*X*X:X:X:X*X*X:X,X,X,X:X,X1X*X7X@X0.+.O.K O.K N = & X X $ * = N { O.J O.5.5 4 R.8X*X*X*X:X:X:X*X*X*X*X:X:X:X:X:X:X:X:X:X",
":X*X:X:X:X*X*X:X,X*X:X:X1X1X,X:X,X*X7X@X,.Q K K K C &   % : b k M M O o * G O.J K 5.9   d.8X*X:X,X,X:X:X:X*X:X,X:X:X,X:X,X,X:X*X",
":X*X:X:X:X:X*X:X,X:X,X:X1X1X1X:X*X3X+X8.Q K ! H =   - c R E $.^ $./ o ; + o C O.K K 5.9   d.8X*X:X:X:X:X:X:X:X,X:X*X*X*X:X,X:X*X",
":X*X:X:X*X:X:X:X,X:X:X:X:X,X:X*X*X3Xa.Q K ! B & X c R W j.j.n.k.x.k.o ; ; ; o 9 O.K ! 4.5 X E.8X*X,X,X:X,X:X:X:X:X*X*X:X:X,X*X:X",
":X*X:X*X*X:X,X,X,X:X:X:X:X:X,X*X8XP.J K ! B &   b ^ ( l.x.k.n.k.z.k.o ; ; ; @ 8 ` ! J O.{ & 8 XX3X*X*X:X*X:X*X:X:X:X:X:X:X:X:X:X",
"*X*X*X*X*X:X*X*X:X*X*X:X:X,X*X3X|.{ ! K V & % k E v.x.x.v.x.m.k.b.k.o ; ; ; # =.H.V O.J 3.V X <.6X*X,X:X*X*X:X:X:X:X*X*X:X,X:X:X",
"*X*X:X:X:X:X:X*X*X:X:X*X:X,X*X6Xa.J K J = X M M &.Z.x.x.v.x.Z.k.b.z.+ ; ; ; @ D _.<.J K K O.= $ '.6X*X:X,X:X:X,X:X:X*X:X:X,X:X:X",
":X:X:X:X:X:X:X:X:X:X:X*X:X*X7X|.] ! ! 9 X k / ^ z.A.v.v.n.v.A.z.b.z.+ d ; d @ D /.T.' O.J O.C X -.6X*X:X:X,X:X:X,X,X,X,X:X:X:X:X",
"*X*X*X*X:X*X*X*X:X,X,X:X,X*X8Xf.A O.H * % E k.$.z.D.n.v.m.v.A.k.b.z.+ d d g @ F ^./.e.J K O.] * = {.6X*X:X:X*X:X:X,X:X:X:X*X*X:X",
":X*X:X:X*X*X:X:X*X:X:X*X*X1X%X7.K K 9 X c ( n.$.z.D.n.v.m.n.A.x.b.z.+ d d g @ F /./.I.' O.K O.5 o p.8X*X:X*X:X:X:X:X:X:X:X*X*X*X",
"*X:X:X:X*X*X*X:X*X*X:X:X*X5X{.] ! H * % E x.m.$.z.D.n.v.Z.n.A.x.z.z.; g d g @ F /.!.^.:.Q K O.q o @.%X1X*X:X:X*X*X*X,X,X:X:X:X*X",
"*X*X*X*X:X:X*X*X:X:X:X:X*X6XR.A O.B $ : $.n.m.j.z.D.n.v.Z.n.Z.x.z.z.; g g g s F /.!.).y.J K O.B * 8 }.3X*X:X:X:X:X*X*X:X*X:X:X:X",
"*X*X*X:X:X:X:X*X*X*X,X:X*X6Xf.A O.C X m x.m.Z.k.z.D.n.v.A.Z.m.x.x.z.; g g g d F /.!./.H.H ! O.V * = Q.7X*X*X*X:X:X*X:X:X*X*X*X:X",
":X*X:X,X*X:X:X*X:X:X:X:X*X6Xa.J K > X W x.n.A.k.z.D.C.v.Z.Z.C.z.b.k.; g g g d F /.!./.U.' ! O.V * * L.3X*X:X:X*X*X*X:X:X:X:X:X,X",
"*X*X*X*X*X*X*X*X:X:X:X:X*X4X9.K K > % / n.m.D.k.x.F.m.v.m.m.m.c.x.k.; g g g d F /.~./.T.[ O.! B * % J.4X*X*X:X,X*X*X*X:X*X*X:X:X",
"*X*X*X:X*X:X*X:X:X*X:X*X*X5X9.S H * - / x.z.V.%.%.S.q.3.5.5.4.:.} , d g h h d F /.~./.W.[ O.! B * % p.4X*X*X*X:X:X:X:X*X*X:X:X,X",
"*X*X:X:X,X:X*X*X:X:X:X*X3XXX>...| & 0 .. .o.o.>.o.X.X.o.o.X.a a p   g g h h d F /.~./.W.[ O.! B * % p.%X*X*X*X*X:X:X:X*X*X:X:X*X",
"*X:X:X*X*X,X:X*X:X:X:X*X7X{.i i t 1 3 y u y i i i u t t i i t r t X g h h h d F /.~./.W.[ O.! B * % i.%X*X*X:X:X:X*X*X:X:X*X*X*X",
"*X*X*X*X*X:X:X:X:X:X:X*X3X{.i r t & 3 i t t | |  .i r | | | i r y   h h h h d #./.~./.W.[ O.! B = % i.$X=X:X:X:X*X*X:X*X*X*X*X*X",
"*X*X:X:X:X*X:X*X:X,X:X*X7X{.y y r & 2 r r r r r r e 0 7 3 3 5 5 2 % g h h x f #./.~./.W.[ O.O.B = % i.$X=X*X*X*X:X*X*X*X*X*X*X*X",
"*X*X:X:X*X*X*X*X*X*X*X*X1X*X` > > X X : c c b j k M M M P Y ^ P W W ; x g h f #./.!./.W.[ O.! B = % i.$X=X*X*X:X:X*X*X*X*X:X*X*X",
"*X*X:X:X:X*X*X*X*X:X*X*X*X5X9.A J > < $.x.x.v.( &.D.v.n.v.n.A.x.x.j.; v < : h #./.~./.W.[ O.! B = % i.#X=X*X,X:X*X*X*X*X*X:X,X:X",
"*X*X:X*X*X*X*X,X:X,X:X*X*X4X9.J O., : x.n.n.A.j.z.D.n.m.v.m.A.x.x.$.d x - < f #./.~./.W.[ O.! B = % i.#X=X*X*X:X:X*X:X:X:X*X:X*X",
"*X*X*X:X:X*X*X:X*X:X,X,X*X4X9.J ! , : x.n.n.A.j.z.D.m.n.v.Z.A.x.x.$.d h - - d =./.!./.W.[ O.! B = % u.#X=X*X*X*X:X*X:X:X:X*X*X*X",
"*X*X*X*X*X*X:X*X*X*X*X,X*X4X9.J ! , : x.n.m.A.k.z.D.m.n.v.m.A.x.b.j.d h - - d =./.!./.W.[ O.! B = % u.#X=X*X:X:X*X*X*X:X:X*X*X*X",
"*X*X:X:X*X:X:X*X*X*X*X:X*X4X9.J ! , : x.n.Z.D.k.z.D.Z.n.n.Z.A.x.b.j.d h O % d =./.!./.W.[ O.! B = % i.#X=X*X*X*X*X:X*X*X*X*X*X*X",
"*X*X:X:X:X:X:X*X*X*X:X:X*X4X9.J O., : x.n.Z.D.k.z.D.Z.m.n.Z.A.x.b.$.g j K 6 ; ;./.~./.W.[ O.! B = % i.#X=X*X*X*X*X*X*X*X*X*X*X*X",
"*X*X:X:X*X:X,X:X*X*X*X*X*X4X9.J O., : x.n.Z.D.k.z.D.Z.m.m.Z.Z.x.b.k.+ G. XB.+ =./.~./.T.[ O.O.B = % i.#X=X*X:X*X*X*X*X*X*X*X*X*X",
"*X*X*X*X*X:X,X:X*X:X:X*X*X4X9.J O., : x.n.m.D.j.z.D.Z.Z.m.Z.m.x.b.k.o D.`.B.; =./.!./.T.[ O.! B = % u.#X=X*X*X*X*X*X*X:X:X:X*X*X",
":X*X*X*X:X*X*X:X*X*X*X*X*X4X9.J O., : x.m.n.D.j.z.D.Z.Z.m.Z.m.x.b.j.; x M.Y + =./.~./.T.[ O.! B = % i.#X=X*X*X*X*X*X:X:X:X:X:X*X",
"*X*X*X:X:X*X*X:X:X:X:X*X*X4X9.J O., : x.n.v.A.j.z.D.m.Z.m.Z.n.x.x.$.g h - - f =./.~./.T.[ O.! B = % i.OX=X*X*X:X:X*X*X:X:X*X*X*X",
":X*X:X:X*X,X:X:X:X*X*X:X*X4X9.J O., : x.n.x.A.$.z.D.m.m.m.m.m.k.z.j.d M < : l =./.~./.T.[ O.! B = % u.OX=X*X*X*X:X*X*X:X:X*X*X:X",
":X*X*X*X*X*X:X:X*X*X*X*X*X4X9.J ! , : x.n.x.A.$.z.D.m.m.m.m.m.k.z.$.g M % < z =./.!./.T.[ O.! B = % u.OX1X*X*X*X:X*X*X*X*X*X*X:X",
"*X*X:X*X*X*X*X*X*X:X*X:X:X,X,.J { > : l.v.x.Z.$.z.D.n.m.n.m.m.k.z.j.g M v v l =./.!./.T.[ O.! B = % u.oX=X*X*X*X*X*X:X*X*X*X*X*X",
"*X:X:X:X*X*X:X,X:X*X:X:X*X3X8.J ! , : l.n.x.m.$.z.D.m.Z.m.Z.m.k.z.$.h M n M l =./.~./.T.' O.! B = % u.OX=X*X*X:X*X:X*X:X*X*X*X*X",
":X*X:X:X*X:X,X:X:X,X,X*X1X+X:.' G * > ~ %.~ &.~ %.z.z.x.x.x.x.$.k.$.h M M M l =./.~./.T.' O.! B * % u.OX1X*X:X*X*X*X*X:X:X:X:X:X",
":X*X*X*X*X*X*X:X:X,X*X*X6X].u p y 1 e p p p  . . . ........._ _ _ > x n n M l =./.~./.T.' O.! B = % i.OX=X*X*X:X:X*X*X*X*X*X*X:X",
"*X*X*X*X*X*X:X:X:X*X*X*X6X].u y r 1 3 t r e i i i i y u p p p i y   v n n M l =./.!./.T.' O.! B = % u.OX*X*X*X:X:X:X*X*X*X*X:X*X",
":X:X*X,X,X*X:X*X*X*X:X*X6X].t y y 1 3 i r u | | | u e u | | u r t X b M n M l =./.!./.T.[ O.! B = % u.OX=X*X*X:X*X:X*X*X*X*X*X*X",
":X*X*X:X,X*X*X*X*X*X*X*X3X|.t 0 3 . & 2 7 7 7 r r r r y u i u y y   b n M M l ;./.!./.T.' O.! B = % u.OX*X*X*X*X*X*X*X*X*X:X*X*X",
"*X*X*X*X:X:X*X*X*X:X*X*X*X5X,.c N * % P M M M k j c j j , , 5 5 2 $ b n M M l ;./.!./.I.' O.K B = % u.oX=X*X*X*X*X:X*X*X*X:X*X*X",
":X:X*X*X*X*X*X*X*X:X*X*X*X,X8.K O.> : j.k.k.l.^ / l.j.j.( ( ) P W W h n n n l =./.!./.T.' O.K B = % u.oX=X*X*X:X*X*X:X*X*X:X:X*X",
":X*X*X*X*X*X*X*X*X*X*X:X*X,X8.J K > : ( j.j.k.^ / l.j.k.j.l.l.( z.k.h M M n v =./.!./.T.' O.K N = % u.oX=X*X*X:X:X*X:X:X*X*X:X:X",
"*X*X:X:X,X*X*X*X,X*X*X*X*X,X8.J K > : ( ( j.k.^ $.l.j.j.( k.k./ k.$.h M n n l ;./.!./.T.' O.J N = % u.OX=X*X*X*X*X:X:X:X,X:X:X:X",
"*X:X:X*X*X:X:X*X:X:X*X*X*X,X8.J K > : ( ( j.j.W ( l.j.j.( k.j./ k.$.h M n n l =.^.!./.T.' O.J N * % u.OX1X*X*X*X*X:X:X:X*X*X*X*X",
"*X*X*X*X:X*X*X:X:X*X*X*X*X,X9.K O.6 : ( ( $.j.W / l.( j.) j.j./ k.$.h M n n v ;.^.(./.I.' ! J B * % u.oX=X*X*X*X:X*X:X*X*X*X:X:X",
":X*X*X*X*X*X,X:X*X:X*X*X*X,X:.Z A - + I U T h.I ( l.g.j.) $.j./ &.$.h M n n z F ^.(.!.U.' ! H B = % u.oX1X*X*X*X:X*X*X*X*X*X*X:X",
":X*X:X*X*X*X:X:X*X*X*X*X*X1XR.r.w.1.y.r.1.2.2.L L ^ Y U I T h.U j.j.d l h c N w.!.~..XQ.[ O.J V = o e.oX1X*X:X:X*X:X*X:X:X:X*X*X",
"*X*X*X*X*X*X:X*X*X*X*X*X*X*X6X8X6X6X6X6X&X%XOX.X}.Q.Y.L.s.r.t.2.6.*.D 1.K.W.}.OX+X*X7XXXV Z Z j X w I.$X=X*X*X:X*X*X:X*X*X:X*X*X",
"*X*X*X:X,X:X*X*X*X:X:X*X*X*X*X*X*X*X*X*X*X1X1X1X7X7X6X6X6X4X%X#X.X}.oX%X4X5X1X1X1X*X*X*XE.d.y.w.U.OX3X1X:X*X:X*X:X:X:X:X*X:X:X:X",
"*X*X*X*X:X*X:X:X*X,X:X*X:X:X*X:X:X,X:X*X*X*X*X*X*X*X*X*X*X*X=X1X1X1X1X*X*X*X*X*X*X*X*X:X6X8X6X8X6X1X*X*X:X:X:X:X,X:X:X*X:X*X*X:X",
"*X*X*X*X:X*X:X*X:X*X*X:X:X:X*X*X:X:X:X*X*X:X*X*X*X:X*X*X*X*X*X*X*X*X*X*X*X*X,X*X*X*X*X*X*X*X*X*X*X*X*X*X*X*X*X:X*X*X*X:X*X*X*X*X",
":X*X*X*X*X*X*X*X,X*X*X*X,X:X*X*X:X*X*X:X*X*X*X*X:X*X*X:X*X*X*X*X:X:X*X*X*X*X*X*X*X*X:X*X:X:X:X*X*X*X*X*X*X:X*X*X*X*X*X*X*X:X:X:X",
"*X*X:X*X*X*X*X*X:X:X*X*X:X:X*X*X*X*X*X:X,X:X*X*X*X*X*X*X*X*X*X:X*X*X:X:X:X*X*X*X*X:X*X*X:X:X:X*X:X*X*X:X*X:X:X*X*X*X*X:X:X:X*X*X",
"*X*X*X:X*X*X*X*X*X*X*X*X*X:X:X*X:X*X*X*X*X*X*X*X*X*X*X*X:X*X*X:X*X*X*X*X*X:X:X*X:X*X*X*X*X*X:X:X*X*X*X*X*X:X:X*X*X:X:X*X*X*X*X*X"
};
