/* XPM */
static const char *collectible_0[] = {
/* columns rows colors chars-per-pixel */
"64 64 168 2 ",
"   c #472A13",
".  c #4B2D15",
"X  c #502F14",
"o  c #4E3117",
"O  c #4D331B",
"+  c #533215",
"@  c #593715",
"#  c #5E3A16",
"$  c #52351C",
"%  c #52391F",
"&  c #5B3C1D",
"*  c #623D17",
"=  c #4F3920",
"-  c #523C21",
";  c #674117",
":  c #6B4517",
">  c #63431E",
",  c #684318",
"<  c #734717",
"1  c #734A18",
"2  c #7D5219",
"3  c #554226",
"4  c #584427",
"5  c #564528",
"6  c #584729",
"7  c #5A4B2C",
"8  c #5C512F",
"9  c #5E5431",
"0  c #664620",
"q  c #6C4B22",
"w  c #775625",
"e  c #7B5825",
"r  c #605533",
"t  c #625A35",
"y  c #655E38",
"u  c #765C31",
"i  c #666039",
"p  c #68633C",
"a  c #6A693F",
"s  c #6D6C41",
"d  c #6F7044",
"f  c #717447",
"g  c #757A4A",
"h  c #797F4E",
"j  c #84551A",
"k  c #86591C",
"l  c #8D591A",
"z  c #94631C",
"x  c #9A661D",
"c  c #9E691D",
"v  c #A46B1C",
"b  c #AD741F",
"n  c #B2751E",
"m  c #B47A1F",
"M  c #BB7B1F",
"N  c #896428",
"B  c #926D2C",
"V  c #95712E",
"C  c #99732F",
"Z  c #A97523",
"A  c #B47A21",
"S  c #BC7F20",
"D  c #A17A31",
"F  c #C47D1F",
"G  c #C57F21",
"H  c #7A824F",
"J  c #7B8551",
"K  c #7E8953",
"L  c #BF8222",
"P  c #B7862D",
"I  c #AB8233",
"U  c #B58B36",
"Y  c #B48B37",
"T  c #BB9139",
"R  c #C48421",
"E  c #CC8420",
"W  c #C78C28",
"Q  c #D18721",
"!  c #D48B22",
"~  c #D98F23",
"^  c #DC9224",
"/  c #D59529",
"(  c #DF9A28",
")  c #C69535",
"_  c #C59A3C",
"`  c #CA9F3F",
"'  c #E19725",
"]  c #E59B26",
"[  c #E69E29",
"{  c #E89F28",
"}  c #CEA13E",
"|  c #D1A33E",
" . c #D9AA3F",
".. c #E7A02B",
"X. c #EAA42C",
"o. c #EEAB32",
"O. c #F0AF35",
"+. c #F2B137",
"@. c #F4B53A",
"#. c #F7BA3D",
"$. c #F9BC3E",
"%. c #818B57",
"&. c #83935B",
"*. c #87995F",
"=. c #889A5F",
"-. c #A28648",
";. c #AAA85D",
":. c #899D61",
">. c #8DA365",
",. c #8FA868",
"<. c #93A565",
"1. c #93AC6B",
"2. c #94B06C",
"3. c #96B470",
"4. c #99B672",
"5. c #9BBB74",
"6. c #DCAD43",
"7. c #DEB14A",
"8. c #E7B442",
"9. c #EBB945",
"0. c #F9BD40",
"q. c #ECBE50",
"w. c #C4AA64",
"e. c #D9BE72",
"r. c #9FC178",
"t. c #A2C57B",
"y. c #A5CB7E",
"u. c #A8D07F",
"i. c #BDD277",
"p. c #B6D37D",
"a. c #BBD27B",
"s. c #F7C147",
"d. c #FEC547",
"f. c #F4C14B",
"g. c #FFC648",
"h. c #FFC84A",
"j. c #EDC053",
"k. c #E9CF5F",
"l. c #FDCB54",
"z. c #FDCD5B",
"x. c #FFD15D",
"c. c #D3D069",
"v. c #DBD26D",
"b. c #C4D276",
"n. c #EED267",
"m. c #FED264",
"M. c #F6D46C",
"N. c #FED56D",
"B. c #F5D472",
"V. c #FED772",
"C. c #FFD974",
"Z. c #FEDB7B",
"A. c #A6CC81",
"S. c #A9CE82",
"D. c #A7D182",
"F. c #AAD384",
"G. c #ACD485",
"H. c #ACD486",
"J. c #A7D089",
"K. c #ADD488",
"L. c #ACD489",
"P. c #B3D380",
"I. c #B0D689",
"U. c #FEDE84",
"Y. c #FFE086",
"T. c #FFE18B",
"R. c #FFE493",
"E. c #FEE79A",
/* pixels */
"F.F.F.F.F.F.F.F.F.F.F.G.F.G.G.G.G.G.G.G.G.G.G.G.G.G.G.G.G.G.F.F.F.G.G.G.G.G.G.G.G.G.F.F.F.F.F.F.F.F.F.F.G.G.G.G.F.F.F.F.F.F.F.F.",
"F.F.F.F.F.F.F.F.F.F.F.F.G.G.F.G.G.G.G.K.K.K.G.G.F.G.G.G.G.G.F.F.F.F.F.G.G.G.G.G.G.G.G.G.F.F.F.F.F.F.G.F.G.G.F.F.F.F.F.F.F.F.F.F.",
"F.F.F.F.F.F.F.F.F.F.F.F.F.F.G.G.F.K.K.K.K.K.G.G.G.G.G.G.G.G.G.G.F.F.G.G.G.G.G.G.G.F.G.F.F.F.F.F.F.F.G.G.G.F.G.F.F.F.F.F.F.F.F.F.",
"F.F.F.F.F.F.F.F.F.F.F.G.K.F.G.G.G.G.G.G.G.G.G.G.G.G.G.G.G.G.G.G.F.G.G.G.G.G.G.F.F.F.F.F.F.G.F.F.F.F.F.F.G.F.G.G.F.G.F.F.G.F.F.F.",
"F.F.F.F.F.F.F.F.F.G.G.G.G.G.G.G.G.G.G.K.G.G.G.G.K.F.G.G.F.G.F.F.F.G.G.G.G.G.G.F.F.F.F.F.F.F.F.F.F.F.G.F.F.F.F.G.F.F.F.F.F.F.F.F.",
"F.F.F.F.F.F.F.F.F.G.G.G.G.G.G.G.G.G.G.G.G.F.G.G.G.G.F.F.F.F.F.G.G.G.G.G.G.G.G.F.F.G.G.F.F.G.F.F.G.F.G.G.F.F.F.G.F.F.G.F.F.F.F.G.",
"F.F.F.F.F.F.F.F.G.G.G.F.F.F.G.F.F.G.K.G.G.F.G.G.F.F.F.F.F.F.F.G.G.G.F.F.F.F.K.G.G.F.F.G.F.F.F.F.G.F.F.F.F.G.G.G.F.G.G.G.F.F.F.F.",
"F.F.F.F.F.F.F.F.G.F.G.F.F.F.F.F.F.G.G.G.G.G.G.G.F.F.F.F.F.F.F.G.G.F.G.F.F.G.G.G.F.F.F.F.K.F.F.F.F.F.F.F.F.F.F.G.F.G.G.F.F.F.F.F.",
"F.F.F.F.F.F.F.F.G.G.F.F.F.G.G.F.F.F.F.F.F.G.G.F.G.G.F.G.F.F.F.F.F.G.F.F.F.G.G.F.F.F.F.F.G.F.F.F.F.F.G.G.F.G.F.F.F.G.G.G.G.F.F.G.",
"F.F.F.F.F.F.F.F.F.F.F.F.F.G.F.F.F.F.G.F.G.G.G.F.G.F.F.F.G.F.F.F.F.F.F.G.G.F.y.y.A.G.F.G.F.G.G.F.G.G.G.G.F.G.F.F.F.G.G.G.F.F.F.G.",
"F.G.G.F.F.F.F.F.F.F.F.F.F.F.F.F.F.F.F.F.F.G.F.F.F.F.F.F.F.F.F.G.F.F.G.5.%.y 7 6 r f >.A.F.F.i.P.F.G.F.G.F.G.F.G.F.G.G.G.G.F.F.G.",
"F.F.F.F.F.F.F.F.G.F.F.F.F.F.F.F.F.F.F.F.F.F.F.F.F.F.G.F.F.F.F.F.G.S.%.5 & e B V N > O p 4.F.c.p.F.G.G.F.F.F.F.F.G.G.G.G.G.G.G.F.",
"F.F.F.F.F.F.F.G.F.F.F.F.D.F.F.F.F.G.F.F.F.F.F.F.F.F.G.G.F.G.F.G.S.f % B 6.l.l.h.g.8.I & 3 <.k.a.F.F.F.F.F.G.F.G.G.K.G.G.G.G.G.G.",
"F.F.F.F.F.F.G.G.G.F.F.F.F.F.F.F.F.G.G.F.F.F.F.F.F.F.F.F.F.F.F.F.H $ I l.Z.R.U.h.g.h.h.} > u B.b.F.F.F.G.F.F.F.G.G.I.I.K.K.G.G.G.",
"F.F.F.G.F.F.F.F.F.G.F.F.F.F.G.F.F.G.F.F.F.F.F.F.F.F.F.G.F.F.G.1.- C l.Y.E.E.C.g.g.g.g.h.` w.T.v.F.F.F.G.F.F.G.G.K.G.G.G.K.G.G.G.",
"F.F.F.F.F.F.F.F.F.G.G.G.F.F.F.F.F.F.F.F.F.F.F.F.G.F.F.F.F.G.F.s > 8.C.E.E.C.h.d.d.d.d.h.V.R.R.M.i.F.F.F.F.G.G.G.G.G.G.G.G.K.G.G.",
"F.F.F.F.G.F.F.F.F.F.F.F.F.F.F.F.F.F.F.F.F.F.G.F.F.F.G.G.G.F.t.3 B h.C.Y.N.h.d.g.z.m.N.U.E.E.E.Y.n.i.G.F.F.G.G.G.K.G.G.F.G.G.G.F.",
"G.F.F.G.F.F.F.F.F.F.F.F.F.F.F.F.F.F.G.F.F.F.F.G.F.F.F.G.F.F.1.$ P h.h.h.g.g.g.g.z.Z.R.E.E.E.E.E.R.Z.v.i.G.F.G.G.G.G.F.G.G.G.G.G.",
"G.F.F.F.F.F.F.F.F.F.F.F.F.F.F.F.F.F.G.F.F.F.F.G.F.F.F.F.F.F.<.O P h.g.g.g.g.g.g.d.g.z.U.E.E.E.E.e.-.;.a.G.G.G.G.G.G.G.G.G.G.G.G.",
"F.F.F.F.G.F.F.F.F.F.F.F.F.F.F.F.F.F.F.G.G.F.G.G.F.F.F.F.F.F.1.O Z d.g.g.g.g.g.g.g.g.d.l.U.E.R.N.T > - J S.F.G.K.G.K.K.G.G.G.G.G.",
"G.F.F.F.F.F.F.F.F.F.F.F.F.F.F.F.F.F.F.F.F.F.F.F.F.F.F.F.F.F.5.3 k o.g.g.g.g.g.d.d.d.g.d.m.R.C.g.g.8.N O J F.F.G.K.K.K.G.G.G.G.G.",
"G.G.F.F.G.G.G.F.G.F.F.F.F.F.F.F.G.F.F.F.F.G.F.F.F.F.F.F.F.F.F.i # / d.g.d.g.g.d.d.d.d.d.l.Y.z.d.d.h.o.k O ,.G.G.K.G.K.G.G.F.G.G.",
"G.F.F.F.F.G.G.F.F.F.F.F.F.F.G.G.F.G.F.F.F.F.F.F.F.F.F.F.F.F.,.4 q 6.h.g.g.g.d.d.d.d.d.d.h.V.h.g.g.g.$./ ; y S.G.G.G.G.G.G.G.G.K.",
"F.G.F.F.F.F.F.G.F.F.F.F.F.G.G.G.F.G.F.F.F.F.F.F.F.F.F.F.F.&.- e 7.Z.V.g.g.g.g.g.d.d.d.d.g.z.g.g.g.g.#.{ z O 4.G.G.F.F.G.G.K.G.G.",
"F.G.G.F.F.F.F.F.G.F.F.F.F.F.G.F.F.F.F.F.G.F.F.F.F.F.F.t.g % B j.Y.T.z.d.g.g.g.g.d.d.d.d.d.h.g.g.g.g.+.{ A o =.G.G.G.G.F.G.G.G.G.",
"F.F.F.F.F.F.F.G.G.F.G.F.F.F.F.F.F.F.G.F.G.F.F.F.F.F.5.p & I z.T.T.z.d.d.g.g.g.g.d.d.d.d.d.d.g.g.g.d.X.] S + &.G.G.G.G.F.F.G.G.G.",
"F.F.F.F.F.F.F.F.F.G.F.F.F.F.F.G.F.F.F.G.G.F.F.F.D.1.7 0 _ m.R.Y.z.d.d.d.g.g.g.g.g.d.g.d.d.g.g.g.d.o.] ^ n o &.G.G.F.K.G.F.F.G.G.",
"F.F.F.F.G.F.F.F.F.F.F.F.F.F.F.t.4.5.t.F.F.G.F.F.&.3 w 6.V.R.U.l.d.d.d.d.g.g.g.g.#.+.0.d.d.g.d.0.o.{ ' ! c O <.K.G.G.G.G.G.F.G.F.",
"F.F.F.F.F.F.F.F.F.F.F.F.y.:.p 5 - - 6 s >.S.A.h % B q.Z.R.C.h.d.d.d.d.g.g.g.d.@...{ ..X.o.o.X.{ ] ' E ! 1 6 t.G.G.F.F.F.G.G.K.G.",
"F.F.F.F.F.F.F.F.F.F.F.5.p $ w D Y Y C q % s p & I z.Y.R.N.g.d.d.d.d.d.d.g.d.O.{ ' ~ ' ] ] ] ] ] ^ E ! b . h G.G.G.G.G.G.G.G.K.G.",
"F.F.F.F.F.F.F.G.F.G.5.9 > T f.l.h.h.h.9.Y > 0 _ m.R.T.m.d.d.d.d.d.d.g.g.s.o.] ^ E E E E E Q E E F ! R # 6 r.F.G.F.G.K.K.G.G.K.K.",
"F.F.F.F.F.F.F.F.F.t.y > | x.U.R.Z.g.g.g.h. . .m.R.U.l.d.g.d.d.d.d.g.g.$.X.] ^ E ! L ! ~ Q E E ! ^ m * - <.F.G.G.G.G.G.G.G.G.K.K.",
"F.F.F.G.F.F.F.F.F.&.$ T x.R.E.E.N.g.g.g.g.g.d.l.m.h.d.g.g.d.d.d.g.d.@...] ! E ! z X ; x S R R b 2 . 3 >.F.G.F.F.F.F.F.G.F.F.L.K.",
"F.F.F.G.F.F.G.G.y.9 e s.Z.E.R.V.g.g.g.g.d.d.g.d.d.g.g.d.d.d.d.g.d.+.{ ' Q E E 2   9 7 . . + . . = s 4.F.F.F.F.F.G.F.G.G.F.G.K.K.",
"G.F.F.F.F.F.F.G.3.% I h.z.N.z.g.g.g.g.g.g.g.g.g.g.g.g.g.g.g.g.d.o.] ' E E S : . g A.y.,.K h J :.5.F.F.F.F.F.F.F.G.F.G.G.F.F.L.L.",
"F.F.F.F.F.F.F.G.>.+ ) h.d.d.g.g.g.g.g.g.g.g.g.d.g.g.g.d.d.g.0.X.] ^ E Q b # O &.G.G.F.G.G.F.F.F.F.F.F.F.F.F.G.F.F.F.F.G.K.F.L.L.",
"F.F.F.F.F.F.F.F.*.o W g.g.g.g.g.g.g.g.g.g.g.g.g.g.g.g.g.d.#...] ^ E E x + 5 <.F.G.G.F.G.G.G.F.F.F.F.F.F.F.F.F.F.G.F.F.F.K.K.L.L.",
"F.F.F.F.F.F.F.F.>.O A #.g.g.g.g.g.g.g.g.g.g.g.g.g.g.g.d.@...] ! E E j   r 5.G.F.G.G.F.F.G.F.F.F.F.F.F.G.G.F.F.F.F.F.F.F.K.K.K.K.",
"F.F.F.F.F.F.F.F.5.- l ] @.d.g.g.g.g.g.g.g.g.g.g.g.g.g.s...] ! E F 1 . d t.G.F.F.G.F.F.F.F.F.G.F.F.F.F.F.F.F.F.F.F.F.F.F.F.K.K.J.",
"F.F.F.F.F.F.F.F.A.y * G ] o.0.d.d.d.d.g.g.g.g.g.g.g.g.d.O.E M n * O K S.F.F.F.F.F.F.G.F.F.F.F.G.F.F.G.F.G.F.F.F.G.F.G.K.F.F.K.K.",
"F.F.F.F.F.F.F.F.F.:.O j E ^ [ X.X.X.#.g.g.g.g.g.g.g.g.h.$.L * + 3 :.F.F.F.F.G.G.F.G.F.G.F.G.G.G.F.F.F.F.F.F.F.G.G.F.F.F.F.F.K.K.",
"F.F.F.F.F.F.F.F.F.A.d . l F ! ~ ^ [ s.g.g.g.g.g.g.g.g.h.0.( , - 2.F.F.F.F.F.F.G.G.G.F.G.F.F.G.G.F.F.F.F.F.F.F.G.G.G.F.F.F.F.F.K.",
"F.F.F.D.F.D.D.F.F.F.t.a . < v F E ..d.g.g.g.g.g.g.g.g.h.$...k 5 t.F.F.G.F.F.G.F.G.G.F.F.G.F.F.F.F.F.F.F.F.F.F.G.F.G.F.F.F.F.F.K.",
"F.F.F.D.D.F.F.F.F.F.D.t.J - . # c ..d.g.g.g.g.g.g.g.g.h.+.{ z = 5.F.G.F.G.F.G.G.G.F.F.G.F.F.G.F.F.F.F.F.F.F.F.F.F.G.G.G.F.F.F.F.",
"F.F.F.D.u.D.D.D.F.F.F.F.F.5.H O j ] @.h.g.g.g.g.g.g.h.s.X.' z O 5.F.F.F.F.G.G.F.G.G.F.G.G.F.F.F.F.F.F.F.F.F.F.F.F.F.G.G.F.F.F.F.",
"F.F.F.F.D.D.D.F.F.F.F.F.F.F.A.9 1 ' X.0.h.g.g.g.g.h.d.o.] ! j - t.G.F.F.G.G.F.F.F.G.G.F.F.G.F.F.F.G.F.F.F.F.F.F.F.F.G.F.F.F.F.F.",
"F.F.F.F.F.D.F.F.F.F.F.F.F.F.F.f @ E ] X.#.d.g.g.d.#.X.] ~ E , r y.F.F.F.F.F.F.F.F.F.G.F.F.F.F.F.F.F.F.F.F.F.F.F.G.F.F.G.F.F.G.G.",
"F.F.F.F.F.F.F.F.F.F.F.F.F.F.F.,.O x ! ' { X.o.o.X.[ ] ~ Q b . J F.F.F.F.F.F.F.F.F.F.G.F.G.F.F.F.G.G.F.G.F.F.F.F.F.F.F.F.F.G.F.F.",
"F.D.D.F.D.F.F.F.F.F.F.F.F.F.F.y.t @ M Q ^ ' ] ] ' ^ Q E E ; 5 5.F.G.F.F.F.F.F.F.F.G.G.G.F.F.G.F.F.F.F.F.F.G.F.F.F.F.F.F.F.F.F.F.",
"S.F.D.D.F.F.F.F.F.F.F.F.F.F.F.F.1.- ; M E E E E E E ! R 1 O *.G.F.F.F.F.G.F.G.F.F.G.G.G.F.F.F.F.F.F.F.F.F.F.F.F.F.F.F.F.F.F.F.F.",
"F.D.D.D.D.F.F.F.D.F.F.D.D.D.F.F.F.:.- @ x R ! ! ! E v # O K F.F.F.F.F.F.G.F.G.G.F.G.G.F.F.F.F.F.F.F.F.F.F.F.F.F.F.F.F.F.F.F.F.F.",
"F.D.D.D.F.F.F.F.D.D.D.F.D.F.F.F.F.F.<.r . @ : 1 : @ . 7 :.F.F.F.F.F.F.F.F.G.G.G.F.F.F.F.F.F.F.F.F.F.F.F.F.F.F.F.F.F.F.F.F.F.F.F.",
"F.F.D.D.F.F.F.F.D.D.F.F.F.F.F.F.F.F.F.y.:.s 9 6 8 a &.t.G.G.F.F.F.F.F.F.F.F.G.G.F.F.F.F.F.F.F.F.F.F.F.F.F.F.F.F.F.F.F.F.F.F.F.F.",
"F.F.F.y.D.F.F.F.D.D.D.F.F.F.F.F.F.F.F.F.F.F.y.y.y.F.F.F.F.F.F.F.F.F.D.F.F.F.G.G.F.F.F.F.F.F.F.F.G.F.F.F.F.F.F.G.F.F.F.F.F.F.F.F.",
"F.F.F.F.D.F.F.u.D.F.F.F.D.F.F.F.F.F.F.F.F.F.F.F.F.F.F.F.F.F.F.F.F.F.F.F.F.F.G.G.G.F.G.F.F.F.F.F.F.F.F.G.F.F.F.G.G.F.F.G.F.F.F.F.",
"F.F.F.D.F.F.F.F.F.F.F.F.F.F.F.F.F.F.G.F.F.F.F.F.F.F.F.F.F.F.F.F.F.F.F.F.F.F.G.G.F.F.G.F.F.F.F.F.F.F.F.F.F.F.G.F.G.F.F.F.F.F.F.F.",
"F.F.F.F.F.F.D.D.F.F.F.F.D.F.F.F.F.F.F.F.F.F.F.F.F.F.F.F.F.F.F.F.F.F.F.F.F.F.G.F.F.G.F.F.F.D.F.F.F.F.F.F.F.F.F.F.F.F.F.F.G.F.F.F.",
"F.F.F.F.F.F.F.D.F.F.F.F.F.F.F.F.F.F.F.F.F.F.F.F.F.F.F.F.F.F.D.S.F.F.F.F.D.F.F.F.F.G.F.F.F.F.F.F.G.F.F.F.F.F.F.F.F.F.G.F.F.F.F.F.",
"F.F.F.F.A.S.D.F.F.D.D.D.F.D.F.F.F.F.F.F.F.F.F.F.F.F.F.F.F.F.F.F.F.F.F.A.F.F.F.F.F.F.F.F.F.F.F.F.F.F.F.F.F.F.F.F.F.F.F.F.F.F.F.F.",
"F.F.F.F.D.D.D.F.F.F.F.F.F.F.F.F.F.F.F.F.F.F.F.F.F.F.G.F.G.F.F.F.F.F.F.F.F.F.F.F.F.F.F.F.F.F.F.F.F.F.F.F.G.F.F.F.F.F.F.F.F.F.F.F.",
"F.F.F.F.F.F.F.F.F.F.F.F.F.D.F.F.F.F.F.F.F.F.F.F.F.F.G.F.F.F.F.F.F.F.D.F.F.F.F.F.F.F.F.F.F.F.F.F.F.F.F.F.F.F.F.G.F.F.F.F.F.F.F.F.",
"F.D.F.D.F.D.F.D.F.F.F.F.F.F.F.F.F.F.F.F.F.F.D.F.F.G.F.F.F.F.F.F.F.F.F.F.F.F.F.F.F.F.F.F.F.F.F.F.F.F.F.F.F.F.G.G.G.F.F.F.F.F.F.F.",
"F.D.F.F.F.F.F.D.F.D.F.F.F.F.F.F.F.F.F.F.F.F.D.F.F.F.F.F.F.F.F.F.F.F.F.F.F.F.F.F.F.F.F.F.F.F.F.F.F.F.F.F.F.G.F.F.F.F.F.D.F.F.F.F.",
"F.D.F.F.F.F.F.D.D.F.F.F.F.D.F.F.F.F.F.F.F.F.D.F.G.F.F.G.F.F.F.F.F.F.F.F.F.F.F.F.F.F.F.F.F.F.F.F.F.F.F.F.F.F.F.F.F.F.F.F.F.D.F.F."
};
