/* XPM */
static const char *collectible_1[] = {
/* columns rows colors chars-per-pixel */
"64 64 170 2 ",
"   c #472A13",
".  c #4B2D15",
"X  c #502F14",
"o  c #4E3117",
"O  c #4D331B",
"+  c #533215",
"@  c #593715",
"#  c #5E3A16",
"$  c #52351C",
"%  c #52391F",
"&  c #5B3C1D",
"*  c #623D17",
"=  c #4F3920",
"-  c #523C21",
";  c #674117",
":  c #6B4517",
">  c #63431E",
",  c #684318",
"<  c #734717",
"1  c #734A18",
"2  c #7D5219",
"3  c #554226",
"4  c #584427",
"5  c #564528",
"6  c #584729",
"7  c #5A4B2C",
"8  c #5C512F",
"9  c #5E5431",
"0  c #664620",
"q  c #6C4B22",
"w  c #775625",
"e  c #7B5825",
"r  c #605533",
"t  c #625A35",
"y  c #655E38",
"u  c #765C31",
"i  c #666039",
"p  c #68633C",
"a  c #6A693F",
"s  c #6D6C41",
"d  c #6F7044",
"f  c #717447",
"g  c #757A4A",
"h  c #797F4E",
"j  c #84551A",
"k  c #86591C",
"l  c #8D591A",
"z  c #94631C",
"x  c #9A661D",
"c  c #9E691D",
"v  c #A46B1C",
"b  c #AD741F",
"n  c #B2751E",
"m  c #B47A1F",
"M  c #BB7B1F",
"N  c #896428",
"B  c #926D2C",
"V  c #95712E",
"C  c #99732F",
"Z  c #A97523",
"A  c #B47A21",
"S  c #BC7F20",
"D  c #A17A31",
"F  c #C47D1F",
"G  c #C57F21",
"H  c #7A824F",
"J  c #7B8551",
"K  c #7E8953",
"L  c #BF8222",
"P  c #B7862D",
"I  c #AB8233",
"U  c #B58B36",
"Y  c #B48B37",
"T  c #BB9139",
"R  c #C48421",
"E  c #CC8420",
"W  c #C78C28",
"Q  c #D18721",
"!  c #D48B22",
"~  c #D98F23",
"^  c #DC9224",
"/  c #D59529",
"(  c #DF9A28",
")  c #C69535",
"_  c #C59A3C",
"`  c #CA9F3F",
"'  c #E19725",
"]  c #E59B26",
"[  c #E89E27",
"{  c #E69E29",
"}  c #E89F28",
"|  c #CEA13E",
" . c #D1A33E",
".. c #D9AA3F",
"X. c #E7A02B",
"o. c #EAA42C",
"O. c #EEAB32",
"+. c #F0AF35",
"@. c #F2B137",
"#. c #F4B53A",
"$. c #F7BA3D",
"%. c #F9BC3E",
"&. c #818B57",
"*. c #83935B",
"=. c #87995F",
"-. c #889A5F",
";. c #A28648",
":. c #AAA85D",
">. c #899D61",
",. c #8DA365",
"<. c #8FA868",
"1. c #93A565",
"2. c #93AC6B",
"3. c #94B06C",
"4. c #96B470",
"5. c #99B672",
"6. c #9BBB74",
"7. c #DCAD43",
"8. c #DEB14A",
"9. c #E7B442",
"0. c #EBB945",
"q. c #F9BD40",
"w. c #ECBE50",
"e. c #C4AA64",
"r. c #D9BE72",
"t. c #9FC178",
"y. c #A2C57B",
"u. c #A5CB7E",
"i. c #A8D07F",
"p. c #BDD277",
"a. c #B6D37D",
"s. c #BBD27B",
"d. c #F7C147",
"f. c #FEC547",
"g. c #F4C14B",
"h. c #FFC648",
"j. c #FFC84A",
"k. c #EDC053",
"l. c #E9CF5F",
"z. c #FDCB54",
"x. c #FDCD5B",
"c. c #FFD15D",
"v. c #D3D069",
"b. c #DBD26D",
"n. c #C4D276",
"m. c #EED267",
"M. c #FED264",
"N. c #F6D46C",
"B. c #FED56D",
"V. c #F5D472",
"C. c #FED772",
"Z. c #FFD974",
"A. c #FEDB7B",
"S. c #A6CC81",
"D. c #A9CE82",
"F. c #A7D182",
"G. c #AAD384",
"H. c #ACD485",
"J. c #ACD486",
"K. c #A7D089",
"L. c #ACD489",
"P. c #AED688",
"I. c #B3D380",
"U. c #B0D689",
"Y. c #FEDE84",
"T. c #FFE086",
"R. c #FFE18B",
"E. c #FFE493",
"W. c #FFE696",
"Q. c #FEE79A",
/* pixels */
"G.G.J.G.G.G.G.G.J.G.G.J.J.G.G.G.G.G.G.J.J.J.J.G.J.J.J.J.J.G.J.J.G.J.G.J.J.J.J.J.J.J.J.J.J.J.J.J.J.G.J.J.J.J.J.J.G.J.G.G.G.J.G.G.",
"G.G.G.J.G.G.G.G.J.J.G.J.J.G.G.J.G.G.G.G.J.J.J.J.J.J.J.J.J.G.J.J.J.G.G.J.J.J.J.J.J.J.P.P.P.J.J.J.J.J.J.J.J.G.J.G.J.G.G.G.G.G.G.G.",
"G.G.G.J.J.G.J.G.G.J.J.J.G.G.G.J.G.G.G.J.G.J.J.G.G.G.J.J.J.J.G.J.G.J.J.J.J.J.J.J.J.J.P.P.P.P.P.J.J.J.J.J.G.J.J.G.J.G.G.G.G.G.G.G.",
"G.G.G.J.J.J.J.G.J.J.J.G.J.G.G.J.G.J.J.J.J.J.G.G.J.J.J.J.J.J.J.G.J.J.J.J.J.J.G.J.J.J.J.J.J.J.J.J.J.G.G.P.J.G.J.G.G.G.G.G.J.G.G.G.",
"G.J.J.G.G.G.G.G.J.G.J.J.G.J.G.J.G.G.G.J.G.G.G.G.G.J.J.J.J.J.J.J.J.G.J.G.G.J.J.P.J.J.J.J.P.J.J.G.J.J.J.J.J.J.J.J.G.J.G.G.G.G.G.J.",
"J.J.J.G.G.G.G.G.J.G.J.G.J.J.G.J.G.G.J.J.J.G.J.J.G.J.G.J.J.J.J.J.G.G.G.G.G.J.J.J.J.J.J.J.J.J.J.J.J.G.J.J.G.G.J.G.G.G.G.J.G.G.G.G.",
"G.G.G.J.J.J.J.G.J.J.J.G.J.J.J.J.G.J.J.J.J.J.J.J.J.P.J.G.G.J.J.J.J.J.J.G.J.J.J.G.J.J.J.J.J.P.J.J.G.J.G.G.J.J.J.J.G.G.G.J.G.G.G.G.",
"J.J.J.J.G.J.G.J.J.G.J.G.G.G.G.G.G.G.J.P.J.J.G.G.J.J.J.J.J.J.J.J.J.J.G.G.G.G.G.G.J.J.J.J.J.J.J.G.G.G.G.G.G.J.J.J.G.G.G.G.G.G.G.G.",
"G.G.G.J.J.J.J.G.G.G.J.J.J.J.J.J.G.J.G.J.G.J.G.G.J.J.J.J.G.G.J.G.G.G.G.G.J.G.J.J.G.J.J.J.G.G.G.G.G.J.J.G.J.J.J.J.J.G.G.G.G.G.G.G.",
"G.J.J.J.J.J.J.J.G.J.G.J.J.J.J.J.J.J.J.J.G.G.J.S.u.u.G.J.J.G.G.G.G.J.G.J.J.J.J.J.G.J.J.J.G.J.G.G.G.J.J.G.G.G.G.J.J.J.G.G.J.G.J.G.",
"G.J.G.J.J.J.J.J.G.G.J.J.J.J.J.G.I.p.J.J.S.,.f r 7 7 y &.6.J.G.J.G.G.G.G.J.J.G.J.G.G.G.G.G.G.J.G.G.G.J.G.G.G.G.J.G.G.G.G.G.G.J.G.",
"G.J.J.J.J.J.J.J.J.J.G.J.J.J.J.J.a.v.J.5.p O > N V B e & 5 &.D.J.G.G.G.G.J.J.G.J.G.J.G.G.G.G.J.G.J.G.G.G.G.G.G.J.J.G.G.G.G.G.G.J.",
"J.J.J.J.J.J.P.J.J.G.J.G.J.G.J.G.s.l.1.3 & I 9.h.j.z.z.7.B $ f D.G.G.G.G.J.J.G.G.G.J.G.G.J.G.G.J.G.G.G.F.G.G.G.J.J.J.G.G.G.G.G.G.",
"J.J.J.P.P.U.U.J.J.G.G.G.J.J.G.G.n.V.u > | j.j.h.j.Y.E.A.z.I $ H G.J.J.G.G.G.G.G.G.G.G.G.G.J.J.J.J.J.G.G.G.G.G.J.J.J.G.G.J.J.G.G.",
"J.J.J.P.J.J.J.P.J.G.J.J.J.J.G.G.b.R.e.` j.h.h.h.h.C.Q.Q.T.z.C - 2.J.G.G.G.G.G.J.G.G.G.G.G.G.G.G.G.J.G.G.J.G.J.J.J.G.G.J.G.G.G.G.",
"J.J.P.J.J.J.J.J.J.G.J.G.G.G.G.p.N.W.W.Z.j.f.f.f.f.j.Z.Q.Q.Z.9.> s G.J.G.J.G.G.G.G.G.G.G.G.G.G.G.G.J.G.G.J.J.J.J.J.J.G.G.G.G.G.G.",
"G.G.J.J.J.J.J.P.G.J.J.G.G.J.p.m.R.Q.Q.Q.Y.B.M.x.h.f.j.B.R.Z.j.B 3 y.G.J.J.J.J.G.G.J.G.G.G.G.G.G.G.J.G.J.G.J.G.G.G.G.J.J.G.G.J.G.",
"J.J.J.G.J.J.J.J.J.J.G.J.p.b.A.E.Q.Q.Q.Q.Q.W.A.x.h.h.h.h.j.j.j.P $ 2.G.J.J.G.J.G.G.G.G.G.J.J.J.G.G.J.J.G.G.G.G.G.J.G.G.J.J.G.J.J.",
"G.J.J.J.G.J.J.J.J.J.J.J.s.:.;.r.W.Q.Q.W.Y.x.h.f.h.h.h.h.h.h.j.P O 2.G.G.G.G.G.J.G.G.G.J.J.G.J.G.G.G.G.G.G.G.G.G.G.J.G.J.J.G.G.J.",
"J.J.J.J.J.P.P.J.P.J.J.D.J - > T B.W.Q.Y.z.f.h.h.h.h.h.h.h.h.f.Z O 2.G.G.G.G.G.J.J.J.J.G.J.G.G.G.G.G.G.G.G.G.G.G.J.J.G.G.G.G.G.J.",
"J.J.J.J.J.P.P.P.J.J.G.J O N 9.h.h.Z.W.M.f.h.f.f.f.h.h.h.h.h.O.k 3 6.G.G.G.G.G.G.G.J.J.J.G.G.G.G.G.G.G.G.G.G.G.J.J.G.G.G.J.J.G.J.",
"J.J.J.J.J.P.J.P.J.J.,.O k O.j.f.f.x.R.z.f.f.f.f.f.h.h.f.h.f./ # i G.G.G.G.G.J.J.G.J.J.G.G.J.G.G.J.G.G.G.G.G.G.J.G.J.J.G.G.G.G.J.",
"P.J.J.J.J.J.J.J.J.D.y ; / %.h.h.f.j.Z.j.f.f.f.f.f.f.h.h.h.j.7.q 4 ,.J.G.G.G.G.J.J.G.G.G.G.G.J.J.J.J.J.G.G.G.G.G.G.G.J.G.G.G.J.J.",
"J.J.P.J.G.G.J.J.J.5.O x [ $.h.h.h.h.x.h.f.f.f.f.h.h.h.h.h.Z.A.8.e - *.G.G.G.G.G.G.G.G.G.G.G.G.J.J.J.G.G.G.G.G.J.J.G.G.G.G.G.J.J.",
"J.J.J.G.G.G.J.J.G.-.o A [ @.h.h.h.h.j.f.f.f.f.f.h.h.h.h.f.x.R.T.k.B $ g u.G.G.J.J.G.G.G.G.G.G.J.G.G.G.J.G.G.G.G.G.J.J.G.G.G.G.J.",
"G.J.J.G.J.J.J.J.J.*.+ S ] o.f.h.h.h.f.f.f.f.f.f.h.h.h.h.f.f.x.R.R.x.I & p 6.G.G.G.J.J.J.G.J.G.G.J.J.G.J.J.J.G.J.J.G.J.J.J.G.G.G.",
"G.J.G.J.J.P.J.J.J.=.o n ^ { O.f.h.h.h.f.f.h.f.h.h.h.h.h.f.f.f.x.R.E.M._ 0 7 2.F.G.J.G.J.J.G.G.G.G.G.J.G.J.G.J.J.J.G.J.G.J.G.G.G.",
"J.J.G.J.J.J.J.J.P.2.O c ! ' [ O.q.f.h.f.f.q.@.$.h.h.h.h.f.f.f.f.z.Y.W.Z.7.w 3 =.G.J.J.J.G.y.6.5.y.G.J.J.G.G.G.G.G.J.G.J.J.G.G.G.",
"J.J.G.J.G.J.G.J.J.y.6 1 ! E ] { } o.O.O.o.X.} X.#.f.h.h.h.f.f.f.f.j.Z.W.A.w.B % h S.D.,.s 7 - - 5 p >.u.G.J.J.G.G.G.G.G.J.G.G.G.",
"J.J.J.J.J.J.J.J.G.J.h . b ! E ^ ] { { { ] ' ~ ' } +.f.h.f.f.f.f.f.f.h.B.W.R.x.I & p s % q C Y Y D w $ p 6.G.J.G.G.G.J.G.J.J.G.J.",
"P.P.J.J.P.P.J.J.J.J.t.7 # R ! F E E Q E E E E E ^ { O.d.h.h.f.f.f.f.f.f.M.R.E.M._ 0 > Y 0.j.j.j.z.g.T > 9 6.J.G.J.J.G.G.G.G.G.G.",
"P.P.J.J.J.J.J.J.G.G.J.2.- * m ^ ! E E Q ~ ! L ! E ^ { o.%.h.h.f.f.f.f.h.f.z.Y.W.M.....j.h.h.h.A.E.Y.c. .> y u.G.J.G.G.G.G.G.G.G.",
"P.P.G.J.J.G.J.G.G.J.J.G.,.3 . 2 b R R S x ; X z ! E ! ] X.#.f.h.f.f.f.h.h.f.j.M.z.f.h.h.h.h.h.B.Q.Q.E.c.T $ *.G.G.J.G.G.J.J.G.G.",
"P.P.J.G.G.G.J.J.G.G.G.J.G.5.s = . . + . . 7 9   2 E E Q ] } @.f.h.f.f.f.f.h.h.f.f.h.f.f.h.h.h.h.C.W.Q.A.d.e 9 u.J.J.J.G.J.G.G.J.",
"L.J.J.G.G.G.J.G.J.G.G.G.G.G.G.6.>.J h K <.u.S.g . : S E E ' { O.f.h.h.h.h.h.h.h.h.h.h.h.h.h.h.h.h.x.B.x.j.I % 4.G.G.G.G.G.J.G.J.",
"L.L.G.J.J.G.G.G.J.J.G.J.J.G.G.G.G.J.J.J.J.J.J.G.*.O # b Q E ^ { o.q.h.f.f.h.h.h.f.h.h.h.h.h.h.h.h.h.f.f.j.) + ,.G.G.G.G.J.G.G.G.",
"L.L.L.L.G.G.G.J.G.J.J.G.J.J.G.G.G.G.J.J.J.J.J.J.G.1.5 + x E E ^ { X.$.f.h.h.h.h.h.h.h.h.h.h.h.h.h.h.h.h.h.W o =.G.G.G.G.G.G.G.G.",
"L.L.L.L.G.G.G.J.G.G.G.G.G.J.G.J.G.G.J.J.J.J.J.J.G.J.6.t   j E E ~ ] X.#.f.h.h.h.h.h.h.h.h.h.h.h.h.h.h.h.$.A O ,.G.G.G.G.G.G.J.J.",
"K.P.L.J.G.G.G.G.G.G.G.G.G.J.J.G.G.J.G.J.G.G.J.G.G.J.G.y.d . 1 F E ! ] X.d.h.h.h.h.h.h.h.h.h.h.h.h.h.f.#.] l - 6.G.G.G.G.G.G.G.J.",
"P.P.G.G.L.J.G.J.G.G.G.G.G.J.J.J.J.J.J.J.G.J.J.J.G.J.J.G.D.K O * n M E +.f.h.h.h.h.h.h.h.h.f.f.f.f.q.O.] G * y S.G.G.G.G.G.G.G.G.",
"P.P.G.G.J.J.G.G.G.J.G.G.G.J.G.G.G.G.G.J.J.J.G.G.G.J.G.G.G.G.>.3 + * L %.j.h.h.h.h.h.h.h.h.$.o.o.o.{ ^ E j O >.G.G.G.G.G.G.G.G.G.",
"P.G.G.G.J.J.J.J.G.G.G.G.G.G.G.G.J.G.G.J.G.J.J.J.J.J.G.G.G.J.G.3.- , ( q.j.h.h.h.h.h.h.h.h.d.{ ^ ~ ! F l . d S.G.G.G.G.G.G.G.G.G.",
"P.G.J.G.G.J.J.J.G.G.G.G.J.J.G.G.G.J.G.J.G.J.G.J.J.J.J.J.G.J.J.y.5 k X.%.j.h.h.h.h.h.h.h.h.f.X.E F v < . a y.G.G.G.F.F.G.F.G.F.G.",
"G.G.G.J.J.G.J.J.G.G.G.G.J.G.G.J.G.J.G.J.J.J.G.G.J.J.G.J.J.J.J.6.= x [ @.j.h.h.h.h.h.h.h.h.f.X.c # . - J u.F.G.G.G.G.G.F.F.G.G.G.",
"J.G.G.J.J.J.G.G.G.G.G.J.J.G.G.G.G.G.J.J.J.J.J.J.J.J.G.J.G.G.J.6.O z ] o.d.j.h.h.h.h.h.h.j.#.{ j O H 6.G.G.G.G.G.G.F.F.i.F.G.G.G.",
"G.J.G.J.J.J.G.G.G.G.G.G.G.G.G.G.G.G.J.J.J.G.J.J.G.J.J.J.J.G.G.y.- j ~ ] O.f.j.h.h.h.h.j.q.o.] 1 9 S.G.G.G.G.G.G.G.F.F.F.G.G.F.G.",
"G.G.G.G.J.G.J.G.J.G.G.G.G.G.G.J.G.G.J.J.J.J.J.G.G.J.J.G.G.G.G.u.r , E ~ { o.$.f.h.h.f.$.o.] E @ f G.F.G.G.G.G.G.G.G.G.G.G.G.G.G.",
"J.G.J.G.G.J.G.G.G.G.G.J.G.J.J.J.G.G.G.J.G.G.G.J.G.G.G.G.G.G.J.G.K . b Q ~ ] { o.O.O.o.} ] ~ x O ,.G.G.G.G.F.G.G.G.G.G.G.J.G.G.G.",
"G.J.J.G.G.G.G.G.G.G.J.J.J.G.G.J.G.J.J.G.J.J.J.G.G.G.G.G.G.G.J.J.6.5 ; E E Q ^ ] { { ] ^ Q M # t u.J.G.G.G.G.F.G.G.G.G.F.G.G.F.G.",
"G.G.G.G.G.G.G.G.G.G.J.J.G.G.G.G.G.J.G.G.G.J.J.G.G.J.J.J.G.G.J.G.J.=.O 1 R ! E E E E E E M ; - 2.G.G.G.G.G.F.F.F.G.G.G.G.G.F.G.S.",
"G.G.G.G.G.G.G.G.G.G.G.J.G.G.G.G.G.G.G.G.G.J.J.J.J.J.J.J.G.G.G.G.G.G.K O # v E ! ~ ! R x @ - >.G.G.G.G.G.G.G.F.F.G.G.G.F.G.F.F.F.",
"G.G.G.G.G.J.J.G.J.G.G.J.J.G.G.G.G.G.G.G.G.J.J.G.J.J.J.J.J.G.G.G.G.G.G.>.7 . @ : 1 : @ . t 2.G.G.G.G.G.F.G.G.F.F.G.G.G.G.F.F.F.G.",
"G.G.G.G.G.G.G.J.G.G.G.G.J.G.G.G.G.G.G.G.G.G.J.G.J.J.G.J.G.G.F.J.G.G.J.J.y.=.a 8 7 9 s >.u.G.G.G.G.G.G.G.G.G.F.F.F.G.F.G.F.G.G.G.",
"G.G.G.G.G.J.J.G.G.G.J.G.G.J.G.G.G.J.G.G.G.J.J.J.J.J.J.G.G.F.G.J.G.G.J.G.G.G.G.u.u.u.G.J.G.G.G.G.G.G.J.G.G.G.F.F.F.G.G.F.i.G.G.G.",
"G.G.G.G.G.G.J.G.J.G.G.J.J.J.J.G.J.G.J.G.G.J.J.J.J.J.G.G.G.G.G.G.G.G.G.G.J.G.G.G.G.G.G.G.G.G.G.G.G.G.G.F.G.G.G.F.i.G.G.G.G.G.G.G.",
"G.G.G.G.G.G.G.G.J.G.G.G.G.G.G.G.G.G.G.G.G.G.G.J.J.J.G.G.G.G.G.G.G.G.G.G.G.G.G.J.G.G.G.G.G.G.G.G.G.G.G.G.G.F.F.F.F.G.G.G.G.G.G.G.",
"G.G.G.J.J.J.G.G.G.G.G.G.G.G.G.G.G.G.F.G.G.G.J.J.G.J.G.G.G.G.G.G.G.G.G.G.G.G.J.J.G.G.G.G.G.G.G.G.G.G.G.G.F.G.G.G.F.F.G.G.G.G.G.G.",
"G.G.G.G.G.J.G.G.J.G.G.G.G.G.J.G.G.G.G.G.G.G.J.G.G.G.G.F.G.G.G.G.D.F.F.G.G.J.G.G.G.G.G.G.G.G.G.G.G.G.G.G.F.G.G.G.F.G.G.G.G.G.G.G.",
"G.G.G.G.J.G.J.J.G.G.G.G.G.G.G.G.G.G.G.G.G.G.G.G.G.G.G.G.S.G.G.G.G.G.G.J.G.G.G.G.J.G.G.G.G.G.G.G.G.G.G.G.F.F.G.G.G.F.G.G.G.G.G.G.",
"G.G.G.G.G.G.G.G.J.G.G.G.J.G.G.G.G.G.G.G.G.G.G.G.J.G.G.G.G.G.G.G.G.G.G.G.J.G.G.G.G.J.G.G.G.G.G.G.G.G.G.G.G.G.G.G.G.G.S.G.G.G.G.G.",
"G.G.G.G.G.G.G.G.G.G.G.G.J.G.G.G.G.G.G.G.G.G.G.G.G.J.G.J.G.F.G.G.G.G.G.G.G.J.J.G.J.G.G.G.G.G.G.G.G.F.G.G.G.G.G.G.G.G.G.G.G.G.G.G.",
"G.G.G.G.G.J.J.G.J.J.G.G.G.G.G.G.G.G.G.G.G.G.G.G.G.J.G.J.G.G.G.G.G.G.G.G.J.J.J.G.G.G.G.G.G.G.G.G.G.G.G.G.G.G.G.F.F.G.F.G.F.G.F.G.",
"G.G.G.G.F.G.G.J.J.J.J.J.G.G.G.G.J.G.G.G.G.G.G.G.G.G.G.G.G.G.G.G.G.G.G.G.G.J.G.J.G.F.G.G.G.G.G.F.G.G.F.G.G.G.F.G.F.D.F.G.G.G.F.G.",
"G.G.F.G.G.G.G.G.G.G.G.G.G.G.G.G.G.G.G.G.G.G.G.G.G.G.G.G.G.G.G.G.G.G.G.J.G.J.J.G.G.G.G.G.G.G.G.G.G.G.F.G.G.G.G.G.F.G.G.G.G.G.F.G."
};
