/* XPM */
static const char *collectible_2[] = {
/* columns rows colors chars-per-pixel */
"64 64 165 2 ",
"   c #472A13",
".  c #4B2D15",
"X  c #502F14",
"o  c #4E3117",
"O  c #4D331B",
"+  c #533215",
"@  c #593715",
"#  c #5E3A16",
"$  c #52351C",
"%  c #52391F",
"&  c #5B3C1D",
"*  c #623D17",
"=  c #4F3920",
"-  c #523C21",
";  c #674117",
":  c #6B4517",
">  c #63431E",
",  c #684318",
"<  c #734717",
"1  c #734A18",
"2  c #7D5219",
"3  c #554225",
"4  c #564528",
"5  c #584628",
"6  c #5A4B2C",
"7  c #5C512F",
"8  c #5E5431",
"9  c #664620",
"0  c #6C4B22",
"q  c #775625",
"w  c #7B5825",
"e  c #605533",
"r  c #625A35",
"t  c #655E38",
"y  c #765C31",
"u  c #666039",
"i  c #68633C",
"p  c #6A693F",
"a  c #6D6C41",
"s  c #6F7044",
"d  c #717447",
"f  c #757A4A",
"g  c #797F4E",
"h  c #84551A",
"j  c #86591C",
"k  c #8D591A",
"l  c #94631C",
"z  c #9A661D",
"x  c #9E691D",
"c  c #A46B1C",
"v  c #AD741F",
"b  c #B2751E",
"n  c #B47A1F",
"m  c #BB7B1F",
"M  c #896428",
"N  c #926D2C",
"B  c #95712E",
"V  c #99732F",
"C  c #A97523",
"Z  c #B47A21",
"A  c #BC7F20",
"S  c #A17A31",
"D  c #C47D1F",
"F  c #C57F21",
"G  c #7A824F",
"H  c #7B8551",
"J  c #7E8953",
"K  c #BF8222",
"L  c #B7862D",
"P  c #AB8233",
"I  c #B58B36",
"U  c #B48B37",
"Y  c #BB9139",
"T  c #C48421",
"R  c #CC8420",
"E  c #C78C28",
"W  c #D18721",
"Q  c #D48B22",
"!  c #D98F23",
"~  c #DC9224",
"^  c #D89729",
"/  c #C79A3B",
"(  c #E19725",
")  c #E59B26",
"_  c #E89E27",
"`  c #E69E29",
"'  c #E89F28",
"]  c #CEA13E",
"[  c #D1A33E",
"{  c #D9AA3F",
"}  c #E7A02B",
"|  c #EAA42C",
" . c #EEAB32",
".. c #F0AF35",
"X. c #F2B137",
"o. c #F4B53A",
"O. c #F7BA3D",
"+. c #F9BC3E",
"@. c #818B57",
"#. c #83935B",
"$. c #87995F",
"%. c #889A5F",
"&. c #A28648",
"*. c #AAA85D",
"=. c #899D61",
"-. c #8DA365",
";. c #8FA868",
":. c #93A565",
">. c #93AC6B",
",. c #94B06C",
"<. c #96B470",
"1. c #99B672",
"2. c #9BBB74",
"3. c #DCAD43",
"4. c #DEB14A",
"5. c #E7B442",
"6. c #EBB945",
"7. c #F9BD40",
"8. c #ECBE50",
"9. c #C4AA64",
"0. c #D9BE72",
"q. c #9FC178",
"w. c #A2C57B",
"e. c #A5CB7E",
"r. c #A8D07F",
"t. c #BDD277",
"y. c #B6D37D",
"u. c #BBD27B",
"i. c #FEC547",
"p. c #F6C149",
"a. c #FFC648",
"s. c #FFC84A",
"d. c #EBC859",
"f. c #FDCB54",
"g. c #FDCD5B",
"h. c #FFD15D",
"j. c #D8D16C",
"k. c #C4D276",
"l. c #EED267",
"z. c #FED264",
"x. c #F6D46C",
"c. c #FED56D",
"v. c #F5D472",
"b. c #FED772",
"n. c #FFD974",
"m. c #FEDB7B",
"M. c #A6CC81",
"N. c #A9CE82",
"B. c #A9D282",
"V. c #A8D283",
"C. c #ACD383",
"Z. c #ABD483",
"A. c #A9D384",
"S. c #ACD385",
"D. c #ABD484",
"F. c #ACD485",
"G. c #A7D089",
"H. c #ACD488",
"J. c #B3D380",
"K. c #B0D689",
"L. c #FEDE84",
"P. c #FFE086",
"I. c #FFE18B",
"U. c #FFE594",
"Y. c #FFE699",
/* pixels */
"B.B.B.B.B.B.B.B.B.B.A.A.B.B.A.A.B.B.B.B.B.A.B.B.S.C.D.S.D.A.Z.B.B.A.A.A.B.B.B.A.B.B.B.B.A.A.B.B.B.B.B.B.B.A.A.B.A.B.B.A.A.B.B.B.",
"A.B.B.B.B.B.B.B.A.B.B.B.B.B.B.B.B.B.B.B.A.B.B.B.D.B.D.A.A.A.B.A.A.B.A.A.A.Z.A.B.B.B.B.B.B.B.A.D.A.B.B.B.D.F.D.D.D.A.B.B.A.B.B.A.",
"Z.B.A.B.B.B.B.B.B.B.B.A.A.B.B.B.B.A.B.B.B.B.B.B.Z.F.D.D.A.A.B.A.B.B.B.A.D.A.D.B.B.B.B.B.B.B.A.A.A.A.Z.B.B.Z.F.F.S.D.D.A.B.A.A.B.",
"B.B.Z.A.B.B.B.B.B.B.B.B.B.B.A.B.A.A.A.B.B.B.A.D.A.D.F.A.A.A.B.A.A.B.B.B.D.A.D.A.D.D.B.B.A.B.A.A.A.B.Z.D.A.A.B.S.B.A.B.B.A.B.A.A.",
"B.B.B.B.B.B.B.A.B.B.B.B.A.B.B.B.A.A.A.A.B.B.D.A.A.A.S.C.S.A.B.A.A.B.B.B.B.A.A.D.D.D.A.A.A.A.A.A.B.A.A.D.S.A.A.D.Z.B.A.B.B.A.A.F.",
"B.B.B.B.B.B.B.B.B.B.B.B.B.B.B.B.B.B.A.A.B.B.A.F.A.B.A.A.D.B.B.B.B.A.B.M.B.B.A.A.B.A.Z.B.B.A.B.A.A.B.B.A.A.A.A.A.D.D.A.D.A.B.A.A.",
"B.B.B.B.B.B.B.B.B.A.B.B.B.B.B.B.A.B.A.A.A.B.A.A.A.A.D.A.A.B.B.N.B.B.B.B.B.B.A.A.A.F.B.B.B.B.B.B.S.D.A.A.B.A.A.D.A.A.F.A.B.A.A.A.",
"B.B.B.A.B.B.B.B.B.B.B.B.B.B.B.B.A.A.A.A.B.B.B.A.D.D.A.A.A.B.B.B.B.A.A.B.B.A.F.A.D.F.D.B.B.B.B.A.A.A.A.B.B.Z.B.B.A.A.D.D.F.A.A.B.",
"B.D.A.B.B.B.A.B.B.B.B.B.B.B.A.C.B.A.S.B.A.B.B.A.D.A.A.A.A.A.B.A.B.A.B.A.B.A.F.F.C.A.S.B.A.B.A.A.B.A.B.A.A.B.S.D.S.A.A.A.A.A.A.C.",
"A.B.A.B.B.B.B.r.B.B.B.B.B.B.D.A.Z.B.A.B.A.B.B.A.A.A.A.D.A.B.B.B.A.A.B.B.A.B.F.F.F.D.F.A.A.D.A.D.A.D.D.F.D.A.A.F.S.D.A.S.A.B.B.S.",
"B.B.B.B.B.A.B.B.B.B.B.B.B.D.B.B.B.B.B.A.D.A.e.e.e.B.A.A.S.D.B.A.D.B.B.B.B.D.F.F.D.D.D.B.A.B.D.A.S.A.D.A.B.D.A.S.A.D.D.A.A.A.A.B.",
"A.B.B.B.B.A.B.B.B.B.B.B.B.A.A.B.B.B.A.e.=.a 8 6 7 p #.w.F.F.B.A.D.A.A.A.D.A.F.F.A.D.B.B.A.A.B.B.B.A.A.D.A.A.A.B.D.A.A.A.A.A.A.A.",
"B.B.B.B.B.A.B.B.B.B.B.B.B.B.B.A.B.B.>.r . @ : 1 : @ . 6 =.B.B.A.A.B.A.D.D.F.F.F.Z.D.D.B.B.B.B.A.A.A.A.D.D.A.A.D.A.D.D.Z.A.A.A.A.",
"B.B.B.B.B.A.B.B.B.B.B.B.B.B.B.B.B.=.- @ z T Q Q Q R c # O J B.A.B.A.B.A.F.D.F.F.D.F.F.Z.B.B.B.B.A.B.B.A.D.A.A.A.B.B.A.A.B.A.A.A.",
"N.B.B.B.B.B.B.B.B.B.B.A.B.B.B.B.>.- ; m R R R R R R Q T 1 O $.F.A.D.A.B.F.D.F.A.A.F.F.S.B.A.D.A.A.A.A.A.D.D.A.B.B.B.B.B.A.B.Z.A.",
"B.B.B.B.B.B.B.B.B.B.B.B.B.B.D.e.r # m W ~ ) ) ) ) ~ W R R ; 4 2.D.F.A.B.Z.A.B.B.A.F.F.F.A.D.F.A.D.A.A.D.D.F.A.B.A.B.B.A.B.D.D.A.",
"B.B.A.D.A.B.B.B.B.B.B.B.A.B.B.-.O z Q ) ' |  . .| ` ) ! W v . H B.D.A.A.B.A.B.A.D.A.S.A.F.B.A.B.F.F.D.S.D.A.A.A.A.A.D.A.B.F.A.D.",
"B.B.B.A.B.B.B.B.B.B.B.C.A.B.B.d @ R ) | O.i.a.a.i.O.| ) ! R , e e.A.A.A.A.D.D.A.Z.D.F.D.D.D.A.A.D.Z.A.B.B.B.A.D.S.D.A.F.B.B.S.S.",
"A.B.B.B.B.B.B.B.B.B.B.B.B.B.M.8 1 ) | 7.s.a.a.a.a.s.i. .) Q h - w.S.A.D.F.F.D.A.D.F.S.D.D.F.A.A.A.S.B.A.A.B.B.A.A.A.F.D.D.A.D.A.",
"D.A.B.B.B.B.B.B.A.A.B.B.B.1.G O h ) o.s.a.a.a.a.a.a.s.i.| ) l O 2.D.A.A.D.S.F.D.F.F.D.F.F.D.A.A.B.B.A.D.D.A.B.B.A.Z.F.F.D.A.B.A.",
"B.B.B.B.B.B.B.B.A.A.B.e.H - . # z | i.a.a.a.a.a.a.a.a.s.X._ l = 2.D.F.D.F.A.F.F.S.A.D.F.D.A.F.A.D.A.A.D.A.B.A.A.D.F.S.F.A.A.A.A.",
"B.B.B.B.B.B.B.B.A.B.w.p . < c D R } i.a.a.a.a.a.a.a.a.s.+.| j 4 w.D.D.S.D.D.F.D.F.S.D.A.F.A.D.A.Z.A.D.D.Z.A.A.S.D.F.D.A.A.A.A.H.",
"A.A.A.A.B.B.B.B.B.M.s . k D Q ! ~ ` i.a.a.a.a.a.a.a.a.s.7.^ , - ,.A.D.A.A.B.D.F.F.F.D.S.D.A.S.F.B.A.B.B.B.B.A.S.F.F.D.D.B.A.A.H.",
"A.A.B.A.A.B.B.B.B.=.o h R ~ ` | | | O.a.a.a.a.a.a.a.a.s.+.K * + 3 =.A.A.A.A.F.S.A.S.D.F.D.S.S.S.A.A.D.A.B.A.D.S.S.A.D.D.A.A.H.H.",
"A.B.Z.B.B.B.B.Z.M.t * F )  .7.i.i.i.i.a.a.a.a.a.a.a.a.i...R m b * o J N.A.D.D.A.D.D.F.A.D.D.D.F.D.D.F.A.S.A.A.B.F.A.F.H.A.A.H.H.",
"D.A.A.A.B.B.B.A.1.- k ) O.i.a.a.a.a.a.a.a.a.a.a.a.a.a.i.| ) Q R D 1 . s w.S.D.A.S.D.A.A.D.A.F.B.B.D.D.A.A.B.B.A.A.A.A.A.D.H.H.G.",
"D.D.A.A.A.B.B.B.-.o Z O.a.a.a.a.a.a.a.a.a.a.a.a.a.a.a.i.o.| ) Q R R h   r 1.F.A.F.F.D.D.F.D.A.Z.D.A.D.S.S.A.A.A.D.A.A.A.H.H.H.H.",
"A.A.A.Z.A.B.A.A.$.o E a.a.a.a.a.a.a.a.a.a.a.a.a.a.a.a.a.i.O.| ) ~ R R z + 4 :.A.F.F.D.F.F.F.A.B.B.A.D.D.A.D.D.A.F.A.A.D.H.H.H.H.",
"A.A.A.D.A.Z.A.S.-.+ / s.i.i.a.a.a.a.a.a.a.a.a.i.a.a.a.i.i.a.7.| ) ~ R W v # O #.S.F.D.F.F.D.D.A.A.B.B.D.D.A.F.D.A.Z.A.H.F.A.H.H.",
"F.A.D.A.B.A.A.S.<.% P s.g.c.g.a.a.a.a.a.a.a.a.a.a.a.a.a.a.a.a.i. .) ( R R A : . f M.e.;.J g H =.2.B.A.A.A.A.B.D.S.D.S.S.A.F.D.H.",
"D.A.A.F.B.D.F.F.e.8 w p.m.Y.U.b.a.a.a.a.i.i.a.i.i.a.a.i.i.i.i.a.i.X.' ) W R R 2   8 6 . . + . . = a 1.A.D.A.A.A.F.D.S.S.S.F.H.H.",
"A.A.D.F.Z.B.D.A.A.#.$ Y h.U.Y.Y.c.a.a.a.a.a.i.f.z.s.i.a.a.i.i.i.a.i.o.| ) Q R Q l X , z A T T v 2 . 3 -.B.F.D.A.A.D.H.F.D.S.H.H.",
"A.A.B.A.B.B.A.D.A.e.t > [ h.L.U.m.a.a.a.s.{ { z.U.L.f.i.i.i.i.i.i.a.a.+.| ) ~ R Q K Q ! W R R Q ~ n * - >.D.S.S.F.F.F.F.F.F.H.H.",
"A.B.B.A.A.A.D.F.A.F.2.8 > Y p.f.s.s.s.6.I > 9 / z.U.I.z.i.i.i.i.i.i.a.a.i. .) ~ R R R R R W R R D Q T # 6 q.D.F.D.F.H.H.H.F.H.H.",
"D.A.D.D.A.D.A.A.A.D.A.2.i $ q S I I V 0 % a i & P g.I.U.c.a.i.i.i.i.i.i.a.i...' ( ! ( ) ) ) ) ) ~ R Q v . g F.S.F.F.H.H.F.F.F.F.",
"A.A.A.D.A.B.A.A.A.D.D.A.e.=.i 4 - - 6 a -.N.M.g % N 8.m.U.n.s.i.i.i.i.a.a.a.i.o.| ' | |  . .| ' ) ) R Q 1 5 w.F.F.B.D.A.F.S.F.F.",
"B.B.A.D.F.A.D.B.A.Z.A.A.D.D.A.w.1.1.w.A.D.F.D.A.#.3 w 3.b.U.L.f.i.i.i.i.a.a.a.a.O.X.7.i.i.a.i.7. ._ ( Q x o >.H.F.F.F.F.F.A.F.D.",
"B.B.A.D.A.D.B.D.D.F.A.D.A.D.A.S.A.A.A.F.F.A.D.A.B.>.6 9 / z.U.I.g.i.i.i.a.a.a.a.a.i.a.i.i.a.a.a.i. .) ~ b o #.F.F.D.H.F.D.A.F.S.",
"B.B.B.D.D.D.A.F.F.A.F.D.D.A.D.D.B.A.F.A.F.D.D.A.B.B.2.i & P g.I.I.g.i.i.a.a.a.a.i.i.i.i.i.i.a.a.a.i.| ) A + #.F.F.F.F.H.A.F.F.S.",
"D.F.S.A.A.D.D.A.S.A.A.A.D.A.S.A.D.A.A.B.S.B.B.D.D.A.A.e.f % N d.P.I.g.i.a.a.a.a.i.i.i.i.i.s.a.a.a.a.X._ Z o %.S.F.F.S.A.S.F.F.F.",
"D.F.A.B.B.A.B.F.D.B.B.A.A.S.F.F.D.S.A.B.B.B.B.A.A.A.A.B.B.#.- w 4.m.b.a.a.a.a.a.i.i.i.i.a.g.a.a.a.a.O._ l O 1.F.F.D.F.F.F.H.H.F.",
"F.D.A.B.A.F.S.A.A.B.Z.B.A.D.F.F.D.F.A.A.B.A.A.D.D.A.A.A.A.D.-.5 0 3.s.a.a.a.i.i.i.i.i.i.s.b.s.a.a.a.+.^ ; t N.F.F.F.F.F.F.F.F.H.",
"F.S.Z.A.S.F.F.A.F.B.B.A.A.A.A.D.S.A.D.A.A.F.D.A.D.D.A.A.A.A.B.u # ^ i.a.i.a.a.i.i.i.i.i.f.I.g.i.i.s. .j O -.F.F.H.K.H.F.F.D.H.F.",
"F.Z.D.D.A.A.A.D.D.A.A.A.B.A.B.A.B.A.A.B.D.D.D.A.A.B.A.A.Z.A.2.3 j  .a.a.a.a.a.i.i.i.a.i.z.U.n.a.a.5.M o H A.D.F.H.K.H.F.F.F.F.F.",
"D.B.B.A.S.A.D.C.A.B.B.B.B.B.B.B.B.A.A.F.S.D.F.F.D.B.B.A.B.A.>.O C i.a.a.a.a.a.a.a.a.i.f.L.Y.U.c.Y > - H N.D.F.H.F.H.H.F.F.H.H.F.",
"F.A.A.D.D.Z.D.B.A.B.B.B.B.A.A.B.B.D.S.D.D.A.A.S.D.B.A.A.B.A.>.o L s.a.a.a.a.a.a.i.a.g.L.U.Y.Y.U.0.&.*.u.F.F.F.H.F.F.F.S.F.F.F.S.",
"F.D.A.F.D.A.A.D.A.B.A.A.A.D.D.A.B.D.F.D.B.A.A.S.A.D.A.F.D.A.>.$ L s.s.s.a.a.a.a.g.m.U.Y.Y.Y.Y.Y.U.m.j.t.F.A.F.F.F.F.D.F.S.F.F.F.",
"Z.D.B.B.F.D.B.A.B.A.D.A.D.B.D.A.A.A.A.B.B.B.F.A.A.D.F.F.F.A.w.4 N s.n.I.c.s.i.a.g.z.c.L.Y.Y.Y.I.l.t.S.A.S.F.F.H.H.F.F.D.H.F.S.A.",
"A.A.A.B.A.B.D.D.D.F.F.F.A.B.D.A.A.A.A.A.B.B.B.A.S.B.A.D.A.F.A.a > 5.n.Y.Y.n.s.i.i.i.i.s.b.U.U.x.t.A.A.A.A.F.S.F.H.F.F.F.F.H.F.F.",
"B.B.A.S.D.B.A.D.D.F.A.D.A.Z.F.A.B.S.A.B.B.B.A.B.D.B.B.S.A.A.F.>.- V f.P.Y.Y.b.a.a.a.a.s./ 9.I.j.B.A.D.F.D.D.S.F.H.F.F.F.H.F.F.F.",
"A.B.D.D.A.B.F.F.F.B.B.A.A.A.D.D.D.F.F.A.A.A.B.B.B.B.B.A.A.D.D.A.G $ P f.m.U.L.s.a.s.s.] > y v.k.A.B.D.F.A.A.A.F.F.K.K.H.K.F.F.F.",
"A.B.A.A.A.B.D.F.D.A.B.B.B.B.A.A.D.S.B.D.B.A.D.B.A.A.F.F.A.S.A.S.N.d % N 3.f.f.s.a.5.P & 3 :.d.u.A.D.D.D.A.F.A.F.F.H.F.F.F.F.F.F.",
"D.A.B.B.B.B.Z.D.F.A.B.B.B.A.A.D.A.D.A.A.A.A.D.B.D.A.F.D.A.A.Z.A.F.N.@.4 & w N B M > O i 1.D.j.y.D.F.F.D.D.A.D.D.F.F.F.F.H.F.F.A.",
"A.F.S.B.B.B.A.B.D.B.B.B.A.F.C.B.A.D.A.A.A.S.A.S.F.A.D.D.A.A.A.S.D.A.F.2.@.t 6 6 e d -.M.D.D.t.J.A.F.F.H.D.F.A.S.D.F.F.F.F.A.D.S.",
"A.D.B.D.B.B.D.D.D.A.A.A.Z.F.D.A.B.A.F.A.F.F.F.A.F.F.D.F.F.A.D.A.A.A.A.F.F.A.e.e.M.F.A.S.D.F.F.C.F.F.F.H.D.S.D.A.D.F.F.F.D.D.D.S.",
"A.A.B.B.A.A.A.D.F.F.D.C.A.F.F.A.Z.A.A.A.D.F.F.A.F.F.S.F.A.B.B.B.A.F.A.A.D.F.F.D.A.A.D.A.F.A.D.A.D.D.F.F.D.F.A.A.A.F.F.F.F.A.A.S.",
"A.A.Z.A.A.B.B.A.F.D.F.A.A.A.A.A.S.F.F.F.H.F.F.F.B.A.A.Z.A.A.D.F.F.D.F.D.D.F.F.F.A.A.D.D.H.D.A.A.A.A.A.A.A.D.A.F.D.S.F.A.D.D.D.D.",
"A.B.B.B.D.A.A.A.F.F.F.D.A.A.F.Z.F.F.H.F.H.D.H.F.D.D.D.D.A.D.D.F.F.F.D.A.A.D.H.F.F.D.D.F.D.D.D.B.F.D.D.D.A.F.F.F.A.F.F.F.D.A.A.A.",
"A.A.B.A.D.A.A.A.A.F.S.S.F.F.S.F.F.F.F.F.H.D.F.F.F.F.D.A.A.A.A.S.F.H.F.F.F.S.F.A.D.F.S.D.D.F.A.B.F.A.F.F.A.D.A.F.A.A.S.A.A.D.D.F.",
"D.Z.B.A.B.A.D.B.D.F.F.F.F.F.F.F.S.F.F.H.F.F.F.F.H.D.F.S.A.F.A.D.D.F.F.F.F.F.F.A.B.A.A.A.D.A.B.B.D.A.F.A.D.D.A.F.A.A.A.A.A.D.D.A.",
"B.B.B.D.B.B.B.Z.Z.D.A.F.H.A.S.F.F.F.H.H.F.F.F.F.F.S.F.H.F.H.F.F.A.F.F.F.F.H.F.D.A.B.D.D.D.F.D.A.D.A.A.D.S.D.F.F.A.F.D.D.F.A.A.A.",
"B.B.B.B.B.Z.B.D.B.D.D.A.D.D.F.F.D.H.H.H.H.H.F.F.F.F.F.F.H.F.F.S.D.A.F.F.F.F.S.S.S.D.F.A.D.A.A.A.D.A.S.S.F.D.F.A.Z.D.B.D.D.A.A.A.",
"B.B.B.B.B.B.A.D.A.D.A.D.F.F.D.F.F.F.F.H.H.H.F.F.D.F.F.F.F.S.A.D.D.D.A.F.F.F.F.F.F.F.F.F.A.B.A.A.D.A.S.D.F.S.D.D.A.B.A.A.D.A.A.A.",
"B.A.D.A.B.B.D.A.D.D.D.F.D.F.S.F.F.F.H.F.F.F.F.F.F.F.H.F.F.S.D.A.D.F.S.F.H.F.F.F.S.F.D.D.D.A.Z.A.A.A.A.D.F.S.S.F.A.A.A.A.A.D.A.B."
};
