/* XPM */
static const char *collectible_3[] = {
/* columns rows colors chars-per-pixel */
"64 64 166 2 ",
"   c #472A13",
".  c #4B2D15",
"X  c #502F14",
"o  c #4E3117",
"O  c #4D331B",
"+  c #533215",
"@  c #593715",
"#  c #5E3A16",
"$  c #52351C",
"%  c #52391F",
"&  c #5B3C1D",
"*  c #623D17",
"=  c #4F3920",
"-  c #523C21",
";  c #674117",
":  c #6B4517",
">  c #63431E",
",  c #684318",
"<  c #734717",
"1  c #734A18",
"2  c #7D5219",
"3  c #554225",
"4  c #564528",
"5  c #584628",
"6  c #5A4B2C",
"7  c #5C512F",
"8  c #5E5431",
"9  c #664620",
"0  c #6C4B22",
"q  c #775625",
"w  c #7B5825",
"e  c #605533",
"r  c #625A35",
"t  c #655E38",
"y  c #765C31",
"u  c #666039",
"i  c #68633C",
"p  c #6A693F",
"a  c #6D6C41",
"s  c #6F7044",
"d  c #717447",
"f  c #757A4A",
"g  c #797F4E",
"h  c #84551A",
"j  c #86591C",
"k  c #8D591A",
"l  c #94631C",
"z  c #9A661D",
"x  c #9E691D",
"c  c #A46B1C",
"v  c #AD741F",
"b  c #B2751E",
"n  c #B47A1F",
"m  c #BB7B1F",
"M  c #896428",
"N  c #926D2C",
"B  c #95712E",
"V  c #99732F",
"C  c #A97523",
"Z  c #B47A21",
"A  c #BC7F20",
"S  c #A17A31",
"D  c #C47D1F",
"F  c #C57F21",
"G  c #7A824F",
"H  c #7B8551",
"J  c #7E8953",
"K  c #BF8222",
"L  c #B7862D",
"P  c #AB8233",
"I  c #B58B36",
"U  c #B48B37",
"Y  c #BB9139",
"T  c #C48421",
"R  c #CC8420",
"E  c #C78C28",
"W  c #D18721",
"Q  c #D48B22",
"!  c #D98F23",
"~  c #DC9224",
"^  c #D89729",
"/  c #C79A3B",
"(  c #E19725",
")  c #E59B26",
"_  c #E89E27",
"`  c #E69E29",
"'  c #E89F28",
"]  c #CEA13E",
"[  c #D1A33E",
"{  c #D9AA3F",
"}  c #E7A02B",
"|  c #EAA42C",
" . c #EEAB32",
".. c #F0AF35",
"X. c #F2B137",
"o. c #F4B53A",
"O. c #F7BA3D",
"+. c #F9BC3E",
"@. c #818B57",
"#. c #83935B",
"$. c #87995F",
"%. c #889A5F",
"&. c #A28648",
"*. c #AAA85D",
"=. c #899D61",
"-. c #8DA365",
";. c #8FA868",
":. c #93A565",
">. c #93AC6B",
",. c #94B06C",
"<. c #96B470",
"1. c #99B672",
"2. c #9BBB74",
"3. c #DCAD43",
"4. c #DEB14A",
"5. c #E7B442",
"6. c #EBB945",
"7. c #F9BD40",
"8. c #ECBE50",
"9. c #C4AA64",
"0. c #D9BE72",
"q. c #9FC178",
"w. c #A2C57B",
"e. c #A5CB7E",
"r. c #A8D07F",
"t. c #BDD277",
"y. c #B6D37D",
"u. c #BBD27B",
"i. c #FEC547",
"p. c #F6C149",
"a. c #FFC648",
"s. c #FFC84A",
"d. c #EBC859",
"f. c #FDCB54",
"g. c #FDCD5B",
"h. c #FFD15D",
"j. c #D8D16C",
"k. c #C4D276",
"l. c #EED267",
"z. c #FED264",
"x. c #F6D46C",
"c. c #FED56D",
"v. c #F5D472",
"b. c #FED772",
"n. c #FFD974",
"m. c #FEDB7B",
"M. c #A6CC81",
"N. c #A9CE82",
"B. c #A8D283",
"V. c #A9D383",
"C. c #ACD383",
"Z. c #A9D483",
"A. c #ABD483",
"S. c #A9D184",
"D. c #ACD386",
"F. c #ABD486",
"G. c #ACD485",
"H. c #A7D089",
"J. c #ACD488",
"K. c #B3D380",
"L. c #B0D689",
"P. c #FEDE84",
"I. c #FFE086",
"U. c #FFE18B",
"Y. c #FFE594",
"T. c #FFE699",
/* pixels */
"V.V.V.S.S.V.V.S.V.Z.S.V.V.V.V.V.V.V.S.S.V.V.V.V.S.V.V.V.S.S.S.V.V.Z.S.Z.D.Z.C.D.V.V.S.V.V.V.V.V.S.S.V.V.S.S.V.V.V.V.V.V.V.V.V.V.",
"S.V.V.S.V.V.S.Z.Z.Z.G.Z.V.V.V.S.Z.S.V.V.V.V.V.V.V.S.Z.S.S.S.V.S.S.V.S.S.S.Z.V.Z.V.V.V.S.V.V.V.V.V.V.V.V.V.V.V.S.V.N.N.V.V.V.V.S.",
"V.S.S.V.S.Z.Z.D.G.G.Z.V.V.Z.S.S.S.S.V.V.V.V.V.V.V.Z.S.Z.S.V.V.V.S.V.S.S.Z.Z.G.Z.V.V.V.V.V.V.S.V.V.V.V.S.S.V.V.V.V.V.V.V.V.S.V.Z.",
"S.S.V.S.V.V.S.V.D.C.S.S.Z.Z.V.S.S.S.V.S.V.V.Z.Z.S.Z.S.Z.V.V.V.S.S.V.S.S.S.G.Z.S.Z.S.V.V.V.S.Z.S.V.S.V.V.V.V.V.V.V.V.V.V.S.Z.V.V.",
"Z.S.S.V.V.S.V.Z.Z.S.S.D.Z.S.S.V.S.S.S.S.S.S.Z.Z.Z.S.V.V.V.V.V.S.S.V.S.D.C.D.S.S.S.Z.V.V.S.S.S.S.V.V.V.S.V.V.V.V.S.V.V.V.V.V.V.V.",
"S.Z.V.S.Z.S.Z.Z.S.S.D.S.S.V.V.S.S.V.S.V.V.Z.S.V.S.S.V.V.N.V.S.V.V.V.V.Z.G.S.V.S.G.S.V.V.S.S.V.V.V.V.V.V.V.V.V.V.V.V.V.V.V.V.V.V.",
"S.S.S.V.S.G.S.S.Z.S.S.V.S.S.Z.D.V.V.V.V.V.V.G.S.S.S.V.V.V.V.V.V.N.V.V.S.S.G.S.S.S.S.V.S.S.S.V.S.V.V.V.V.V.V.S.V.V.V.V.V.V.V.V.V.",
"V.S.S.G.Z.Z.S.S.V.V.Z.V.V.S.S.S.S.V.V.V.V.Z.G.Z.S.G.S.V.V.S.S.V.V.V.V.D.S.S.Z.Z.S.V.V.V.S.S.S.S.V.V.V.V.V.V.V.V.N.V.V.V.S.V.V.V.",
"V.S.S.S.S.S.S.G.G.G.V.S.S.V.S.V.S.S.V.S.C.D.S.C.G.G.S.V.S.V.S.V.S.V.S.S.S.S.S.Z.S.V.V.S.V.D.S.V.C.S.V.V.V.V.V.V.V.S.V.V.V.S.Z.V.",
"D.V.V.S.D.S.G.G.G.S.S.Z.G.G.Z.S.Z.S.Z.S.S.G.Z.G.G.G.V.S.V.V.S.S.V.V.V.S.Z.S.S.S.S.V.V.S.V.S.V.Z.S.S.V.V.V.V.V.N.r.V.V.V.V.S.V.S.",
"V.S.S.Z.S.Z.Z.S.D.S.Z.V.D.Z.S.D.S.Z.V.S.C.Z.Z.Z.G.G.Z.V.V.V.V.Z.S.V.Z.D.S.S.V.e.e.e.S.Z.S.V.V.V.V.V.S.V.V.V.V.V.V.V.S.V.V.V.V.V.",
"S.Z.Z.S.S.S.S.Z.V.S.S.S.Z.S.Z.V.V.V.S.S.V.V.Z.S.G.G.S.Z.S.S.S.Z.S.V.G.G.w.$.p 7 6 8 a =.e.S.V.V.V.S.S.V.V.V.V.V.V.V.S.V.V.V.V.S.",
"S.S.S.S.Z.Z.Z.S.Z.S.S.Z.Z.S.S.S.Z.V.V.V.V.Z.Z.Z.G.G.G.Z.Z.S.V.S.S.V.V.=.6 . @ : 1 : @ . 8 >.V.V.S.V.V.V.V.V.V.V.V.V.S.V.V.V.V.V.",
"S.S.Z.V.S.S.V.V.D.S.S.Z.S.V.C.S.V.V.V.V.Z.G.G.Z.G.G.Z.G.S.V.S.V.S.V.J O # c R Q ! W T z @ - =.V.V.V.V.V.V.V.V.V.V.V.S.V.V.V.V.V.",
"S.Z.C.D.V.V.V.V.V.S.G.Z.S.S.S.S.S.Z.S.V.D.G.G.S.S.G.Z.G.V.S.Z.V.G.$.O 1 T W R R R R R R m ; - >.V.V.V.V.S.V.V.V.V.V.V.V.V.V.V.N.",
"S.Z.Z.C.S.V.V.S.V.S.G.Z.G.Z.S.Z.S.G.Z.S.G.G.G.S.V.V.S.Z.V.S.G.Z.2.4 ; R R W ~ ) ) ) ) ~ W m # r e.Z.V.V.V.V.V.V.V.V.V.V.V.V.V.V.",
"Z.D.Z.V.S.Z.D.D.S.S.S.Z.D.G.G.G.V.S.V.G.S.D.S.Z.S.V.S.V.D.S.G.V.H . v W ! ) ` |  . .| ' ) ! z O -.V.V.S.V.V.V.V.V.V.V.S.Z.S.V.V.",
"D.D.V.V.G.S.G.D.Z.S.V.V.V.S.Z.Z.S.S.G.Z.Z.G.Z.Z.S.Z.Z.S.D.S.S.e.e , R ! ) | O.i.a.a.i.O.| ) R @ d V.V.S.C.V.V.V.V.V.V.V.S.V.V.V.",
"S.Z.S.Z.Z.G.S.D.S.V.V.S.S.V.D.S.S.S.G.G.Z.D.G.Z.S.Z.G.G.Z.S.D.w.- h ! )  .i.a.a.a.a.a.a.7.| ) 1 8 N.V.V.V.V.V.V.V.V.V.V.V.V.V.S.",
"Z.V.S.Z.G.G.Z.S.V.V.S.Z.Z.S.Z.V.S.D.G.G.G.Z.G.G.Z.G.D.Z.S.S.Z.2.O l ) | i.a.a.a.a.a.a.a.a.o.) h O G 2.V.V.V.S.S.V.V.V.V.V.V.S.Z.",
"S.S.S.Z.G.D.G.Z.S.S.V.S.Z.S.S.Z.D.G.S.Z.G.Z.D.D.G.G.S.G.Z.G.Z.2.= z _ X.a.a.a.a.a.a.a.a.a.i.| x # . - H e.V.S.S.V.V.V.V.V.V.V.V.",
"J.D.Z.S.S.Z.G.Z.D.S.S.Z.Z.G.S.Z.S.Z.S.G.S.Z.D.G.Z.G.Z.Z.D.Z.Z.w.4 j | +.a.a.a.a.a.a.a.a.a.i.} R D c < . p w.V.S.V.V.V.V.V.V.V.V.",
"J.S.S.V.Z.Z.G.Z.D.S.V.V.V.V.S.S.G.D.S.Z.D.Z.G.G.G.Z.V.S.D.G.S.,.- , ^ 7.a.a.a.a.a.a.a.a.a.i.` ~ ! Q D k . s N.V.V.V.V.V.S.S.Z.S.",
"J.J.S.S.Z.Z.S.D.D.Z.S.V.S.G.S.D.D.D.D.Z.G.Z.D.S.D.G.S.S.D.D.=.3 + * K +.a.a.a.a.a.a.a.a.a.O.| | | ` ~ R h O =.V.V.V.V.S.S.V.S.S.",
"J.J.S.S.J.Z.S.Z.V.S.Z.D.S.G.Z.G.G.Z.G.Z.S.G.Z.Z.S.Z.G.D.N.J O * b m R ..i.a.a.a.a.a.a.a.a.i.i.i.i.7. .) F * t N.Z.V.V.V.V.Z.V.S.",
"H.J.J.Z.S.S.S.S.D.V.V.D.S.Z.Z.V.V.G.D.G.S.S.Z.D.S.Z.D.w.s . 1 D R Q ) | i.a.a.a.a.a.a.a.a.a.a.a.a.a.i.o.) k - 2.S.V.V.V.S.S.S.Z.",
"J.J.J.F.S.S.S.Z.S.S.S.D.D.Z.S.Z.Z.S.Z.G.Z.Z.G.G.S.G.2.r   h R R ! ) | o.i.a.a.a.a.a.a.a.a.a.a.a.a.a.a.a.O.Z O -.V.V.V.S.S.S.Z.Z.",
"J.J.J.J.Z.S.S.G.S.Z.Z.S.Z.Z.S.V.V.S.G.G.G.Z.G.G.S.;.4 + z R R ~ ) | O.i.a.a.a.a.a.a.a.a.a.a.a.a.a.a.a.a.a.E o $.S.S.V.S.Z.S.S.S.",
"J.J.S.G.G.S.Z.S.Z.G.S.Z.Z.V.V.S.S.Z.Z.G.Z.Z.G.D.#.O # v W R ~ ) | 7.a.i.i.a.a.a.i.a.a.a.a.a.a.a.a.a.i.i.a./ + -.D.S.Z.S.Z.S.S.S.",
"J.F.J.S.D.D.Z.D.Z.V.S.S.S.S.V.2.=.H g J ;.e.M.f . : A R R ( )  .i.a.a.a.a.a.a.a.a.a.a.a.a.a.a.a.a.g.c.g.a.P % <.D.S.S.V.S.Z.S.G.",
"J.J.G.D.D.D.Z.G.S.S.S.Z.S.1.a = . . + . . 6 8   2 R R W ) ' X.i.a.i.i.i.i.a.a.i.i.a.i.i.a.a.a.a.b.T.T.m.p.w 8 e.G.G.Z.Z.G.S.S.Z.",
"J.J.D.Z.G.S.Z.S.S.Z.G.V.-.3 . 2 v T T A z , X l W R Q ) | o.i.a.i.i.i.a.a.i.s.z.f.i.a.a.a.a.a.c.T.T.Y.h.Y $ #.S.G.Z.V.Z.G.Z.S.S.",
"J.J.G.G.J.G.G.G.D.D.Z.>.- * n ~ W R R W ! Q K W R ~ ) | +.a.a.i.i.i.i.a.i.f.P.T.z.{ { a.a.a.a.m.Y.P.h.[ > t e.S.Z.S.V.V.S.V.S.S.",
"J.J.G.G.J.J.G.Z.G.G.q.6 # T Q D R R W R R R R R ~ )  .i.a.a.i.i.i.i.i.i.z.U.Y.z./ 9 > U 6.a.a.s.f.p.Y > 8 2.G.S.G.Z.S.S.S.V.V.S.",
"G.G.G.G.G.J.J.G.J.G.g . v Q R ~ ) ) ) ) ) ( ! ( ' ..i.a.i.i.i.i.i.i.a.c.T.I.g.P & i a % 0 V U U S q $ i 2.S.Z.S.S.S.Z.S.Z.Z.S.Z.",
"G.G.D.G.S.Z.S.J.G.w.5 1 W R ) ) ' |  . .| | ' | o.i.a.a.a.i.i.i.i.s.n.T.m.8.N % g M.N.-.a 6 - - 4 i =.e.S.Z.Z.S.D.S.V.S.Z.S.S.S.",
"Z.G.S.G.G.G.G.G.J.>.O x W ( _  .7.i.a.i.i.7.X.O.a.a.a.a.i.i.i.i.f.P.T.n.3.q 3 $.S.Z.G.G.S.w.2.1.w.S.Z.G.S.S.Z.S.V.Z.S.G.Z.S.V.V.",
"D.J.S.Z.G.J.G.G.G.$.o b ~ )  .i.a.a.a.i.i.a.i.a.a.a.a.a.i.i.i.g.I.Y.z./ 9 6 >.V.S.G.D.G.G.S.S.S.D.D.Z.S.Z.D.G.Z.Z.V.Z.S.G.D.V.V.",
"D.G.G.S.Z.G.G.G.G.#.+ A ) | i.a.a.a.i.i.i.i.i.i.a.a.a.a.i.i.g.U.U.g.P & i 2.V.V.S.Z.Z.G.S.G.S.V.Z.Z.D.Z.Z.G.S.G.G.D.Z.Z.Z.V.C.V.",
"G.G.G.D.S.D.G.G.D.%.o Z _ X.a.a.a.a.s.i.i.i.i.i.a.i.a.a.i.g.U.I.d.N $ f w.S.S.Z.Z.V.V.D.V.S.S.Z.S.D.S.Z.S.S.S.D.S.Z.Z.S.S.D.Z.Z.",
"G.G.J.G.D.S.Z.G.G.1.O z _ O.a.a.a.a.g.a.i.i.i.i.a.a.a.a.a.n.m.4.w - #.V.V.S.S.S.S.V.V.V.V.D.D.Z.G.G.D.S.S.V.V.Z.G.V.S.V.V.S.G.Z.",
"J.G.G.J.G.G.G.G.G.N.t ; ! +.a.a.a.s.n.s.i.i.i.i.i.i.a.a.a.s.3.0 5 -.Z.S.S.S.S.Z.Z.S.S.V.S.D.G.Z.G.G.Z.S.V.Z.V.S.S.D.G.S.V.S.G.G.",
"G.G.Z.G.G.J.L.J.G.G.-.O j  .a.i.i.g.I.f.i.i.i.i.i.a.a.i.a.i.^ # u V.S.S.D.S.Z.Z.S.Z.G.D.S.Z.S.D.Z.S.S.S.S.V.V.G.S.G.G.D.S.Z.D.G.",
"G.G.G.G.G.J.L.J.G.Z.S.H O M 5.a.a.n.T.z.i.a.i.i.i.a.a.a.a.a. .j 3 2.S.Z.S.S.V.S.S.Z.G.Z.V.S.S.V.S.V.S.V.S.S.S.Z.Z.D.S.S.Z.Z.Z.G.",
"G.G.G.J.G.J.J.J.J.G.Z.N.H - > Y c.T.T.P.f.i.a.a.a.a.a.a.a.a.i.C O >.S.V.S.V.V.Z.G.G.Z.D.G.S.S.V.V.V.V.V.V.V.V.S.C.Z.S.D.S.V.V.Z.",
"J.J.J.G.D.G.J.J.G.G.G.G.u.*.&.0.T.T.T.T.P.g.a.i.a.a.a.a.a.a.a.L O >.S.V.S.S.V.Z.D.S.D.Z.Z.D.Z.V.V.S.S.V.V.V.V.S.V.Z.Z.Z.Z.S.S.G.",
"G.G.G.D.G.Z.G.G.G.G.S.G.t.j.m.Y.T.T.T.T.T.T.m.g.a.a.a.a.s.s.a.L $ >.S.Z.G.S.Z.S.D.S.S.V.Z.G.Z.V.S.Z.G.S.S.S.S.S.Z.S.S.Z.G.S.Z.G.",
"S.D.G.J.Z.G.G.J.D.G.G.S.S.D.t.l.I.T.T.T.P.c.z.g.a.i.s.c.I.n.a.N 3 w.S.G.G.G.Z.S.S.G.V.V.V.S.S.S.S.Z.V.G.S.Z.S.V.D.V.Z.G.V.V.Z.Z.",
"G.G.J.G.G.G.G.J.G.D.J.S.S.S.S.t.x.T.T.n.s.i.i.a.i.s.n.T.T.n.5.> a S.G.D.Z.D.V.D.S.V.V.V.S.S.S.D.D.G.V.S.G.G.G.Z.Z.Z.V.S.V.S.S.S.",
"J.G.G.J.G.G.G.J.J.D.Z.G.G.Z.S.V.j.U.9./ a.a.a.a.a.n.T.T.I.f.V - >.G.S.S.D.V.V.Z.V.S.V.V.V.S.D.V.S.G.Z.S.Z.S.G.Z.Z.S.V.Z.D.S.V.V.",
"G.G.G.J.J.L.L.J.G.D.S.S.G.Z.V.S.k.v.y > ] a.a.a.s.P.Y.m.f.P $ G S.Z.G.S.S.V.V.V.V.V.S.S.S.G.G.Z.Z.Z.S.S.S.V.V.G.G.G.V.S.Z.G.V.S.",
"G.G.G.G.J.G.J.G.G.G.G.S.Z.S.Z.S.u.d.:.3 & P 6.a.a.f.f.3.N $ d N.D.S.D.S.G.G.S.S.V.Z.S.V.Z.V.D.Z.S.S.V.V.V.V.S.Z.G.Z.V.S.S.S.V.D.",
"S.G.G.J.G.G.G.G.Z.Z.S.Z.Z.G.G.Z.y.j.Z.1.i O > M B N w & 4 @.N.G.S.Z.S.D.Z.G.S.Z.V.Z.S.S.S.S.Z.S.Z.D.S.V.V.V.S.G.Z.Z.V.V.V.V.S.Z.",
"D.Z.S.G.G.G.G.Z.D.S.G.Z.G.Z.G.S.K.t.Z.Z.N.-.d e 6 6 t @.2.G.S.Z.D.S.S.D.Z.Z.S.Z.D.Z.D.S.S.S.Z.S.V.V.Z.S.V.V.V.Z.V.S.V.V.V.D.G.S.",
"D.Z.Z.Z.G.G.G.G.S.Z.D.G.G.G.G.G.C.G.G.Z.D.S.G.N.e.e.D.G.G.J.S.S.S.Z.S.G.Z.Z.Z.G.D.G.G.G.D.G.S.S.S.Z.G.Z.S.S.S.Z.Z.Z.V.V.Z.V.Z.S.",
"D.S.S.G.G.J.G.S.S.S.G.G.G.G.Z.Z.S.Z.S.G.S.Z.S.S.Z.G.G.Z.S.S.G.D.V.V.V.D.G.S.G.G.S.G.G.Z.Z.D.S.Z.S.G.G.S.C.Z.G.G.Z.S.S.S.V.V.S.S.",
"Z.Z.Z.Z.S.G.D.Z.G.Z.Z.S.D.D.D.S.S.S.Z.J.Z.Z.S.S.G.G.G.G.Z.J.G.G.G.Z.S.S.V.S.S.V.G.G.G.J.G.G.G.S.S.S.S.S.S.G.Z.G.S.V.V.S.S.Z.S.S.",
"S.S.D.Z.G.G.G.Z.G.G.G.S.G.G.Z.G.V.Z.Z.Z.G.Z.Z.G.G.J.Z.S.S.G.G.G.G.Z.Z.D.Z.Z.Z.S.G.G.G.J.G.J.G.Z.Z.Z.D.D.Z.G.G.G.S.S.S.Z.V.V.V.S.",
"G.G.Z.S.S.D.S.S.G.D.Z.S.G.G.S.G.V.D.G.Z.Z.D.G.Z.S.G.J.G.G.J.J.G.D.S.S.D.S.Z.G.G.G.G.G.J.G.G.G.G.G.D.G.G.D.D.J.S.S.S.S.G.S.V.S.S.",
"D.G.Z.S.S.S.S.S.G.S.Z.Z.D.G.S.Z.V.V.D.Z.S.S.S.V.S.G.G.G.G.G.G.Z.Z.D.G.S.D.J.Z.J.G.G.G.G.J.J.G.D.G.G.G.G.G.G.G.Z.V.Z.S.V.S.V.Z.Z.",
"S.D.S.G.Z.Z.G.S.G.G.Z.D.Z.S.S.Z.S.Z.G.Z.Z.Z.V.S.Z.G.J.G.G.G.G.S.G.G.G.G.G.G.J.J.J.J.G.G.G.G.J.G.G.D.S.J.G.S.G.Z.Z.V.V.V.Z.V.V.V.",
"D.S.S.Z.Z.Z.Z.Z.S.G.Z.G.D.D.S.Z.S.D.S.Z.D.G.Z.D.D.D.G.G.G.G.S.Z.D.G.G.G.G.G.G.J.G.J.J.J.J.J.J.G.G.G.Z.Z.S.Z.Z.S.Z.V.Z.V.V.V.V.V.",
"S.S.S.Z.Z.D.V.S.G.Z.D.G.F.D.S.Z.S.S.V.S.G.G.G.G.G.G.G.G.G.S.Z.Z.Z.S.D.G.G.G.G.Z.G.G.J.J.J.G.G.G.G.Z.G.G.Z.S.Z.S.Z.G.V.V.V.V.V.V.",
"V.S.Z.S.D.S.S.S.G.D.D.G.Z.D.S.S.S.Z.S.Z.G.G.G.D.G.G.G.J.G.D.G.Z.S.Z.D.G.G.G.G.G.G.G.G.J.G.G.G.G.G.D.G.Z.G.Z.G.G.S.G.V.V.S.Z.S.V."
};
