/* XPM */
static const char *enemy[] = {
/* columns rows colors chars-per-pixel */
"64 64 188 2 ",
"   c #180F1A",
".  c #1C141E",
"X  c #1F1620",
"o  c #201721",
"O  c #231B24",
"+  c #261B29",
"@  c #2A1E2C",
"#  c #2C1F31",
"$  c #272026",
"%  c #282327",
"&  c #2C242C",
"*  c #2E2A2C",
"=  c #31272D",
"-  c #312D2E",
";  c #32312E",
":  c #2F2132",
">  c #312335",
",  c #342C33",
"<  c #35253A",
"1  c #38273E",
"2  c #372839",
"3  c #3A2A3D",
"4  c #363432",
"5  c #393435",
"6  c #373930",
"7  c #3C3C36",
"8  c #3D343A",
"9  c #43353D",
"0  c #43393E",
"q  c #3E4137",
"w  c #3F4138",
"e  c #404237",
"r  c #42453A",
"t  c #454B3B",
"y  c #484E3E",
"u  c #4A513E",
"i  c #3A2740",
"p  c #3E2A43",
"a  c #412D46",
"s  c #442E4A",
"d  c #423244",
"f  c #463B42",
"g  c #483C47",
"h  c #46314B",
"j  c #49334E",
"k  c #473150",
"l  c #4C3353",
"z  c #4F3559",
"x  c #503756",
"c  c #523A56",
"v  c #51375B",
"b  c #54395C",
"n  c #593E5D",
"m  c #563A61",
"M  c #5A3D63",
"N  c #5F3F69",
"B  c #4C4144",
"V  c #4E424C",
"C  c #524648",
"Z  c #524A4D",
"A  c #4D5441",
"S  c #4F5942",
"D  c #525C44",
"F  c #594858",
"G  c #5C5354",
"H  c #61524E",
"J  c #645651",
"K  c #685A56",
"L  c #625A5A",
"P  c #6B5F5A",
"I  c #566247",
"U  c #576448",
"Y  c #596549",
"T  c #5C6A4B",
"R  c #62724F",
"E  c #6D605C",
"W  c #647351",
"Q  c #677954",
"!  c #6B7D56",
"~  c #5E4065",
"^  c #5F4068",
"/  c #604267",
"(  c #64446C",
")  c #684B6B",
"_  c #674672",
"`  c #684771",
"'  c #6B4A73",
"]  c #6E4B78",
"[  c #724E7B",
"{  c #75527A",
"}  c #75517D",
"|  c #6C6463",
" . c #756964",
".. c #7F746F",
"X. c #7F7672",
"o. c #877569",
"O. c #927E6F",
"+. c #867C75",
"@. c #6D8157",
"#. c #6E8258",
"$. c #71865B",
"%. c #73895C",
"&. c #788E5F",
"*. c #79925F",
"=. c #788F61",
"-. c #7B9362",
";. c #7F9965",
":. c #819B66",
">. c #849F69",
",. c #89817B",
"<. c #A38D7B",
"1. c #A8917E",
"2. c #84A167",
"3. c #86A26A",
"4. c #89A56B",
"5. c #8CAA6E",
"6. c #8FAE71",
"7. c #90AF72",
"8. c #8FB172",
"9. c #93B473",
"0. c #97B976",
"q. c #9ABD79",
"w. c #9DC27A",
"e. c #A0C67D",
"r. c #A3CA7F",
"t. c #A8D07F",
"y. c #765181",
"u. c #7B5485",
"i. c #7E5885",
"p. c #7E5689",
"a. c #7F588B",
"s. c #805A86",
"d. c #80578A",
"f. c #845A8D",
"g. c #895E8E",
"h. c #875B91",
"j. c #8A5D93",
"k. c #89628E",
"l. c #8D6196",
"z. c #8F6298",
"x. c #92649A",
"c. c #936899",
"v. c #96699D",
"b. c #9C6DA3",
"n. c #9E70A6",
"m. c #A173A9",
"M. c #908780",
"N. c #948B84",
"B. c #9C938B",
"V. c #A4988C",
"C. c #B49C87",
"Z. c #A79D93",
"A. c #BBA38D",
"S. c #AEA599",
"D. c #B3AA9E",
"F. c #B8AEA2",
"G. c #BCB2A5",
"H. c #C0A78F",
"J. c #C5B9A9",
"K. c #A6CD81",
"L. c #A8CF82",
"P. c #A7D182",
"I. c #A9D384",
"U. c #AAD384",
"Y. c #ABD384",
"T. c #ABD386",
"R. c #ACD385",
"E. c #AAD484",
"W. c #ACD486",
"Q. c #A7D089",
"!. c #ACD489",
"~. c #AED588",
"^. c #B0D689",
"/. c #D3C1AB",
"(. c #CEC3B3",
"). c #D4C8B6",
"_. c #DBD1BF",
"`. c #E6D2BA",
"'. c #DDD3C1",
"]. c #E4D7C2",
"[. c #E8DBC6",
"{. c #F0DBC0",
"}. c #ECE1CD",
"|. c #F4E3CA",
" X c #F6EBD5",
".X c #F8ECD6",
"XX c #F8EDD6",
"oX c #FCF0D9",
/* pixels */
"U.U.E.U.U.U.E.U.E.E.E.W.E.W.R.W.W.W.W.W.W.W.W.W.W.W.W.W.W.R.E.U.E.W.R.W.W.W.W.W.R.W.E.E.E.U.U.U.U.U.U.E.W.R.R.W.U.U.U.U.U.E.U.U.",
"U.U.U.U.U.U.U.E.U.E.U.E.W.W.E.W.W.W.W.~.~.~.W.W.E.W.W.W.W.R.U.E.E.E.U.W.W.W.W.W.W.W.W.W.U.U.U.U.E.U.R.E.W.R.E.E.U.U.U.U.E.U.U.U.",
"U.U.U.U.U.U.U.E.U.E.E.U.E.E.W.W.E.~.~.~.~.~.W.W.W.W.W.W.W.W.W.R.E.U.W.W.W.W.R.R.R.E.W.U.E.U.U.U.E.U.R.R.W.E.W.U.U.E.U.E.E.U.U.R.",
"U.U.U.E.U.U.U.U.U.E.U.W.~.U.R.W.W.W.W.W.W.W.W.W.W.R.W.W.W.W.W.W.U.W.W.W.W.W.W.E.U.U.E.E.E.W.E.U.E.U.U.E.R.E.W.W.U.W.E.E.W.U.U.U.",
"E.U.U.U.U.U.E.U.E.W.W.W.W.W.W.W.R.W.W.~.W.W.W.W.~.E.W.R.U.W.U.E.E.W.W.W.W.r.7.-.! Q @.;.9.L.U.U.E.U.W.U.E.E.U.W.U.U.U.U.U.E.E.U.",
"U.U.U.U.E.U.U.U.U.W.R.R.W.W.R.W.W.W.W.W.W.E.W.W.W.W.E.U.U.U.U.R.W.W.W.q.! r , 3 s j a 2 , y =.e.W.U.W.W.U.E.U.W.U.U.R.U.U.E.E.W.",
"U.U.U.U.E.U.U.U.W.W.W.E.U.U.U.U.E.W.~.W.W.E.W.W.U.E.E.E.U.E.E.W.W.r.! 4 1 M [ } [ } y.u.} c & r 3.E.E.E.U.W.W.W.U.W.W.W.E.U.U.U.",
"U.U.U.U.U.U.U.U.W.E.W.U.U.U.U.U.U.W.W.W.W.W.W.W.U.U.U.U.U.U.E.W.9.y > M [ ` ( ( ` ` ( ( ` g.u.p & #.L.U.U.E.U.W.E.R.W.U.E.E.E.E.",
"U.U.U.U.U.U.U.E.W.W.E.U.U.W.W.U.U.U.U.U.E.W.W.U.W.W.U.W.U.U.U.:.4 a ] ' ` [ p.p.p.p.p.u.] ~ u.l.p o Q U.E.W.U.U.U.W.W.W.W.U.U.R.",
"U.E.U.E.U.U.E.E.E.U.U.U.U.W.E.U.U.U.W.U.W.W.W.U.W.E.E.E.W.U.-.* l } ' [ p.p.p.p.p.p.p.p.p.y.~ l.d.@ + %.E.R.E.U.E.W.W.W.E.E.E.R.",
"U.W.R.U.U.U.U.U.E.U.U.U.U.E.U.U.U.E.U.U.U.R.U.R.E.U.E.E.U.-.& x y.[ u.p.p.p.p.p.p.p.p.p.p.p.[ ` b.c i - 9.W.U.R.E.W.W.W.W.U.E.R.",
"E.U.U.U.U.U.U.E.W.U.U.U.U.U.U.E.U.E.U.U.U.U.E.U.E.U.W.E.:.* x u.u.u.p.[ ( ( ' } u.p.p.p.p.p.p.( v.' h < Y U.E.E.W.W.W.W.W.W.W.U.",
"U.U.U.U.U.U.E.W.E.U.U.U.P.U.U.U.E.R.U.E.U.U.E.U.U.U.W.6.4 l u.p.p.p.p.[ N b l l v ( [ u.p.p.f.` c.i.s l 4 q.U.W.W.~.W.W.W.W.W.W.",
"U.U.E.E.U.U.W.W.W.U.U.U.U.U.E.E.E.W.W.U.U.U.U.U.U.U.q.q a y.p.p.p.p.p.p.p.u.y.' ^ v l b ' p.f.` x.i.s M & 3.U.W.W.^.^.~.~.W.W.W.",
"U.U.U.R.E.U.U.E.E.W.U.E.U.U.W.U.U.R.U.U.5.Q D A D T t : ] p.p.p.y.[ y.u.p.p.p.p.p.u.[ ( ^ u.p.` v.{ h N : -.R.W.~.W.W.W.~.W.W.W.",
"U.U.U.U.U.U.E.E.E.W.W.W.U.U.E.U.U.U.U.! * a c n c d > @ < j ( y.] b l v ^ ' y.u.p.p.p.p.p.p.u.' b./ l M : ;.R.W.W.W.W.W.W.~.W.W.",
"U.E.U.U.W.E.U.U.U.U.E.U.E.U.E.U.U.U.:.& { m.b.b.n.n.b.k.' j > < b [ [ ( b l l M ] u.p.p.p.a.[ u.b.l M m & 3.W.R.~.W.W.E.W.W.R.U.",
"W.E.U.W.E.U.U.E.U.U.U.U.U.E.E.U.U.w.7 ~ m.x.j.j.j.j.z.v.b.m.c.) < > M u.p.y.` m l b ' u.p.p.( x.s.a N l - 0.W.W.W.W.E.W.R.W.W.W.",
"W.U.U.E.E.U.E.U.U.U.U.U.U.U.U.U.U.R p v.x.j.j.j.j.j.j.j.j.j.v.b.v.) < 1 ( p.p.u.y._ ( u.p.[ [ b.b l ^ p y L.W.W.W.W.W.R.W.W.W.R.",
"E.U.U.U.R.U.E.U.U.U.U.U.U.U.U.U.:.= s.b.j.j.j.j.j.j.j.j.j.j.j.j.x.b.c.F : l } p.p.p.p.p.u.( l.d.p M M @ $.E.W.~.W.~.~.W.W.W.W.W.",
"W.U.E.E.U.U.U.E.E.U.U.U.U.U.U.9.6 b v.j.j.j.j.j.j.j.j.j.j.j.j.j.j.j.z.b.s.p < ` p.u.p.p.' { v.x l N s 4 q.E.E.W.~.~.~.W.W.W.W.W.",
"W.R.U.U.R.W.W.U.W.U.U.U.U.U.U.D s f.j.j.h.j.j.j.j.h.h.j.j.j.j.j.j.h.f.j.x.c.n : n u.p.[ ( x.[ a M b @ Q W.W.W.W.~.W.~.W.W.E.W.W.",
"W.E.U.U.U.W.R.U.U.U.U.U.U.E.U.D < y.j.j.u.u.j.j.p.[ h.j.j.j.j.f.' l a M f.j.x.[ < s ^ b u.g.s v M p 6 q.~.W.W.W.W.W.W.W.W.W.W.~.",
"E.W.U.U.U.U.U.W.E.U.U.U.U.R.W.:.O 3 u.j.p.( u.f.( d.j.j.j.j.[ h , > ` } f.j.j.l.d.b l [ j.~ s M v @ %.W.R.W.W.W.W.E.U.R.W.~.W.W.",
"E.U.R.U.U.E.L.6.4.0.U.U.E.U.R.%.8 P j f.h.b ` ( ` j.j.j.p.b 9 o.C.9 [ j.j.j.j.j.j.j.j.j.y.a b M < t e.W.R.W.R.R.W.W.R.U.R.W.W.W.",
"U.U.U.E.E.5.y , 2 4 $.U.E.U.E.U | `.K b h.l ~ l y.j.j.` d P J.|.{.H N j.j.j.j.j.j.j.j.j.b h M l % >.W.W.U.W.W.W.W.W.W.E.U.W.W.R.",
"U.U.U.E.3.5 n y.u./ = 5.U.E.L.t X.oXJ.& l p h p ( [ j O C ].XXXX|.K M j.h.f.j.j.j.j.j.y.p b m > D U.W.W.W.W.W.W.W.E.~.W.E.U.W.R.",
"U.U.U.0.7 ~ j.} ( f.a S q.E.>.O | XXJ.+ 0 : > p : ,  .B & ).XXXX].B ' j.f.[ ` p.j.j.j.n s M l * 7.W.U.E.~.W.W.~.W.W.W.W.W.U.W.E.",
"U.U.U.T h d.u.f.~ l a 3 y e.S > d (.}.M.,.3 M N l 8 ).V.G ].oXXXN.a f.} ~ ] [ ( h.j.p.p b m > 6 ! Q @.4.L.W.W.W.W.U.E.U.W.R.W.W.",
"E.U.q.5 ' f.( ' M a u.] 5 :., ` l V N.,.g ` f.d.u.l Z D.).[.).,.d } f.s . @ ( ` d.j.( a l < : 3 h l s 2 A 9.W.R.W.W.W.W.W.W.W.W.",
"U.U.5.2 [ f.u.l 1 ( [ l r %.2 h.h.[ N N y.j.j.j.j.h.( h V Z g b u.[ a o . p n y.h.j.h l > M u.f.h.h.h.y.j r w.W.E.W.~.~.~.W.~.~.",
"U.U.9., b b _ p + 1 s : #.5.& M p.j.j.j.j.j.j.j.j.j.l.j.p.u.d.y.b 8 E = . n u.h.j.} p l < [ ] ( M b ^ y.f.a T R.W.W.W.W.W.W.~.~.",
"E.U.L.y a p p > s l > A e.U.@.$ < l ( y.d.h.j.j.j.j.h.d.} ( j > B H.<.o o ` j.j.j.M s v # 1 < , 7 r , h p.[ , $.9.E.U.W.~.~.U.U.",
"E.U.U.3., a h v b @ D e.E.U.-.$  .o.0 , 3 p a h h d p < f H O.C 8 /.E . @ u.j.j.j.h v m > q -.9.e.K.5.5 ~ h.b 3 5 ! L.R.U.W.~.U.",
"W.U.E.U.3.y > v M < U 0.3.D % . | {. .K A.O.= o.<.1.J & A.`./.5 . G & . a j.j.j.y.a M v @ -.U.U.U.U.q.r a f.f.f.[ 2 $.R.U.~.~.U.",
"U.U.U.E.U.w.q a ( ( 3 , : 1 < + 8 J.B 0 `.V.. +.|.`.C . ..XXN.. . . . . ~ j.j.l./ a M s - 0.E.U.U.q.r j [ h.h.h.j.' 7 q.~.U.U.U.",
"U.U.U.U.U.U.-.& l ] [ ( m z # a p 0 % X N.| . 8 _.D.+ . & N.8 . . . . @ u.j.j.j.j l m < u U.U.U.U.W h d.j.h.h.h.j.f.p :.~.U.U.U.",
"E.E.U.U.U.U.U.%.* 1 l l p @ O ( b . . . & % . . L Z . . . o . 8 , . . l j.j.j.u.p b v @ $.E.U.U.P.A M ` y.h.h.h.h.d.p -.~.U.U.U.",
"E.U.U.U.U.U.U.U.5.Y 7 7 A T > d./ . + B X . . . . . . & o . . X.V.O @ [ j.j.j.( p m k & 9.U.W.U.U.W 1 p i u.h.h.u.b 5 9.E.U.U.Q.",
"U.U.U.U.U.U.U.U.U.U.e.e.U.2.2 h.( .  .F.+ . f Z . . o B.L . . B.)., b j.j.j.j.j l m 1 t L.E.E.W.E.w.D @ < ( p.( x * %.~.U.U.~.U.",
"U.U.U.U.U.U.U.U.U.U.P.U.U.;.< f.} & J.].8 o S.G.% . 5 '.(., + Z.P s f.j.j.j.} i b v @ ! E.R.R.R.U.U.0., l M j @ r 5.U.E.U.U.U.U.",
"U.U.U.U.U.U.U.U.U.P.L.U.U.:.< d.x.h +.[.G Z }. XL   | XXoXN.+ 0 h u.j.j.j.j.c s m a * 9.E.U.R.W.U.U.U.Q , > w $.w.W.E.E.U.U.U.U.",
"U.U.U.P.U.P.P.U.U.U.U.U.U.4.> y.x.g.d L Z +.}. XF.& Z._.S.L : b d.h.j.j.j.[ 3 v v : I U.W.q.-.3.r.U.E.U.9.5.w.R.E.W.E.U.U.E.U.~.",
"U.U.U.P.P.U.U.U.U.U.P.U.U.q.4 ` j.x.x.` d d Z G G > g f h M y.f.h.h.h.j.d.a l m a * 6.W.q.r < , D w.U.E.U.U.U.U.E.W.R.W.E.U.U.U.",
"E.U.U.P.P.P.U.U.U.U.U.U.U.L.u j h.h.j.v.v.l.s.} { } i.g.j.j.f.f.f.h.h.f.l a b l + D U.W.-.> } } a A e.E.E.U.U.U.U.U.W.W.E.U.U.E.",
"U.U.U.U.P.P.P.U.U.U.U.U.U.U.-.% ` j.h.h.j.j.l.x.x.l.j.h.f.f.f.f.f.h.p.l p b z # O * &.0.D 1 u.f.u.3 Q U.U.U.U.U.U.U.W.E.E.U.E.U.",
"U.U.U.U.U.U.U.U.U.L.5.:.5.e.r.S : ` h.j.h.h.h.h.h.h.h.h.h.f.h.h.f.[ s a b z > + k p % * 3 [ f.f.h.` 4 9.U.U.U.E.R.E.U.W.U.U.R.R.",
"U.U.U.E.U.U.U.U.e.Y , 2 , u 5.0.q + x } f.j.j.j.j.j.j.j.j.h.f.[ c i l b l : % + s ^ ( ( u.f.` } f.f.a W E.U.U.U.U.U.E.U.U.U.U.E.",
"U.P.P.U.P.U.U.U.$.+ n u.} l , ;.9.t o @ a M ` [ y.u.y.[ ` n h i a v v a @ y 4.U @ b p.f.y.b # ' f.h.( w e.W.U.U.U.U.U.U.U.E.E.U.",
"L.U.P.P.U.U.U.U.I # i h } h.M , 3.q.7 X X @ < i p a p p p s l v l p # - ! e.W.L.! , 3 s < 6 + M f.f.} , 9.E.U.U.U.U.U.U.U.U.U.U.",
"U.P.P.P.P.U.U.U.T < v l p ' j.n 7 T & a < o @ # < p a a a a 1 : @ 6 R 9.W.E.W.W.E.9.#.R *.9.7 / f.f.u.2 5.U.U.U.U.U.U.U.U.U.U.U.",
"U.U.U.U.P.U.U.U.3.& l v l p ] f.s O l b > u >.#.D r 7 6 6 q A W :.w.U.E.E.W.W.W.U.E.E.U.U.U.R a u.h.] 5 0.U.U.E.U.E.E.U.U.U.U.U.",
"U.U.P.P.U.U.U.U.r.T : z b l a y.} l u.l 7 q.U.U.U.r.w.e.e.K.L.U.E.U.U.U.E.U.W.W.U.E.U.U.U.U.w.A 3 x < R U.U.U.U.E.U.U.U.U.U.U.U.",
"U.U.U.r.P.U.U.U.P.w.u > z b s s u.d.y.2 -.U.U.E.U.U.U.U.R.E.U.U.E.U.P.U.U.E.W.W.E.E.E.U.U.U.E.w.$.Y %.K.U.E.U.R.U.E.E.U.U.U.U.U.",
"U.U.U.U.U.U.U.t.P.U.0.t > l v a x f.` 7 w.U.U.U.U.U.U.E.U.U.U.U.U.U.U.U.U.U.W.W.W.E.W.U.U.E.U.E.U.E.E.W.E.U.U.W.U.E.R.R.U.U.U.U.",
"U.U.U.U.U.U.U.U.U.U.U.q.A @ s v a ( ( r K.U.U.U.E.U.U.U.U.U.U.U.U.U.U.U.U.U.W.W.U.U.R.U.U.U.U.U.U.U.U.U.U.U.R.E.U.U.U.U.U.U.U.U.",
"U.U.U.U.U.U.P.P.U.U.U.U.e.W & i l b ( 7 0.w.0.9.9.6.4.4.3.>.:.:.:.:.>.3.3.4.5.7.9.0.w.w.r.L.U.U.U.U.U.U.U.U.U.U.U.U.E.E.W.U.U.U.",
"U.U.U.U.U.U.U.P.U.U.U.P.U.9.D o # p 1 + 6 ; * & % $ + + + o o o o o o O + + $ % & * - 6 e u I Q :.e.U.U.U.U.U.E.U.U.W.U.U.U.U.U.",
"U.U.U.U.L.L.P.U.U.U.P.U.r.! r ; % O o o X X X X X X X X X X X X X X X X X X X X X o o + % * 6 t T 0.U.U.U.U.U.U.E.E.U.E.U.U.U.U.",
"U.U.U.U.P.P.P.U.U.U.U.U.U.P.e.q.8.4.;.-.%.#.! Q W W T T T T Y T T T T W Q Q #.%.-.;.3.5.9.q.e.L.U.U.U.E.R.U.U.E.U.U.U.U.U.U.U.U.",
"U.U.U.U.U.P.U.U.U.U.U.U.U.P.U.U.U.U.U.U.U.U.U.U.U.E.W.U.U.U.U.U.U.U.P.U.E.U.E.U.E.E.U.U.U.U.U.U.U.U.U.E.U.U.U.R.U.U.U.U.U.U.U.U.",
"U.U.U.P.U.P.U.P.U.U.U.U.U.U.U.U.U.U.U.U.U.U.U.U.U.W.E.E.U.U.U.U.U.U.U.U.E.U.E.U.U.U.U.U.U.U.U.U.U.U.U.U.U.U.W.W.R.E.E.U.U.U.U.U.",
"U.P.U.U.U.U.U.P.U.P.P.U.U.U.U.U.U.U.U.U.U.U.P.U.E.U.E.U.U.U.U.U.U.U.U.U.U.U.U.U.U.U.U.U.U.U.U.U.U.U.U.U.E.W.E.E.E.U.U.P.U.U.U.U.",
"U.P.U.U.U.U.U.P.U.U.U.P.U.U.U.U.U.U.U.U.U.U.U.U.R.U.E.R.E.U.U.U.U.U.U.U.U.U.U.U.U.U.U.U.U.U.U.U.U.U.U.U.U.U.U.U.U.U.U.U.U.P.U.U."
};
