/* XPM */
static const char *enemy_right[] = {
/* columns rows colors chars-per-pixel */
"64 64 188 2 ",
"   c #180F1A",
".  c #1C141E",
"X  c #1F1620",
"o  c #201721",
"O  c #231B24",
"+  c #261B29",
"@  c #2A1E2C",
"#  c #2C1F31",
"$  c #272026",
"%  c #282327",
"&  c #2C242C",
"*  c #2E2A2C",
"=  c #31272D",
"-  c #312D2E",
";  c #32312E",
":  c #2F2132",
">  c #312335",
",  c #342C33",
"<  c #35253A",
"1  c #38273E",
"2  c #372839",
"3  c #3A2A3D",
"4  c #363432",
"5  c #393435",
"6  c #373930",
"7  c #3C3C36",
"8  c #3D343A",
"9  c #43353D",
"0  c #43393E",
"q  c #3E4137",
"w  c #3F4138",
"e  c #404237",
"r  c #42453A",
"t  c #454B3B",
"y  c #484E3E",
"u  c #4A513E",
"i  c #3A2740",
"p  c #3E2A43",
"a  c #412D46",
"s  c #442E4A",
"d  c #423244",
"f  c #463B42",
"g  c #483C47",
"h  c #46314B",
"j  c #49334E",
"k  c #473150",
"l  c #4C3353",
"z  c #4F3559",
"x  c #503756",
"c  c #523A56",
"v  c #51375B",
"b  c #54395C",
"n  c #593E5D",
"m  c #563A61",
"M  c #5A3D63",
"N  c #5F3F69",
"B  c #4C4144",
"V  c #4E424C",
"C  c #524648",
"Z  c #524A4D",
"A  c #4D5441",
"S  c #4F5942",
"D  c #525C44",
"F  c #594858",
"G  c #5C5354",
"H  c #61524E",
"J  c #645651",
"K  c #685A56",
"L  c #625A5A",
"P  c #6B5F5A",
"I  c #566247",
"U  c #576448",
"Y  c #596549",
"T  c #5C6A4B",
"R  c #62724F",
"E  c #6D605C",
"W  c #647351",
"Q  c #677954",
"!  c #6B7D56",
"~  c #5E4065",
"^  c #5F4068",
"/  c #604267",
"(  c #64446C",
")  c #684B6B",
"_  c #674672",
"`  c #684771",
"'  c #6B4A73",
"]  c #6E4B78",
"[  c #724E7B",
"{  c #75527A",
"}  c #75517D",
"|  c #6C6463",
" . c #756964",
".. c #7F746F",
"X. c #7F7672",
"o. c #877569",
"O. c #927E6F",
"+. c #867C75",
"@. c #6D8157",
"#. c #6E8258",
"$. c #71865B",
"%. c #73895C",
"&. c #788E5F",
"*. c #79925F",
"=. c #788F61",
"-. c #7B9362",
";. c #7F9965",
":. c #819B66",
">. c #849F69",
",. c #89817B",
"<. c #A38D7B",
"1. c #A8917E",
"2. c #84A167",
"3. c #86A26A",
"4. c #89A56B",
"5. c #8CAA6E",
"6. c #8FAE71",
"7. c #90AF72",
"8. c #8FB172",
"9. c #93B473",
"0. c #97B976",
"q. c #99BC77",
"w. c #9ABD79",
"e. c #9DC27A",
"r. c #A0C67D",
"t. c #A3CA7F",
"y. c #A8D07F",
"u. c #765181",
"i. c #7B5485",
"p. c #7E5885",
"a. c #7E5689",
"s. c #7F588B",
"d. c #805A86",
"f. c #80578A",
"g. c #845A8D",
"h. c #895E8E",
"j. c #875B91",
"k. c #8A5D93",
"l. c #89628E",
"z. c #8D6196",
"x. c #8F6298",
"c. c #92649A",
"v. c #936899",
"b. c #96699D",
"n. c #9C6DA3",
"m. c #9E70A6",
"M. c #A173A9",
"N. c #908780",
"B. c #948B84",
"V. c #9C938B",
"C. c #A4988C",
"Z. c #B49C87",
"A. c #A79D93",
"S. c #BBA38D",
"D. c #AEA599",
"F. c #B3AA9E",
"G. c #B8AEA2",
"H. c #BCB2A5",
"J. c #C0A78F",
"K. c #C5B9A9",
"L. c #A6CD81",
"P. c #A8CF82",
"I. c #A7D182",
"U. c #A9D384",
"Y. c #AAD384",
"T. c #ABD384",
"R. c #AAD285",
"E. c #ACD385",
"W. c #ABD485",
"Q. c #ADD586",
"!. c #A7D089",
"~. c #ACD489",
"^. c #AED588",
"/. c #B0D689",
"(. c #D3C1AB",
"). c #CEC3B3",
"_. c #D4C8B6",
"`. c #DBD1BF",
"'. c #E6D2BA",
"]. c #DDD3C1",
"[. c #E4D7C2",
"{. c #E8DBC6",
"}. c #F0DBC0",
"|. c #ECE1CD",
" X c #F4E3CA",
".X c #F6EBD5",
"XX c #F8ECD6",
"oX c #FCF0D9",
/* pixels */
"Y.Y.W.Y.Y.Y.Y.Y.Q.E.E.Q.W.Y.Y.Y.Y.Y.Y.W.W.W.Q.E.Q.Q.Q.Q.Q.E.Q.W.Y.W.E.Q.Q.Q.Q.Q.Q.Q.Q.Q.Q.Q.Q.Q.Q.E.Q.W.Q.W.W.W.Y.W.Y.Y.Y.Y.Y.Y.",
"Y.Y.Y.W.Y.Y.Y.Y.W.W.E.Q.W.E.Y.W.Y.Y.Y.Y.Q.Q.Q.Q.Q.Q.Q.Q.Q.Y.W.W.W.Y.E.Q.Q.Q.Q.W.Q.Q.^.^.^.Q.Q.Q.Q.W.Q.Q.W.Y.W.Y.W.Y.Y.Y.Y.Y.Y.Y.",
"Y.Y.Y.W.W.Y.W.Y.Y.Q.W.Q.E.E.Y.W.Y.Y.Y.W.Y.Q.W.E.E.E.Q.Q.Q.Q.Y.W.E.Q.Q.Q.Q.Q.Q.Q.Q.Q.^.^.^.^.^.W.Q.Q.W.W.Y.W.W.Y.W.Y.Y.Y.Y.Y.Y.Y.",
"Y.Y.Y.Q.W.W.Q.Y.Q.Q.W.E.W.Y.Y.W.Y.W.Q.W.W.W.Y.Y.W.Q.Q.Q.Q.Q.Q.Y.Q.Q.Q.Q.Q.Q.E.Q.Q.Q.Q.Q.Q.Q.Q.Q.Q.E.Y.^.Q.Y.W.Y.Y.Y.Y.Y.W.Y.Y.Y.",
"Y.W.W.Y.Y.Y.Y.Y.Q.Y.W.W.Y.Q.Y.W.Y.Y.L.0.;.@.Q ! -.7.t.Q.Q.Q.Q.W.W.Y.Q.Y.E.Q.W.^.Q.Q.Q.Q.^.Q.Q.E.Q.Q.Q.Q.Q.Q.Q.W.Y.W.Y.Y.Y.Y.Y.W.",
"Q.W.W.Y.Y.E.Y.Y.Q.Y.W.Y.Q.Q.Y.Q.r.=.y , 2 a j s 3 , e ! q.Q.Q.Q.E.Y.Y.Y.Y.W.Q.Q.Q.Q.W.Q.Q.Q.Q.Q.Q.E.Q.Q.E.E.Q.Y.Y.Y.Y.W.Y.Y.Y.Y.",
"Y.Y.Y.W.Q.Q.Q.Y.Q.Q.Q.Y.W.W.W.3.r & c } p.i.} [ } [ M 1 4 ! t.Q.Q.W.W.Y.W.W.W.Y.Q.Q.W.Q.Q.^.Q.W.Y.Y.Y.Y.W.Q.Q.Q.Y.Y.Y.W.Y.Y.Y.Y.",
"W.W.W.W.Y.Q.E.W.Q.Y.W.Y.Y.P.#.% p p.g.' / ( ` ' ( ( ' [ M > t 9.Q.W.Y.Y.Y.Y.Y.Y.Q.Q.Q.Q.Q.Q.Q.Y.Y.Y.Y.Y.Y.Q.W.Q.Y.Y.Y.Y.Y.Y.Y.Y.",
"E.Y.Y.Q.Q.Q.Q.Y.Y.Y.Q.W.Y.Q O p z.p.^ ] p.a.a.a.a.p.[ ` ' ' a 4 :.Y.Y.Y.Q.Y.Q.Q.Y.Q.Q.W.Y.Y.Y.Y.Y.Q.Q.Y.Y.W.Q.Q.W.Y.Y.Y.Y.Y.Y.Y.",
"E.W.W.W.Q.Q.Q.W.Y.W.E.W.$.+ @ d.z.^ i.a.a.a.a.a.a.a.a.a.[ ' } l * -.Y.Q.W.W.W.Q.Y.Q.Q.Q.Y.Q.Y.Y.Y.W.Q.Y.Y.Y.Y.W.W.W.Y.Y.W.Y.W.Y.",
"E.W.Y.Q.Q.Q.Q.W.E.Y.Q.9.- i c n.' [ a.a.a.a.a.a.a.a.a.a.a.i.[ i.x & -.Y.W.W.Y.W.E.Y.E.Y.Y.Y.W.Y.Y.Y.W.Y.Y.Y.Y.W.Y.Y.Y.Y.Y.E.Q.Y.",
"Y.Q.Q.Q.Q.Q.Q.Q.W.W.Y.Y < j ' n.( a.a.a.a.a.a.i.} ' ( / [ a.p.i.p.x * >.W.Q.Y.W.Y.W.Y.Y.Y.Y.W.Y.W.Y.Y.Y.Y.Y.Y.Q.W.Y.Y.Y.Y.Y.Y.W.",
"Q.Q.Q.Q.Q.Q.^.Q.Q.Y.w.4 l s p.x.' f.a.a.i.[ / v l l v M [ a.a.a.a.i.l 4 6.Q.Y.Y.Y.W.Y.Y.W.Y.E.W.Y.Y.Y.I.Y.Y.Y.W.Q.W.Y.Y.Y.Y.Y.Y.",
"Q.Q.Q.^.^././.Q.Q.Y.3.& m s p.c.' f.a.' b l v ^ ' u.i.a.a.a.a.a.a.a.i.a q q.Y.Y.Y.Y.Y.Y.Y.Q.Q.W.W.W.Y.Y.Y.Y.Y.Q.Q.Q.Y.Y.W.W.Y.Y.",
"Q.Q.Q.^.Q.Q.Q.^.Q.E.-.: M j { b.' a.i.^ ( [ i.a.a.a.a.a.i.u.[ i.a.a.a.] : t T D A D Q 5.Y.Y.E.Y.Y.Q.Y.Y.W.Y.Q.W.W.Y.Y.W.E.Y.Y.Y.",
"Q.Q.^.Q.Q.Q.Q.Q.Q.E.;.: M l / n.' i.a.a.a.a.a.a.p.u.' ^ v l b ] i.( j < @ > d c n c a * ! Y.Y.Y.Y.Y.Y.Y.Q.Q.Q.W.W.Y.Y.Y.Y.Y.Y.Y.",
"Y.E.Q.Q.W.Q.Q.^.E.Q.3.& m m l n.i.[ s.a.a.a.i.] M l l b / [ [ b < > j ' l.n.m.m.n.n.M.{ * :.Y.Y.Y.W.Y.W.Y.W.Y.Y.Y.Y.W.Q.Y.Y.W.Y.",
"Q.Q.Q.E.Q.W.Q.Q.Q.Q.0.- l N s d.c.( a.a.p.' b l m ` u.a.i.M > < ) x.M.n.b.c.k.k.j.j.c.M.~ 7 e.Y.Y.W.W.Y.Y.Y.Y.Y.W.Y.Y.W.Q.Y.W.Q.",
"E.Q.Q.Q.E.Q.Q.Q.Q.Q.P.t p ^ l b n.[ [ a.i./ _ u.p.a.a.( 1 < ) b.n.b.k.j.j.k.k.k.k.k.k.c.b.p R Y.Y.Y.Y.Y.Y.Y.Y.Y.Y.W.Y.Y.W.Y.Y.Q.",
"Q.Q.Q.Q.Q.^.^.Q.^.Q.W.$.@ m M p d.z.( p.a.a.a.a.a.} l : F v.n.c.j.j.j.k.j.k.k.k.j.j.k.k.n.d.= >.Y.Y.Y.Y.Y.Y.Y.Y.Y.W.Y.E.Y.Y.Y.W.",
"Q.Q.Q.Q.Q.^.^.^.Q.W.W.q.4 s M l x b.{ ' a.a.p.a.` < p d.n.x.j.j.j.k.k.k.j.k.k.j.j.j.k.k.k.b.c 6 9.Y.Y.Y.Y.Y.Y.W.W.Y.Y.Y.W.W.Y.Q.",
"Q.Q.W.Q.Q.^.Q.^.Q.Q.Q.Q.Q @ b M a [ c./ [ a.i.n : n x.c.j.g.j.j.j.k.k.k.j.j.j.k.j.j.k.j.k.k.g.s D Y.Y.Y.Y.Y.Y.Q.Y.Q.Q.E.Y.Y.E.Q.",
"^.Q.Q.Q.Q.Q.Q.Q.Q.Q.Q.^.w.6 p M v s g.i.v ^ s < { c.k.g.M a l ' g.j.j.j.j.j.[ a.j.j.p.p.k.k.i.< D Y.W.Y.Y.Y.Y.Y.Y.E.Q.Y.Y.Y.W.Q.",
"Q.Q.^.Q.E.Y.W.Q.Q.Q.Q.E.Q.$.@ v M s ^ k.[ l c d.x.j.j.g.[ ' > , h [ j.j.j.j.f./ f.i.( d.k.p.3 O >.Q.E.Y.Y.Y.Y.W.Q.Y.Y.Y.Y.Y.Q.W.",
"Q.Q.Q.E.Y.E.Q.Q.E.E.Q.E.Q.t.t < m b a i.k.j.k.k.j.j.j.j.k.[ 9 Z.o.9 v a.k.j.k.' ( ' v j.g.j P 8 %.E.Y.W.Y.Y.0.4.6.L.W.Y.Y.E.Y.W.",
"E.Q.Q.Y.W.Q.Q.Q.Q.Q.Q.Y.Q.Q.>.% l M j b j.k.j.j.j.j.k.j.k.M H }. XK.P d ' j.k.u.l ^ l j.b K '.| U W.Y.W.Y.$.4 , , y 5.W.W.Y.Y.Y.",
"E.Q.Y.W.Q.^.W.Q.Q.Q.Q.Q.Q.Q.Y.D > m b p i.k.k.k.k.j.g.j.k.M K  XXXXX[.C O j [ ( p h p l * K.oX+.t L.W.Y.5.= / p.i.n 5 3.W.Y.Y.Y.",
"W.Q.Y.Q.Q.Q.Q.Q.^.Q.Q.^.W.Y.Q.7.* l M s n k.k.k.a.` [ f.k.' B [.XXXX_.* B  ., : p > : 0 O K.XX| O >.W.q.S a f.( } j.^ 7 0.Y.Y.Y.",
"Q.Q.E.Q.Y.W.Y.Q.Q.Q.Q.L.4.@.Q ! 6 > m b p a.k.j./ [ ' ^ } g.a B.XXoX[.G C._.8 l M m 3 ,.N.|.).d > S r.y 3 a l ^ g.p.d.j Y Y.Y.Y.",
"Q.Q.Q.Q.Q.Q.Q.Q.E.Q.0.A , s l h 3 : < l a / k.d.` ( @ . s f.} d ,._.{._.F.Z l p.f.f.` g ,.N.V l ` , :.5 ] p.a M ' ( f.' 5 q.Y.W.",
"^.^.Q.Q.^.^.Q.W.Q.e.r j i.j.j.j.g.i.M > l j j.j.u.n a . O a [ i.v g Z V h / j.k.k.k.k.u.M M [ j.j.2 %.e l [ / 1 l p.f.[ , 5.Y.Y.",
"^.^.Q.Q.Q.Q.Q.Q.E.T a f.i.^ b M ( ] [ < l p } k.j.p.n . = E 8 v i.f.p.a.j.z.k.k.k.k.k.k.k.k.k.a.M * 5.#.: s 1 + p _ b b , 9.Y.Y.",
"^.^.E.W.Q.Y.W.9.$., [ a.j , e 7 , < 1 # v s M k.k.k.' o O 1.J.B > j / } d.j.j.k.k.j.j.d.i.( l < $ @.Y.r.A > l s > p p s y L.Y.Y.",
"^.^.Q.E.E.P.! 5 3 c j.^ 5 5.L.r.9.-.q > m v h j.k.k.p.@ . E (.8 C O.H f < p d h h a p 3 , 0 o. .$ -.Y.W.r.D @ b v j s , 3.Y.Y.W.",
"^.W.Q.Y.E.$.2 [ g.g.f.s r q.Y.Y.Y.Y.-.@ v m p i.k.k.j.a . * G . 5 (.'.S.& J 1.<.o.= O.S.K  .}. .. % D 3.0.I < m v > y 3.Y.W.Y.Q.",
"^.^.Y.Q.q.5 ' j.j.j.j.[ j t q.Y.Y.W.0.- s m s / z.k.k.^ . . . . . N.XX... C '. X+.X C.'.0 B K.8 + < 1 : , 3 ( ( s q e.Y.W.Y.Y.Y.",
"~.^.~.~.;.p g.j.j.j.j.j.d.h W Y.Y.Y.Y.u < m l j j.k.k.p.@ . . . . 8 B.* . O F.`.8 . | B.X % 0 p a # z m ( [ ] l * ;.Y.Y.Y.Y.Y.Y.",
"^.^.~.~.-.p f.j.j.j.j.u.' M A I.Y.Y.W.$.@ v b p p.k.k.k.l . . , 8 . O . . . Z L . . % * . . . b ( + @ p l l 1 * %.Y.Y.Y.Y.Y.W.W.",
"!.^.^.W.0.5 v p.j.j.i.p p 1 W Y.Y.Q.Y.9.& k m p ( k.k.k.[ @ O C.X.. . O * . . . . X . X B O . / f.> Y A 5 7 Y 5.Y.Y.Y.Y.Y.Y.Y.W.",
"^.^.Y.Y.~.%.* x ( a.( < @ D e.W.Q.W.W.L.t 1 m l j j.k.k.j.c , _.V.. . L V.O . . Z f . O G. .. ( j., 2.Y.r.t.Y.Y.Y.Y.Y.Y.Y.Y.Y.Y.",
"^.^.Y.Y.W.Y.5.r @ j m l , 0.Y.Y.E.E.E.W.! @ v b p } k.k.j.f.s P A.O , ).].5 . % H.D.O 8 [.K.& } g.< ;.Y.Y.I.Y.Y.Y.Y.Y.Y.Y.Y.Y.Y.",
"^.Y.Y.Y.W.W.Q.e.$.w > , Q Y.Y.Y.Q.E.Y.W.9.* s m s v k.k.j.j.p.h 0 O N.oXXX .  L .X|.Z G {.+.h c.d.< :.Y.Y.P.I.Y.Y.Y.Y.Y.Y.Y.Y.Y.",
"^.Y.W.Y.Y.W.Q.W.E.e.5.9.Y.W.Y.t.3.;.q.Q.Y.I : v v 3 [ k.j.j.j.d.b : L D.`.A.* G..X|.+.Z L d h.c.i.> 4.Y.Y.Y.Y.Y.Y.I.I.Y.I.Y.Y.Y.",
"Y.Y.Y.W.Q.E.Q.W.Y.Y.Y.Y.W.Y.e.D , < e q.Q.6.* s m l a f.j.j.j.j.g.i.M h f g > G G Z d d ' c.c.j.` 4 q.Y.Y.I.Y.Y.Y.Y.Y.I.I.Y.Y.Y.",
"W.Y.Y.W.Q.Q.Y.Y.Y.Y.Y.W.W.r.A s } } > ;.Q.Y.D + l b s l f.j.j.g.g.g.j.j.g.p.} { } d.z.b.b.k.j.j.j u L.Y.Y.Y.Y.Y.I.I.I.y.I.Y.Y.Y.",
"Y.W.Y.W.W.Q.Y.Y.Y.Y.Y.Y.Y.Q 3 p.g.p.1 D 0.&.* + # z b p l a.j.g.g.g.g.g.j.k.z.c.c.z.k.j.j.j.j.' % ;.Y.Y.Y.Y.Y.Y.Y.I.I.I.Y.Y.I.Y.",
"E.E.Y.Y.Q.Y.W.E.W.Y.Y.Y.9.4 ' j.f.g.[ 3 * % p k + > z b s s [ g.g.g.g.j.j.j.j.j.j.j.j.j.j.j.' : S t.t.5.:.5.L.Y.Y.Y.Y.Y.Y.Y.Y.Y.",
"W.Y.Y.Y.Y.W.Y.Y.Y.Y.Y.W.W a f.g.} ' f.i./ ( ^ s + % : l b l p c [ f.j.j.j.j.j.j.j.j.j.g.} x + q 0.5.u , 2 , Y r.Y.Y.Y.Y.W.Y.Y.Y.",
"Y.W.W.Y.Y.Y.Y.Y.Y.Y.Q.t.w / j.g.' # c i.f.a.v @ U 4.y @ a v v s p h n ' [ i.i.i.[ ' M a @ O t 0.;., l } i.n + $.Y.Y.Y.I.Y.Y.I.Y.",
"Y.Y.Y.Y.Y.Y.Y.Y.Y.Y.W.9., } g.f.M O 6 < s 3 , ! L.Q.t.! - # p l v l s p p p a p p < @ X X 7 q.3., M j.} j i # I Y.Y.Y.Y.I.I.Y.P.",
"Y.Y.Y.Y.Y.Y.Y.Y.Y.Y.Y.5., p.g.f./ 7 9.-.R #.0.W.Q.Q.W.Q.0.R 6 @ > 1 a s s a p < # @ o < s & T 7 n j.' p l v < T Y.Y.Y.I.I.I.I.I.",
"Y.Y.Y.Y.Y.W.W.Y.W.Y.Y.0.5 ' j.p.a R Y.Y.Y.W.W.Y.Q.Q.Q.W.W.Y.e.:.W u q 6 6 5 r D #.>.u > b l + s g.' p l v l * 3.Y.Y.Y.Y.I.I.Y.Y.",
"Y.Y.Y.Y.Y.Y.Y.W.Y.Y.Y.Y.R < x 3 A e.Y.Y.Y.Y.W.Y.Q.Q.Y.W.Y.Y.Y.W.Y.L.L.r.r.e.t.Y.Y.Y.q.7 l i.l } i.a l b z : Y t.Y.Y.I.Y.I.Y.Y.Y.",
"Y.Y.Y.Y.Y.W.W.Y.E.Y.W.Y.L.%.Y $.e.W.Y.Y.Y.W.W.W.Q.Q.W.Y.Y.I.Y.W.Y.Y.W.E.Y.Y.Y.Y.W.Y.Y.-., i.d.p.s s b z > u e.I.I.Y.Y.I.y.Y.Y.Y.",
"Y.Y.Y.Y.E.Y.W.E.Q.Y.Y.W.Q.W.W.Y.W.Y.W.Y.Y.Q.W.Q.Q.Q.Y.Y.Y.Y.Y.Y.Y.Y.Y.Y.W.Y.Y.Y.Y.Y.Y.e.7 ' g.x a v l > t 0.Y.I.y.Y.Y.Y.Y.Y.Y.Y.",
"Y.Y.Y.Y.Y.Y.Y.E.W.E.Y.Y.Y.Y.Y.Y.Y.Y.Y.Y.Y.E.Y.Y.Q.Q.Y.Y.Y.Y.Y.Y.Y.Y.Y.Y.Y.Y.Y.W.Y.Y.Y.L.e ( ( s v s @ A q.Y.P.Y.I.Y.Y.Y.Y.Y.Y.Y.",
"Y.Y.Y.Q.W.W.Y.Y.Y.Y.Y.Y.Y.Y.Y.Y.Y.Y.L.t.e.e.0.0.7.5.4.3.3.>.>.>.:.:.>.3.4.4.6.9.9.0.e.0.7 / b l p * W t.I.I.Y.I.I.I.Y.Y.Y.Y.Y.Y.",
"Y.Y.Y.Y.Y.Q.Y.Y.W.Y.Y.Y.Y.Y.r.>.! I u e 6 - * % % $ O O O O O O O O O O O O $ % % * ; 6 O < p # o D 9.Y.I.Y.Y.Y.I.I.Y.Y.Y.Y.Y.Y.",
"Y.Y.Y.Y.W.Y.W.W.Y.Y.Y.Y.Y.Y.0.T t 6 * % O O o . X X X X X X X X X X X X X X X X X X X X o O O % ; r ! t.Y.Y.Y.Y.Y.Y.Y.Y.Y.I.Y.Y.",
"Y.Y.Y.Y.Y.Y.Y.Y.W.Y.Y.E.W.Y.Y.Y.L.r.q.9.5.3.;.*.%.#.! Q W T T Y Y Y Y T T T W W Q ! #.%.-.;.4.8.q.t.I.Y.Y.Y.Y.Y.Y.Y.Y.Y.Y.Y.Y.Y.",
"Y.Y.Y.Y.Y.Y.Y.Y.E.Y.Y.Y.W.Y.Y.Y.Y.Y.Y.Y.Y.Y.W.Y.Y.W.Y.W.Y.I.Y.Y.Y.Y.Y.Y.Y.Q.W.Y.W.Y.Y.Y.Y.Y.Y.Y.Y.Y.Y.Y.Y.Y.Y.Y.Y.Y.Y.Y.Y.Y.Y.Y.",
"Y.Y.Y.Y.Y.W.W.E.Q.Q.Y.Y.Y.Y.Y.Y.Y.Y.Y.Y.Y.Y.Y.Y.Y.W.Y.W.Y.Y.Y.Y.Y.Y.Y.Y.W.W.Q.Y.Y.Y.Y.Y.Y.Y.Y.Y.Y.Y.Y.Y.Y.Y.Y.Y.I.Y.I.I.I.Y.I.Y.",
"Y.Y.Y.Y.I.Y.Y.W.W.W.Q.W.Y.Y.Y.Y.W.Y.Y.Y.Y.Y.Y.Y.Y.Y.Y.Y.Y.Y.Y.Y.Y.Y.Y.Y.Y.W.Y.W.Y.I.Y.Y.Y.Y.Y.I.Y.Y.Y.Y.Y.I.I.Y.I.P.L.Y.Y.Y.Y.Y.",
"Y.Y.I.Y.Y.Y.Y.Y.Y.Y.Y.Y.Y.Y.Y.Y.Y.Y.Y.Y.Y.Y.Y.Y.Y.Y.Y.Y.Y.Y.Y.Y.Y.Y.Y.W.E.W.Y.E.Y.Y.Y.Y.Y.Y.Y.Y.Y.Y.Y.Y.Y.Y.Y.Y.I.Y.I.Y.Y.Y.Y.Y."
};
