/* XPM */
static const char *exit[] = {
/* columns rows colors chars-per-pixel */
"64 64 79 1 ",
"  c #032B07",
". c #072F08",
"X c #0C350A",
"o c #0E390C",
"O c #123D0E",
"+ c #15410F",
"@ c #155D0F",
"# c #164210",
"$ c #184511",
"% c #1C4A13",
"& c #175F10",
"* c #185F10",
"= c #204F15",
"- c #235216",
"; c #275719",
": c #275819",
"> c #2A5B1A",
", c #176010",
"< c #1B6312",
"1 c #1F6814",
"2 c #236B16",
"3 c #2E611D",
"4 c #276F18",
"5 c #31641E",
"6 c #34681F",
"7 c #277018",
"8 c #2E761C",
"9 c #2F781C",
"0 c #327A1E",
"q c #366A20",
"w c #396E22",
"e c #3C7324",
"r c #377F20",
"t c #407725",
"y c #427B27",
"u c #457E28",
"i c #398121",
"p c #438B26",
"a c #478029",
"s c #4A842A",
"d c #468D28",
"f c #4E8A2C",
"g c #518E2E",
"h c #4C942B",
"j c #53902F",
"k c #539B2E",
"l c #579531",
"z c #589731",
"x c #579831",
"c c #5C9C33",
"v c #5EA434",
"b c #61A536",
"n c #64AC37",
"m c #65A738",
"M c #66AC38",
"N c #69AE3A",
"B c #6CB13B",
"V c #6CB33B",
"C c #6EB23C",
"Z c #6FB43D",
"A c #6FB83C",
"S c #70B73D",
"D c #73BB3E",
"F c #73BB3F",
"G c #74BB3F",
"H c #75BD3F",
"J c #76BD40",
"K c #78BE40",
"L c #77C040",
"P c #79C041",
"I c #7CC343",
"U c #7AC442",
"Y c #7CC443",
"T c #7DC643",
"R c #7EC844",
"E c #7FC944",
"W c #81CC45",
"Q c #85D147",
"! c #87D348",
/* pixels */
"HJJJJHJHHHJHJJJJFFGHJHJJJHJJJHJJJJHFHHHHHHGJHFFHHJJJHJGHHHJJHJGH",
"HHHKJHHJHHGJHJHGHGGHKJHHJJJHHHHHJJHHHHHHHGHHFFFHHHHHHJHJHFHJHHHH",
"HHJKJHHJHFFHGFFFHHFGHHHFHHGFFFFHHHHHFGGHHFFFFFGFFGHGHJJHHHGFJHFH",
"HHJKJHHJHFHPPPLJPPPPPPPPPPPPPPPPPPPPPPPPJPPPPPPJJPPPPKFHJJGFGGGJ",
"HJHHJHJFJPFnvbvvbnbvvvvvvbvvvbbvvvbvvvbvvvvvbvvvvvvvnFPJGJFHHFGH",
"JJJHHHGPVp4<***<<<<&<&<&&&&&&,<&&&&&&<&&<&&&&<&&&&&<<7pZPGGGJFFJ",
"JKJHJJPv2@10iiiiiiiiiiiiiiiiiiiiiiiiiiiiiiiiiiiiiiii81@2vPFGHHHH",
"KKHHHPv1<iNKKPPPIIPPPPKPPPPPKPPPPPPPPPKPKPKPPPPPKKPPJMr<1vJFFHHJ",
"JHHHKF7<dIPHJPFFHGGHGGFHFFJUPHPYHFGFFPYJFPJHJFFHFFFFGJJp<7ZHFFHJ",
"HHHHIh@rPGJYCVPFGPPGPJHHGHNggGVzCJFGJjsmPNmHJUYJHPUHJYPP0&hPGHHH",
"FGHJJ8<nPHJt%$gPPm5-wSHHHJ;OOmq.sYPPC$XfV$OsPaqNUcjFZejYv<0HHJHH",
"FHFKV27FHPeoOO:LF;oOXeUGPm$%OzaXeRamm$#maOO6ZOobY;.jj.-HF42VJHFG",
"FHFJn<8HPb+%e$OSco>g%$VHPjO-OucX6FoycO=F>$$:C%$NG%OctXeYG81NPHHH",
"JJFPn<8HYaXeQteYtXj!6ocLPtou$3mO:cO6fX6COq>%C-OccO$m6ocUG81NKGHH",
"JHFPn<8GYeXgLmgmeObYeXzYJ3Om;%N-%wO=5XacXleoVwo%%O>F%%SJH81NKFHH",
"HJGPn<8GPqXcgoXeeovWqocYZ=$6%ObqO$-%$OctXy6ocC-#+%MmXqUHJ81NKFHJ",
"HJGJn<8HYeXfb=+euXtm%#mYb$$O$OgsO+a3+$m:+oOOsQlO;ZUCwcPHJ81NPHHH",
"HHFPn<8FUjo-MgXaco$$O:HUjX6SsXwcXOMt.-c+%ctXwWfo6UJcgJGHJ81NPGJH",
"JFFPn<8HHF-o#OObPqOO%bJUuXfWm;fSqeJm3gcOqQcOwWy eUJ- cPFH81MPHJJ",
"HHHPn<8JGPm3%-lPHJclSPFHZMFFHJPJPPGJUPJNVHFNFPNsmJJgeSHFH81NPHHJ",
"HJHJn<8HHHJPSGPFGHPPHGHHJJFGFFGHFGGFGFGHHHHJJJLYLHFPUJGFH81VPHHH",
"JHFJn<8FFFFHJHHHJHHHHJPJJHHHPPPPHLHJLJFGHHHFHJHFFHHFFGGHH81NPFFH",
"HHFJn<8HHFHHPCNNNNNNNNVNNNNNVNNNNNNNNVJHHHHFHHHHFHHFFFFHH81MJFFJ",
"HHFJn<8HHFFPl$%%%%%%%%%%%%%%%%%%%%%%%#tPFHHHHHHHHHHGFHFHJ81MKFFJ",
"JJHPM<8HJHFUwO$+OooOOOOOOOOOOOOOOOOO++-JJJHHFHHHHFHHHHGHH8<NPFHH",
"HHFPM<8HHFFYeO$>tasuyttyyyyyyyyyyyyu;O;FHJHHPLFHJHHHHHFHH81VPFFF",
"JHGPM<8JHFFYeO$%:elVYWWRUPUYYYYUUUYWeo;FHHHPsjUFHFFHHHFFF81MKFFH",
"JHHPM<8HHHFUeO$OooO$;elNHLJGGFFFFFFPwo;HHHGP:OcUFFFFHFFHF81NJHFH",
"HHGJM<8JJHGYeo-f6=+OOO+%3acFHHHHHFGYwO:GJGFJ3O%mPFFFFFGHF81NPHHH",
"HHHJn<8JJHGUeo;PUSct:$OOOOO:ZHHHFFFPqX-FHHFH>++=VJFHHFFHH81NKHJH",
"HHJPn<8JHHGUeo;FGHPYJmf6%#$OcPFHPPPUmxbPPPPU3O%O:FJFHHHHH81NPHHH",
"KHHPM<8HFFFYeo;FFFGGHLULFa+#vLFHmbbbbmmbbbbb:+$$O6PFFHHHH81NKHHH",
"KHFPn<8HFFGYeo;GHHHHHFFFUcO#cLHm#+##+O+#+##+#$$$$OePFFFHJ81MKHHH",
"HHHPn<8HHHGYeo;GHHHHHHHFLlO#cHHb#$$$$$$$$$$$$$$$$$OyUFFHH81NPHHH",
"HJFJn<8HHGGYeo;FFHHHHFHFPlO#cLHb#$$$$$$$$$$$$$$$$$$OfYGHH81VPHHH",
"HHHKn<8HFFFYeo;FHFHHHHHFPzO#vPJb#$$$$$$$$$$$$$$$$$$$+lLFF81VKFHH",
"HHFKn<8HFFFUeo;FHHHHFGFZPlO#vLLb#$$$$$$$$$$$$$$$$$$%oePFH81NPHHH",
"HHFJn<8HFFGUeo;GHFFHHFJLUlO#vLHb#$$$$$$$$$$$$$$$$$$O:FHHH81VPHHH",
"HHFPn<8JFFFPeo;GHGFFFJbuPlO#vLLb$$$$$$$$$$$$$$$$$$+%VPFHF8<VKFHH",
"HHHPn<8JHFFYeo;FHHFFFYe.ncO#vJLboOOOOOOOOOOO#$$$$#$bPFFFF81MKFHJ",
"FHHPn<8HHFFUeo;GHHHHFPeobcO#cJGSewwweeewwwwe%#$$$OlYFFFFH81MJFHH",
"HHHPn<8HFHGYeo;GHHHHFPeXbcO#vPFHUUPPPPPPUPPR3O$$OsYFHFFFH81MPHFH",
"HJHPn<8HHHGYeo;HHHHHFPtXNcO#vPFFFFFPe%5FFFFJ3O%OeUFFFFHHH81MPHFF",
"HHHPn<8HHFGUeo;GFFFHFHVcUlO#cLFFFFGUqX;HHFFP3+O6LHHHHFHHJ81MJHHH",
"HHHPM<8JHFFUeo;GHFHFFFHPPzO#vLFHFGFPwO:GFFFJ3o:FHGHHHHHHJ81MJHHH",
"FHHPn<8HFGGYeo;GHFHHFFFFPzO#vLFHHHFPwo;FFFFP3$VPGHHGHHHJJ81MKFHF",
"HHHPn<8HHFFPeo;FFHHHFHFFPzO#vLFFFFFPwo;FFFFJmNPGHHHHHFGHJ81MJHHH",
"FHGJn<8HHFFUeo;PPHFFHFFFPzO#vPHJJJHYwo:GFFHFHJJJHHJHHFHJH81MKHHJ",
"HHFKn<8HHFFYeO%ecHYPFAFGUzO+bb:55335=+;FHFJPFHZ8kPFHHHHHH81MPFHH",
"HGFKn<8HFGFUeX+O#;ybHUPFPzO+nl.OooooOo-HPn7kJPi@vYPFFFHFH81MJFHG",
"HGFPn<8HFHFHMe-+OOO#:amHWcO+bb>6555533cPHH8@kV<4FkpHFFHJH81MJGHH",
"HHFPM<8HHFFGJUFzw%OO+O$3lg+#vPJLPPJPJLPHHPM12r<9p@hPFFHHH81MPHHH",
"FFHJV22ZHFFHHFHLPVg3$O++O$$+vLFFFGFFFFFFHFPi<112<iPGGHGHZ22VJHHH",
"FFFFH0<vPFFFHFFFFHUPmu;+O#%+cPHHHFHJHHHFFFJv12222nPGHHFPv,0KJHHG",
"HHFFPh@0HFAAFFHHHHFFHUHce=O#mLFHHHHHGGGFHFFFVVZVVHHHHGKF8&kPGHHH",
"HHFGHF8&iFJFFGHHHHHGGFFPUZjcJGHFFHFHHHFHHFFHJJHKKGHFHIFi@8FHHHHH",
"HHHHHKn2,0vAJKKJKKHJKKHFJJUPJJJJJJJJJJHKKHJJJJJKJJJHFv8<2MJGHHHH",
"HJHHHHPn7@<700000000000000800000000000000000000000004<,9MPHHFFHH",
"HHHHHHHJFh81<<<<<<<<<<<<<<<<<<<<<<<<<<<<<<<<<<<<<<<<20kHPHHFGHGH",
"HHHHHHHFJPHVnnMnnnnnnnnnnnnnnnnnnnnnnnnnnnnnnMMnnnnnVKPHFHGFHHHH",
"HHJHFHFFHFHPPPJHHPJHHKJPJKJJJJPKJKPJKJHJPKPPJPPJJPPKHGFFHHFFFHFF",
"HHHHHHFHHHHFFFFFFFFFFFFFFFFFFFFFFFFFFFAFHGGGFFHFGFFFFFFFFFFFHGHH",
"HHHHHHFHHHHHHHHFFFFFFFFFHHFFFFFFHFFHHHFFHFFGHHJHHFFFFHHFHGHHHHJJ",
"HHHHHHHGHHHHHHHHFGHFFFFFHFFFFFFFHFFJJHHFFFFFHHHGGHHGFHJHHJJJHHJK"
};
