/* XPM */
static const char *player_left[] = {
/* columns rows colors chars-per-pixel */
"64 64 216 2 ",
"   c #1A0F05",
".  c #1D1207",
"X  c #251607",
"o  c #2C1A09",
"O  c #311C06",
"+  c #341E0B",
"@  c #371F10",
"#  c #35210C",
"$  c #3B230A",
"%  c #39250B",
"&  c #3B2312",
"*  c #382512",
"=  c #3C2C11",
"-  c #3D3216",
";  c #3E341B",
":  c #452307",
">  c #442509",
",  c #4B2608",
"<  c #432A0C",
"1  c #4C2C0B",
"2  c #522608",
"3  c #542C0A",
"4  c #5D2D09",
"5  c #53320D",
"6  c #5B330C",
"7  c #5C380E",
"8  c #452B14",
"9  c #443213",
"0  c #4B3212",
"q  c #4A321C",
"w  c #433C1D",
"e  c #5C3A12",
"r  c #573618",
"t  c #622D09",
"y  c #692F09",
"u  c #64350C",
"i  c #6C330B",
"p  c #663C0E",
"a  c #6B390D",
"s  c #73340B",
"d  c #7C350A",
"f  c #733C0D",
"g  c #7C3A0C",
"h  c #643C12",
"j  c #6A3E12",
"k  c #473C21",
"l  c #593923",
"z  c #5D441C",
"x  c #7D410E",
"c  c #6D4312",
"v  c #654218",
"b  c #6E4D1D",
"n  c #744413",
"m  c #794A15",
"M  c #794E19",
"N  c #75521F",
"B  c #464121",
"V  c #4A4523",
"C  c #4C4729",
"Z  c #4D4C29",
"A  c #59492A",
"S  c #52522D",
"D  c #575A33",
"F  c #634D27",
"G  c #7C5826",
"H  c #744C33",
"J  c #6A5031",
"K  c #795832",
"L  c #5A6137",
"P  c #5D6439",
"I  c #60673B",
"U  c #616A3D",
"Y  c #646E40",
"T  c #736C45",
"R  c #667243",
"E  c #6A7847",
"W  c #85370A",
"Q  c #823C0C",
"!  c #8B3C0B",
"~  c #933E0B",
"^  c #86460F",
"/  c #8C440E",
"(  c #94430D",
")  c #9C450D",
"_  c #9A4A0F",
"`  c #854710",
"'  c #824C14",
"]  c #8C4B11",
"[  c #934C10",
"{  c #9B4E11",
"}  c #855014",
"|  c #8D5416",
" . c #86551B",
".. c #88581E",
"X. c #9D5312",
"o. c #9B5C16",
"O. c #965A1A",
"+. c #A0470E",
"@. c #A34A0E",
"#. c #A94E0F",
"$. c #A64E10",
"%. c #A35312",
"&. c #AC5211",
"*. c #AE5A13",
"=. c #A05819",
"-. c #B25511",
";. c #B45B13",
":. c #BB5C13",
">. c #B05E18",
",. c #AB6116",
"<. c #BD6114",
"1. c #B96618",
"2. c #BB6D1A",
"3. c #B9701D",
"4. c #865A27",
"5. c #945E26",
"6. c #8C6227",
"7. c #976425",
"8. c #9C722F",
"9. c #89693A",
"0. c #906132",
"q. c #9E7738",
"w. c #A56A26",
"e. c #B86E22",
"r. c #AD7026",
"t. c #B57325",
"y. c #BC7525",
"u. c #AB7C35",
"i. c #C15F13",
"p. c #C46314",
"a. c #CA6615",
"s. c #CC6916",
"d. c #C16618",
"f. c #C56B1A",
"g. c #CC6D1A",
"h. c #D06F18",
"j. c #C7731C",
"k. c #CC721B",
"l. c #D1721B",
"z. c #D7791C",
"x. c #C26924",
"c. c #C97B27",
"v. c #D57A23",
"b. c #D67B23",
"n. c #8B7248",
"m. c #967A49",
"M. c #837256",
"N. c #927B56",
"B. c #72834E",
"V. c #758651",
"C. c #788C54",
"Z. c #7C9057",
"A. c #7D9359",
"S. c #B98133",
"D. c #C1812F",
"F. c #CC832D",
"G. c #D1862E",
"H. c #DA8329",
"J. c #C98A37",
"K. c #D58A31",
"L. c #DD8D33",
"P. c #C7903D",
"I. c #CC913D",
"U. c #DA933A",
"Y. c #E39639",
"T. c #E59B3D",
"R. c #958B4A",
"E. c #82995D",
"W. c #B18A48",
"Q. c #BB9C4D",
"!. c #A2A15B",
"~. c #B5A557",
"^. c #9D8965",
"/. c #859D61",
"(. c #A08963",
"). c #87A162",
"_. c #8AA565",
"`. c #8EAB69",
"'. c #95A864",
"]. c #91AE6B",
"[. c #93B36E",
"{. c #95B571",
"}. c #99B774",
"|. c #9ABB74",
" X c #B0B769",
".X c #DA9B42",
"XX c #C7965E",
"oX c #E79E41",
"OX c #C7B45E",
"+X c #E8A546",
"@X c #ECA645",
"#X c #EDA847",
"$X c #EEA949",
"%X c #F0AB49",
"&X c #CF9D6A",
"*X c #C6BD66",
"=X c #9EC177",
"-X c #9FC379",
";X c #A2C67B",
":X c #A9C679",
">X c #A3C97E",
",X c #B3C876",
"<X c #CCB387",
"1X c #A6CC81",
"2X c #A9CF82",
"3X c #A7D182",
"4X c #AAD384",
"5X c #AAD385",
"6X c #ACD385",
"7X c #ABD485",
"8X c #ACD485",
"9X c #ACD486",
"0X c #A7D089",
"qX c #ADD588",
"wX c #ACD489",
"eX c #B0D689",
/* pixels */
"4X4X7X4X4X4X4X4X9X6X6X9X7X4X4X4X4X4X4X7X7X7X9X6X9X9X9X9X9X6X9X7X4X7X6X9X9X9X9X9X9X9X9X9X9X9X9X9X9X6X9X7X9X7X7X7X4X7X4X4X4X4X4X4X",
"4X4X4X7X4X4X4X4X7X7X6X9X7X6X4X7X4X4X4X4X9X9X9X9X9X9X9X9X9X4X7X7X7X4X6X9X9X9X9X7X9X9XqXqXeX9X9X9X9X7X9X9X7X4X7X4X7X4X4X4X4X4X4X4X",
"4X4X4X7X7X4X7X4X4X9X7X9X6X6X4X7X4X4X4X7X4X9X7X6X6X6X9X9X9X9X4X7X6X9X9X9X9X9X9X9X9X9XqXqXqXqXqX7X9X9X7X7X4X7X7X4X7X4X4X4X4X4X4X4X",
"4X4X4X9X7X7X9X4X9X9X7X6X7X4X4X7X4X7X9X7X7X7X4X1X>X4X9X9X9X9X9X4X9X9X9X9X9X9X6X9X9X9X2X>X9X9X9X9X9X6X4XqX9X4X7X4X4X4X4X4X7X4X4X4X",
"4X7X7X4X4X4X4X4X9X4X7X7X4X9X4X7X4X4X4X7X4X>XV.C w P {.9X9X9X9X7X7X4X9X4X6X9X7XqX9XE.Z B U {.9X6X9X9X9X9X9X9X9X7X4X7X4X4X4X4X4X7X",
"9X7X7X4X4X6X4X4X9X4X7X4X9X9X4X9X4X4X9X7X|.D < } | 5 B }.9X9X9X9X6X4X4X4X4X7X9X9XE.= p } 6 - E ;X9X6X9X9X6X6X9X4X4X4X4X7X4X4X4X4X",
"4X4X4X7X9X9X9X4X9X9X9X4X7X7X7X9X4X7X>XE.B 5 3.g.<.1.1 S >X7X9X9X9X7X7X4X7X7X7X|.w a :.p.f.| 1 B C.=X4X4X7X9X9X9X4X4X4X7X4X4X4X4X",
"7X7X7X7X4X9X6X7X9X4X7X4X4X4X4X;X_.E V $ < 2.g.f , %.%.$ V.9X7X9X9X7X4X4X4X4X4XI 1 ;./ x p.g.2.m < w R ].1X9X7X9X4X4X4X4X4X4X4X4X",
"6X4X4X9X9X9X9X4X4X4X9X7X9X9X_.V < 6 ^ u O.z./ , 4 u i.f ; |.9X1X>X;X>X1X4X4X`.= [ ;.d 3 <.a.a.k.2.| 5 = S Z.;X9X7X4X4X4X4X4X4X4X",
"6X7X7X7X9X9X9X7X4X7X6X7X9X|.w a ;.p.&.f g.;.3 d ! , %.{ # Z D Z V B B C S U Z 6 <.+.! 1 ;.a.a.a.a.h.k.,.c < B /.7X7X4X4X7X4X4X4X",
"6X7X4X9X9X9X9X7X6X4X9X7X9XZ.1 :.a.a.{ ;.p.g 4 ~ ! , > 1 6 c } O.o.o.o.| m p 1 X.:.~ ! , %.a.a.a.a.a.a.s.l.2.c = _.4X4X4X4X6X9X4X",
"4X9X9X9X9X9X9X9X7X7X4X7X7XR 6 a.a.a.<.a.@., W W 2 1 } 1.k.l.z.z.l.h.g.s.s.s.p.a.-.~ ~ , { s.a.a.a.a.a.a.a.s.k.7 L 4X4X4X4X4X4X7X",
"9X9X9X9X9X9XqX9X9X4X9X4X7XY u a.a.a.a.;.4 t d , n 2.g.s.a.a.s.a.a.a.a.a.a.a.a.a.:.) ~ 3 ` s.a.a.a.a.a.a.a.a.z.n S 4X4X4X4X4X4X4X",
"9X9X9XqXqXeXeX9X9X4X4X4X9XE 6 p.a.a.i.g O , , ] s.a.a.a.a.a.a.a.a.a.a.a.a.a.a.a.a.:.) t a a.a.a.a.a.a.a.a.a.k.5 R 9X4X4X7X7X4X4X",
"9X9X9XqX9X9X9XqX9X6X7X7X9XZ.1 <.a.p.( > - + ] a.a.a.a.a.a.a.a.a.a.a.s.a.a.s.a.a.a.a.-.s 3 p.a.a.a.a.a.a.a.l.O.= `.4X4X7X6X4X4X4X",
"9X9XqX9X9X9X9X9X9X6X9X4X4X].= %.p.( > D w > ` :.a.a.a.a.a.a.a.a.a.;.x u a [ p.a.a.a.p.! > *.a.a.a.a.a.a.s.2.1 Y 4X4X4X4X4X4X4X4X",
"4X6X9X9X7X9X9XqX6X9X9X4X4X1XS 3 f > I R $ u 3 a p.a.a.a.a.a.a.s.&.3 3 a a 5 f <.a.a.a.$., ` s.a.a.a.a.a.j.7 C =X4X4X7X9X4X4X7X4X",
"9X9X9X6X9X7X9X9X9X9X4X7X9X9X].Z B V.=XV ` a.<.x *.a.a.a.a.a.a.p.` %.p.s.s.p.X.X.a.a.a.:.i 6 p.a.a.a.s.f.p w [.4X7X4X4X7X9X4X7X9X",
"6X9X9X9X6X9X9X9X9X9X9X9X6X9X9X1X>X7X{.0 ;.<.:.<.:.a.a.p.a.a.a.p.p.s.p.:.:.a.s.p.a.a.a.p.~ > [ a.a.s.1.7 k ].4X4X4X7X4X7X7X4X4X9X",
"9X9X9X9X9XqXqX9XqX9X7X9X9X9X9X9X6X6X).5 %.h v %.a.a.p.p.a.a.a.a.s.*.j e e n :.s.a.a.a.p.+.i 1 X.,.' < S {.4X4X4X4X7X4X6X4X4X4X7X",
"9X9X9X9X9XqXqXqX9X7X7X9XqX9X9X9X6X6XE.6 n n.A 6 p.a.p.p.a.a.a.a.;.v K F F K c p.a.a.a.a.#.( t # = k B.;X4X4X4X7X7X4X4X4X7X7X4X9X",
"9X9X7X9X9XqX9XqX9X9X9X9X9X9X7X6X6X9X/.3 K N.M.> :.a.p.p.a.a.a.a.' 9.n.C   A 9.[ s.a.a.a.#.) g = E.;X4X4X4X4X4X9X4X9X9X6X4X4X6X9X",
"qX9X9X9X9X9X9X9X9X9X9XqX9X7X6X7X6X6X/.1 9.A ; > <.a.a.a.a.a.a.<.4.m.M.J   # m.' a.a.a.p.+.) s w ;X9X7X4X4X4X4X4X4X6X9X4X4X4X7X9X",
"9X9XqX9X6X4X7X9X9X9X9X6X9X7X9X9X6X7XZ.6 m.A X a a.a.a.a.a.a.a.;.W.(.X . . # ^.4.a.a.a.:.) ) s k >X9X6X4X4X4X4X7X9X4X4X4X4X4X9X7X",
"9X9X9X6X4X6X9X9X6X6X9X6X9X7X9X7X4X4XU u b l c j.b.b.l.s.a.a.a.<.XX<X- X o k ^.=.s.a.a.:.) ) g w -X6X4X7X4X4X4X6X4X7X7X4X4X6X9X7X",
"6X9X9X4X7X9X9X9X9X9X9X4X9X9X9X=XV.Z = 6 ' 3.H.H.b.l.l.s.a.a.a.a.x.&XN.k q T 5.p.a.a.a.:.) ) / - |.7X4X7X7X9X4X9X9X4X7X7X7X4X4X4X",
"6X9X4X7X9XqX7X9X9X9X9X9X9X9X/.B # & 8 0 5 j o.p.a.a.a.a.a.a.a.a.p.<.r.0.4.O.p.a.a.a.a.p.) ) { = ].4X7X4X7X4X9X7X7X4X7X4X7X4X4X4X",
"7X9X4X9X9X9X9X9XqX9X9XqX7X|.w q H K H H l 8 # ] l.g.s.a.a.a.a.a.a.a.a.p.a.a.a.a.a.a.a.i.) ) { < _.4X7X7X4X4X4X4X4X7X4X9X7X4X4X4X",
"9X9X6X9X4X7X4X9X9X9X9X9X6X).* r l l l l r q @ b +X+XT.H.g.a.a.a.a.a.a.a.a.a.a.a.a.a.a.:.) ) { < `.9X4X4X4X7X7X4X4X4X4X4X4X4X4X4X",
"9X9X9X9X9X9X9X9X6X9X9X9X6X).# % & 8 8 & & & + 6.%X$X$X$XT.b.a.a.a.a.s.s.a.a.a.a.a.a.a.&.) +.] - |.7X7X4X4X4X7X4X4X4X7X4X7X7X4X7X",
"qXqX9X9XqXqX9X7X9X7X9X7X9XZ.9 # & & & o o o e .X$X$X$X$X$X@Xb.a.a.<.[ %.p.a.a.a.a.a.:.) ) &.6 D 4X4X7X7X4X4X9X4X9X7X4X4X4X4X4X4X",
"qXqX9X9X9X9X9X9X4X6X4X9X9XB.4.G & + & & + e J.$X$X$X$X$X$X$XoXg.a.<.a + ] s.a.a.a.i.@.) &.` = `.7X4X9X4X9X7X4X4X7X4X4X4X4X4X4X4X",
"qXqX6X7X9X4X7X4X4X7X9X4X4XC.G U.M $ # 8  .U.$X$X$X$X$X$X$X$X$XH.a.p.a f ] a.a.a.:.+.) &.[ $ V 1X4X4X4X4X4X7X9X4X4X7X4X4X9X7X4X4X",
"qXqX9X6X6X6X7X9X4X4X4X7X4X_.z .XF.7.e r.U.$X$X$X$X$X$X$X$X$X$XL.a.` h <.p.a.p.&.) +.%.f > , S 4X4X7X4X7X7X9X7X7X9X9X7X4X9X4X4X7X",
"qX7X9X4X6X6X7X6X7X4X4X4X4X>XZ u.U.c.M w.U.$X$X$X$X$X$X$X$X$X@Xc.` e t.f.p.-.+.) _ x 1 , Q t D 4X4X4X7X4X9X4X4X7X6X4X4X4X4X7X4X9X",
"qXqX4X9X9X4X4X4X7X9X4X7X7X4XZ.z I.K.O.5 r.T.$X$X$X$X$X$X$X$XF.n e t.c.:.#.( g 4 > , s ( _ 4 P 4X7X4X4X7X7X4X4X7X6X4X4X4X7X4X4X4X",
"qXqXwXwX4X4X4X9X4X7X7X4X7X7X1XU v 6.0 h c ..D.T.#X$X%X#XU.w.e m y.c.>.! t : > 4 g ( ) _ _ 3 R 7X4X4X7X4X4X4X4X4X4X4X4X4X4X4X4X4X",
"qXqXqXqX4X4X4X7X4X4X4X6X6X7X4X>XE V 9 t.y. .c M 7.w.w...h v w.F.c.| 3 : 3 g ( ) ) ) ) _ _ 3 R 4X4X4X4X7X4X4X4X4X4X4X4X4X4X4X7X7X",
"0XqXqX7X4X4X4X4X4X4X4X4X4X7X7X4X4X>XS b F.c.y.w...M M ..r.c.c.7.e > i / +.+.+.+.&.;.+.) ) 3 U 4X3X4X4X4X4X4X4X4X4X4X4X4X4X4X4X7X",
"qXqX4X4XqX9X4X9X4X4X4X6X4X9X7X7X9X7X[.B b S.G.G.G.G.F.F.y.O.e < i _ $.@.@.+.@.;.p.p.+.) ) 4 D 4X4X4X4X4X4X4X4X4X4X4X4X4X4X4X4X4X",
"qXqX4X4X7X7X4X6X6X7X4X4X4X7X4X4X6X6X6X[.S 0 N 6.5...M e 1 1 f { &.&.&.#.#.-.p.a.a.p.@.) ) i w -X4X4X4X4X4X3X4X4X4X4X4X4X4X4X4X4X",
"qX4X4X4X7X7X9X9X6X4X4X4X4X4X4X4X9X6X4X7X>XA.P Z V ; $ f [ &.;.-.-.-.&.-.:.a.s.a.s.p.@.) ) ! $ Z.4X4X4X4X4X2X3X4X4X4X4X4X4X4X4X4X",
"qX4X7X4X4X7X9X7X6X4X4X4X7X7X4X4X4X7X4X9X4X7X6X1X1XR 3 ;.<.:.;.;.;.:.x.k.a.s.s.s.a.;.+.) ) ) 4 V =X4X4X4X4X4X4X4X4X3X3X4X3X4X4X4X",
"4X4X4X7X9X6X9X7X4X4X4X4X7X4X4X7X4X9X4X7X9X7X4X6X9XL h d.d.d.<.d.c.L.T.k.a.s.s.a.:.+.) ) ) ) / $ B.4X4X4X4X3X4X4X4X4X4X3X3X4X4X4X",
"7X4X4X7X9X9X4X4X4X4X4X7X7X4X4X4X4X4X7X9X9X7X9X9X-Xw 7.T.Y.U.Y.T.@X@XY.s.a.s.a.:.@.#.-.&.) ) ) 4 V ;X4X4X4X4X4X4X3X3X3X>X3X4X4X7X",
"4X7X4X7X7X9X4X4X4X4X4X4X4X4X6X4X4X4X9X7X7X6X9X7XA.9 I.%X#X#X#X@X@X@XH.a.a.a.:.#.;.p.a.a.&.) ) Q $ _.4X4X4X4X4X4X4X3X3X3X4X4X4X4X",
"6X6X4X4X9X4X7X6X7X4X4X4X4X4X4X7X4X4X7X7X7X9X7X;XZ G #X$X#X#X#X#X@X@Xb.a.a.p.&.:.a.a.a.a.:.+.) ( : I 3X4X4X4X4X4X4X4X4X4X4X4X4X4X",
"7X4X9X4X4X7X4X4X4X4X4X7X6X7X9X9X4X4X4X9X4X6X4XE 0 I.%X$X$X$X$X$X#XT.g.a.a.:.p.a.a.a.a.a.p.@.) ) i * E.4X4X4X4X4X4X4X4X4X7X4X4X3X",
"4X7X7X4X4X4X4X4X4X4X9X7X7X4X4X7X4X9X7X4X9X9XE.9 u.#X$X$X$X$X$X$X$XY.s.a.p.p.a.a.a.a.a.a.p.#.) ) ( 3 w }.4X4X4X4X4X4X4X3X4X4X3X3X",
"4X4X4X4X4X4X4X4X4X4X7X7X4X4X4X4X4X7X4X4X6X[.- b 8..X$X$X$X$X$X#X$XL.a.a.p.a.a.a.a.a.a.a.a.#.) ) ) ! : D 1X4X4X4X3X4X4X4X4X4X4X1X",
"4X4X4X4X4X4X4X4X4X4X4X7X4X4X4X4X4X4X4X4X4X`.B # 6.$X$X$X$X$X$X$X$XL.a.p.a.a.a.a.a.a.a.a.p.@.) ) ) ) d # B.4X4X3X4X4X4X3X4X3X3X3X",
"4X4X4X4X4X7X7X4X7X4X4X7X7X4X4X4X4X4X4X4X4X7XE.9 I.$X$X$X$X$X$X#X$XY.<.*.a.a.a.a.a.a.a.a.p.+.) ) ) ) _ t = `.3X3X4X4X4X4X3X3X4X4X",
"4X4X4X4X4X4X4X4X4X4X4X4X7X4X4X4X4X4X4X4X4X4XU h S.+X$X$X$X$X$X#X#XT.o.;.s.a.a.a.s.a.a.s.:.) ) ) ) ) ) ( : S >X3X4X4X3X4X3X3X4X4X",
"4X4X4X4X4X4X7X4X6X4X7X4X4X7X4X6X4X7X4X4X4X>XV x N .X$X$X$X$X$X#X#X+X .<.a.a.a.a.s.a.a.a.-.) ( _ ) ) _ _ s w }.3X4X4X4X3X>X3X4X4X",
"4X4X4X4X6X4X7X6X9X4X4X7X9X7X7X4X7X4X7X4X4X|.9 Q 5 P.%X$X$X$X#X#X#X.Xn p.a.a.a.a.a.s.a.p.@.) g ) ) ) ) ) 7.'.4X3X>X4X4X4X4X4X4X4X",
"4X4X4X4X4X4X4X6X7X6X4X4X4X4X4X4X4X4X4X4X4X}.9 / 3 8.%X$X$X$X@X@X#XI.h p.s.a.a.a.a.a.a.:.) ! y ) ) _ 5.R.:X4X4X4X4X4X4X4X4X4X4X4X",
"4X4X4X9X7X7X4X4X4X4X4X4X4X4X4X4X4X4X3X4X4X=XV / i z +X$X$X#X#X@X#XP.5 <.s.a.a.a.a.a.a.-.) s u O.q.!.:X4X3X4X4X4X3X3X4X4X4X4X4X4X",
"4X4X4X4X4X9X4X4X7X4X4X4X4X4X7X6X4X4X4X4X4X4X|.!.m.S W.$X#X#X@X@X@XI.1 *.s.a.a.a.f.f.e.w.q.R.'.:X2X4X4X4X3X4X4X4X3X4X4X4X4X4X4X4X",
"4X4X4X4X7X4X7X7X4X4X4X4X4X4X4X4X4X4X4X4X4X4X4X4X4X>X:X,X,X*X*X*XOXOXE R.Q.Q.~.~. X X:X>X4X4X4X4X4X4X4X4X3X3X4X4X4X3X4X4X4X4X4X4X",
"4X4X4X4X4X4X4X4X7X4X4X6X7X4X4X4X4X4X4X4X4X4X4X4X4X4X4X4X4X4X4X4X4X4X4X6X4X6X4X4X4X7X4X4X4X4X4X4X4X4X4X4X4X4X4X4X4X3X1X4X4X4X4X4X",
"4X4X4X4X4X4X4X4X6X4X4X4X7X4X4X4X4X4X4X4X4X4X4X4X4X4X4X7X4X3X4X4X4X4X4X4X4X9X7X4X7X4X4X4X4X4X4X4X4X3X4X4X4X4X4X4X4X4X3X3X4X4X4X4X",
"4X4X4X4X4X7X7X6X9X9X4X4X4X4X4X4X4X4X4X4X4X4X4X4X4X7X4X7X4X4X4X4X4X4X4X4X7X7X9X4X4X4X4X4X4X4X4X4X4X4X4X4X4X4X4X3X3X4X3X4X3X4X4X4X",
"4X4X4X4X3X4X4X7X7X7X9X7X4X4X4X4X7X4X4X4X4X4X4X4X4X4X4X4X4X4X4X4X4X4X4X4X4X7X4X7X4X4X4X4X4X4X4X3X4X4X3X4X4X4X3X4X3X4X4X4X4X4X3X4X",
"4X4X3X4X4X4X4X4X4X4X4X4X4X4X4X4X4X4X4X4X4X4X4X4X4X4X4X4X4X4X4X4X4X4X4X7X6X7X4X6X4X4X4X4X4X4X4X4X4X4X3X4X4X4X4X4X3X4X4X4X4X4X3X4X"
};
