/* XPM */
static const char *player[] = {
/* columns rows colors chars-per-pixel */
"64 64 214 2 ",
"   c #1A0F05",
".  c #1D1207",
"X  c #251607",
"o  c #2C1909",
"O  c #311C06",
"+  c #341E0B",
"@  c #371F10",
"#  c #35210C",
"$  c #3B230A",
"%  c #39250B",
"&  c #3B2312",
"*  c #382512",
"=  c #3C2C11",
"-  c #3D3216",
";  c #3E341B",
":  c #452307",
">  c #442509",
",  c #4B2608",
"<  c #432A0C",
"1  c #4C2C0B",
"2  c #522608",
"3  c #542C0A",
"4  c #5D2D09",
"5  c #53320D",
"6  c #5B330C",
"7  c #5C380E",
"8  c #452B14",
"9  c #443213",
"0  c #4B3212",
"q  c #4A321C",
"w  c #433C1D",
"e  c #5C3A12",
"r  c #622D09",
"t  c #692F09",
"y  c #64350C",
"u  c #6C330B",
"i  c #663C0E",
"p  c #6B390D",
"a  c #73340B",
"s  c #7C350A",
"d  c #733C0D",
"f  c #7C3A0C",
"g  c #643C12",
"h  c #6A3E12",
"j  c #473C21",
"k  c #593923",
"l  c #5D441C",
"z  c #7D410E",
"x  c #6D4312",
"c  c #654218",
"v  c #6E4D1D",
"b  c #744413",
"n  c #794A15",
"m  c #794E19",
"M  c #75521F",
"N  c #464121",
"B  c #4A4523",
"V  c #4C4729",
"C  c #4D4C29",
"Z  c #59492A",
"A  c #52522D",
"S  c #575A33",
"D  c #634D27",
"F  c #7C5826",
"G  c #744C33",
"H  c #6A5031",
"J  c #795832",
"K  c #5A6137",
"L  c #5D6439",
"P  c #60673B",
"I  c #616A3D",
"U  c #646E40",
"Y  c #736C45",
"T  c #667243",
"R  c #6A7847",
"E  c #85370A",
"W  c #823C0C",
"Q  c #8B3C0B",
"!  c #933E0B",
"~  c #86460F",
"^  c #8C440E",
"/  c #94420D",
"(  c #9C450D",
")  c #9A4A0F",
"_  c #854710",
"`  c #824C14",
"'  c #8C4B11",
"]  c #934C10",
"[  c #9B4E11",
"{  c #855014",
"}  c #8D5416",
"|  c #86551B",
" . c #88581E",
".. c #9D5312",
"X. c #9B5C16",
"o. c #965A1A",
"O. c #A0470E",
"+. c #A34A0E",
"@. c #A94E0F",
"#. c #A64E10",
"$. c #A35312",
"%. c #AC5211",
"&. c #AE5A13",
"*. c #A05819",
"=. c #B25511",
"-. c #B45B13",
";. c #BB5C13",
":. c #B05E18",
">. c #AB6116",
",. c #BD6114",
"<. c #B96618",
"1. c #BB6D1A",
"2. c #B9701D",
"3. c #865A27",
"4. c #945E26",
"5. c #8C6227",
"6. c #976425",
"7. c #9C722F",
"8. c #89693A",
"9. c #906132",
"0. c #9E7738",
"q. c #A56A26",
"w. c #B86E22",
"e. c #AD7026",
"r. c #B57325",
"t. c #BC7525",
"y. c #AB7C35",
"u. c #C15F13",
"i. c #C46314",
"p. c #CA6615",
"a. c #CC6916",
"s. c #C16618",
"d. c #C56B1A",
"f. c #CC6D1A",
"g. c #D06F18",
"h. c #C7731C",
"j. c #CC721B",
"k. c #D1721B",
"l. c #D7791C",
"z. c #C26924",
"x. c #C97B27",
"c. c #D57A23",
"v. c #D67B23",
"b. c #8B7248",
"n. c #967A49",
"m. c #837256",
"M. c #927B56",
"N. c #72834E",
"B. c #758651",
"V. c #788C54",
"C. c #7C9057",
"Z. c #7D9359",
"A. c #B98133",
"S. c #C1812F",
"D. c #CC832D",
"F. c #D1862E",
"G. c #DA8329",
"H. c #C98A37",
"J. c #D58A31",
"K. c #DD8D33",
"L. c #C7903D",
"P. c #CC913D",
"I. c #DA933A",
"U. c #E39639",
"Y. c #E59B3D",
"T. c #958B4A",
"R. c #82995D",
"E. c #B18A48",
"W. c #BB9C4D",
"Q. c #A2A15B",
"!. c #B5A557",
"~. c #9D8965",
"^. c #859D61",
"/. c #A08963",
"(. c #87A162",
"). c #8AA565",
"_. c #8EAB69",
"`. c #95A864",
"'. c #91AE6B",
"]. c #93B36E",
"[. c #95B571",
"{. c #99B774",
"}. c #9ABB74",
"|. c #B0B769",
" X c #DA9B42",
".X c #C7965E",
"XX c #E79E41",
"oX c #C7B45E",
"OX c #E8A546",
"+X c #ECA645",
"@X c #EDA847",
"#X c #EEA949",
"$X c #F0AB49",
"%X c #CF9D6A",
"&X c #C6BD66",
"*X c #9EC177",
"=X c #9FC379",
"-X c #A2C67B",
";X c #A9C679",
":X c #A3C97E",
">X c #B3C876",
",X c #CCB387",
"<X c #A6CC81",
"1X c #A9CF82",
"2X c #A7D182",
"3X c #AAD384",
"4X c #AAD385",
"5X c #ACD385",
"6X c #ABD485",
"7X c #ACD485",
"8X c #ACD486",
"9X c #A7D089",
"0X c #ACD489",
"qX c #B0D689",
/* pixels */
"3X3X6X3X3X3X6X3X6X6X6X8X6X8X5X8X8X8X8X8X8X8X8X8X8X8X8X8X8X5X6X3X6X8X5X8X8X8X8X8X5X8X6X6X6X3X3X3X3X3X3X6X8X5X5X8X3X3X3X3X3X6X3X3X",
"3X3X3X3X3X3X3X6X3X6X3X6X8X8X6X8X8X8X8X0X0X0X8X8X6X8X8X8X8X5X3X6X6X6X3X8X8X8X8X8X8X8X8X8X3X3X3X3X6X3X5X6X8X5X6X6X3X3X3X3X6X3X3X3X",
"3X3X3X3X3X3X3X6X3X6X6X3X6X6X8X8X6X0X0X0X0X0X8X8X8X8X8X8X8X8X8X5X6X3X8X8X8X8X5X5X5X6X8X3X6X3X3X3X6X3X5X5X8X6X8X3X3X6X3X6X6X3X3X3X",
"3X3X3X6X3X3X3X3X3X6X3X8X0X3X5X8X8X8X8X8X:X1X8X8X8X8X8X8X8X8X8X8X3X8X8X8X8X8X3X:X<X3X6X6X6X8X6X3X6X3X3X6X5X6X8X8X3X8X6X6X8X3X3X3X",
"6X3X3X3X3X3X6X3X6X8X8X8X8X8X8X8X5X8X[.I N C R.8X0X6X8X5X3X8X3X6X6X8X8X8X8X[.L w V B.:X3X6X3X3X3X6X3X8X3X6X6X3X8X3X3X3X3X3X6X6X3X",
"3X3X3X3X6X3X3X3X3X8X5X5X8X8X5X8X-XR - 6 { i = R.8X8X6X3X3X3X3X5X8X8X8X8X}.N 5 } { < S }.6X8X3X3X8X3X8X8X3X6X3X8X3X3X5X3X3X6X6X8X",
"3X3X3X3X6X3X3X3X8X8X8X6X3X3X*XB.N 1 } d.p.;.p w }.6X6X6X3X6X6X8X8X8X6X:XA 1 <.,.f.2.5 N R.:X6X3X8X6X6X6X3X8X8X8X3X8X8X8X6X3X3X3X",
"3X3X3X3X3X3X3X3X8X6X8X<X'.T w < n 1.f.i.z ^ -.1 P 3X3X3X3X3X6X8X8X6X8XB.$ $.$., d f.1.< % B R ).-X3X3X3X3X6X3X8X6X5X8X3X6X6X6X6X",
"3X3X3X3X3X3X3X6X8X-XV.A = 5 { 1.k.p.p.i.3 s =.] = _.3X3X<X:X-X:X<X8X}.; d u.y 4 , ^ k.o.y ~ 6 < B ).8X8X6X8X3X3X3X8X8X8X8X3X3X5X",
"3X6X3X6X3X3X6X6X^.N < x >.h.g.p.p.p.p.-.1 E O.,.6 V I A V N N B C S C # [ $., E s 2 -.f.d $.i.-.p w }.8X6X5X6X3X6X8X8X8X6X6X6X5X",
"3X8X5X3X3X3X3X).= x 1.k.a.p.i.p.p.p.a.$., Q ! ;...1 i n } X.X.X.o.{ x 6 1 > , Q ! 4 f p.-.[ p.p.;.1 Z.8X6X8X3X5X6X8X8X8X8X3X6X5X",
"6X3X3X3X3X3X3XK 7 j.a.p.p.p.p.p.p.p.a.[ , ! ! =.p.i.p.a.a.f.g.k.l.l.k.h.<.{ 1 2 E E , +.p.,.p.p.p.6 R 6X6X3X6X6X8X8X8X8X8X8X8X3X",
"3X3X3X3X3X3X3XA b l.p.p.p.p.p.p.p.p.a._ 2 ! ( ;.p.p.p.p.p.p.p.p.p.a.p.p.p.f.1.b , s r 4 ;.p.p.p.p.y U 6X3X8X3X8X8X0X8X8X8X8X8X8X",
"3X3X6X6X3X3X8XT 5 j.p.p.p.p.p.p.p.p.p.p r ( ;.p.p.p.p.p.p.p.p.p.p.p.p.p.p.p.p.p.' , , O f u.p.p.p.6 R 8X3X3X3X8X8XqXqX0X0X8X8X8X",
"3X3X3X5X6X3X3X_.= o.k.p.p.p.p.p.p.p.i.3 a =.p.p.p.p.a.p.p.a.p.p.p.p.p.p.p.p.p.p.p.' + - > / i.p.,.1 V.8X6X6X5X8X0X8X8X8X0X8X8X8X",
"3X3X3X3X3X3X6X3XU 1 1.a.p.p.p.p.p.p.&.> Q i.p.p.p.i.] p y z -.p.p.p.p.p.p.p.p.p.;._ > w S > / i.$.= '.3X3X8X5X8X8X8X8X8X8X0X8X8X",
"3X6X3X3X8X6X3X3X*XV 7 h.p.p.p.p.p.a._ , #.p.p.p.,.d 5 p p 3 3 $.a.p.p.p.p.p.p.p.p 3 y $ R P > d 3 A <X3X3X8X8X5X0X8X8X6X8X8X5X3X",
"8X6X3X8X6X3X3X6X3X].w i d.a.p.p.p.i.6 u ;.p.p.p.....i.a.a.p.$.~ p.p.p.p.p.p.p.&.z ,.p._ B =XB.N C '.8X8X6X3X8X8X8X8X6X8X5X8X8X8X",
"8X3X3X6X6X3X6X3X3X3X'.j 7 <.a.p.p.] > ! i.p.p.p.i.a.p.;.;.p.a.i.p.p.p.p.i.p.p.;.,.;.,.-.0 [.6X:X<X8X8X5X8X8X8X8X8X8X8X5X8X8X8X5X",
"6X3X3X3X5X3X6X3X3X3X3X[.A < ` >...1 u +.i.p.p.p.a.;.b e e h &.a.p.p.p.p.i.i.p.p.$.c g $.5 (.5X5X8X8X8X8X8X6X8X0X8X0X0X8X8X8X8X8X",
"8X3X6X6X3X3X3X6X6X3X3X3X-XN.j = # r / @.p.p.p.p.,.x J D D J c -.p.p.p.p.i.i.p.p.6 Z b.b 6 R.5X5X8X8X8X0X8X6X6X8X0X0X0X8X8X8X8X8X",
"8X5X3X3X5X8X8X3X8X3X3X3X3X3X-XR.= f ( @.p.p.p.a.] 8.Z   V b.8.` p.p.p.p.i.i.p.;.> m.M.J 3 ^.8X5X5X6X8X8X8X8X8X8X0X8X0X8X8X6X8X8X",
"8X6X3X3X3X8X5X3X3X3X3X3X3X6X8X-Xw a ( +.i.p.p.p.` n.#   H m.n.3.,.p.p.p.p.p.p.,.> ; Z 8.1 ^.5X5X6X5X6X8X0X8X8X8X8X8X8X8X8X8X8X0X",
"6X8X3X3X3X3X3X8X6X3X3X3X3X5X8X:Xj a ( ( ;.p.p.p.3.~.* . . X /.E.-.p.p.p.p.p.p.p.p X Z n.6 Z.6X5X8X8X6X8X5X8X8X8X8X8X3X5X8X0X8X8X",
"6X8X5X3X3X6X6X3X5X3X3X3X6X3X5X=Xw f ( ( ;.p.p.a.*.~.j o X - ,X.X,.p.p.p.p.k.c.c.h.x k v y I 3X3X6X8X6X8X5X8X5X5X8X8X5X3X5X8X8X8X",
"3X3X3X6X6X6X3X8X8X3X8X6X6X3X6X}.- ^ ( ( ;.p.p.p.i.4.Y j j M.%Xz.p.p.p.p.a.k.k.c.G.G.2.` 6 = C B.=X8X8X8X3X8X8X8X8X8X8X6X3X8X8X5X",
"3X3X3X6X3X6X3X6X6X8X3X6X3X6X3X'.= [ ( ( i.p.p.p.p.i.o.3.9.e.;.i.p.p.p.p.p.p.p.p.p.X.h 5 0 8 & # N ^.8X8X8X8X8X8X8X6X0X8X6X3X8X5X",
"3X3X3X6X8X3X6X3X3X3X3X3X6X6X3X).< [ ( ( u.p.p.p.p.p.p.p.i.i.p.p.p.p.p.p.p.a.f.k.' # 8 k G G G G q w }.6X0X8X8X0X8X8X8X8X8X3X8X6X",
"3X3X3X6X3X3X3X3X3X6X6X3X3X3X8X_.< [ ( ( ;.p.p.p.p.p.p.p.p.p.p.p.p.p.p.f.G.Y.+X+Xv @ q q k k k k q * (.5X8X8X8X8X8X3X6X3X8X0X8X8X",
"6X3X6X6X3X6X3X3X3X6X3X3X3X6X6X}.- ' +.( %.p.p.p.p.p.p.p.a.a.p.p.p.p.c.Y.#X#X#X$X5.+ & & & 8 8 & % # (.5X8X8X8X5X8X8X8X8X8X8X8X8X",
"3X3X3X3X3X3X6X8X3X8X3X3X6X6X3X3XS 6 %.( ( ;.p.p.p.p.p.p.$.] ,.p.p.c.+X#X#X#X#X$X Xe o o o & & & # 9 V.8X8X8X6X8X6X8X0X0X0X8X0X0X",
"3X3X3X3X3X3X3X6X3X3X6X8X3X8X3X6X_.= _ %.( +.u.p.p.p.p.' + p ,.p.f.XX#X#X#X#X#X#X$XH.e + & & + & F 3.N.8X8X6X5X5X8X8X8X8X8X8X0X0X",
"3X3X6X8X3X3X6X3X3X8X6X3X3X3X3X3X<XB $ ] %.( +.;.p.p.p._ d p p.p.G.#X#X#X#X#X#X#X#X#XI.| 8 # % m I.F B.3X3X8X6X3X3X6X3X8X0X0X3X3X",
"6X3X3X8X3X6X8X8X6X6X8X6X6X3X6X3X3XA , > d $.+.( %.i.p.p.,.g _ p.K.#X#X#X#X#X#X#X#X#X#XI.e.e 6.D. Xl ).3X6X3X3X3X8X6X5X5X5X8X0X3X",
"8X3X6X3X3X3X3X3X6X3X3X8X3X6X3X3X3XS r W , 1 z ( ( +.=.i.d.r.e _ x.@X#X#X#X#X#X#X#X#X#XI.q.m x.I.y.C :X3X3X3X3X6X5X6X5X5X3X0X0X3X",
"3X3X3X6X3X3X3X5X6X3X3X6X6X3X3X6X3XL 4 ( / a , > 4 f / @.;.x.r.e b D.#X#X#X#X#X#X#X#XY.e.5 o.J.P.l C.3X6X6X3X8X6X3X3X3X8X0X3X3X3X",
"3X3X3X3X3X3X3X3X6X3X3X3X3X6X3X3X6XT 2 ( ( ( / f 4 > : r Q :.x.t.n e q.I.@X$X#X@XY.S. .x g 0 5.c I <X6X6X3X6X6X3X8X3X3X6X0X3X3X3X",
"6X6X3X3X3X3X3X3X3X3X3X3X6X3X3X3X3XT 2 ( ( ( ( ( ( / f 2 : 2 } x.D.q.c g  .q.q.6.m x | t.r.9 B R :X3X6X5X5X3X3X3X6X3X3X3X0X3X3X3X",
"6X3X3X3X3X3X3X3X3X3X3X3X3X3X3X3X3XI 2 ( ( +.-.%.+.+.+.+.^ y > e 6.x.x.e. .m m  .q.t.x.D.v A :X3X3X6X6X3X3X3X3X3X3X3X3X3X6X3X3X9X",
"3X3X3X3X3X3X3X3X3X3X3X3X3X3X3X6X3XS 4 ( ( +.i.p.-.@.+.@.@.#.) p < e o.t.D.D.D.F.F.F.A.v N ].6X8X6X6X8X3X5X3X3X3X8X3X8X0X3X3X0X3X",
"3X3X3X3X3X3X3X3X3X3X2X3X3X3X3X3X=Xw u ( ( @.p.p.p.i.=.@.@.%.%.%.[ d 1 1 e m  .4.5.M 0 A ].5X5X5X3X3X6X3X3X3X6X5X5X3X6X6X3X3X3X3X",
"3X3X3X3X3X3X3X3X3X2X1X3X3X3X3X3XZ.$ Q ( ( +.i.p.p.p.p.;.=.%.=.=.=.-.$.] d $ ; B C L Z.:X6X3X5X8X3X3X3X3X3X3X3X5X8X8X6X6X3X3X3X3X",
"3X3X2X2X3X2X3X3X3X3X3X3X3X3X3X=XN 4 ( ( ( ( -.p.p.p.p.p.j.z.;.-.-.-.;.,.-.3 R <X<X5X6X3X8X3X6X3X3X3X6X6X3X3X3X5X6X8X6X3X3X6X3X0X",
"3X3X2X2X2X3X3X3X3X3X2X3X3X3X3XN.$ Q ( ( ( ( +.;.p.p.p.p.j.Y.K.x.d.,.s.s.d.g K 8X5X3X6X8X6X3X8X3X6X3X3X6X3X3X3X3X6X8X5X8X6X3X3X3X",
"6X3X3X2X:X2X2X3X3X3X3X3X3X3X-XB 4 ( ( ( %.=.@.+.;.p.p.p.p.U.@X+XY.U.I.U.Y.6.w =X8X8X6X8X8X6X3X3X3X3X3X6X6X3X3X3X3X3X8X8X6X3X3X6X",
"3X3X3X3X2X2X2X3X3X3X3X3X3X3X).% W ( ( %.p.p.p.-.@.;.p.p.p.G.@X@X@X@X@X@X$XP.9 Z.6X8X5X6X6X8X3X3X3X5X3X3X3X3X3X3X3X3X8X6X6X3X6X3X",
"3X3X3X3X3X2X3X3X3X3X3X3X3X2XI > / ( O.;.p.p.p.p.;.%.i.p.p.c.+X@X@X@X@X@X#X@XF V -X6X8X6X6X6X3X3X6X3X3X3X3X3X3X6X5X6X3X8X3X3X5X5X",
"3X3X3X6X3X3X3X3X3X3X3X3X3XR.% u ( ( +.i.p.p.p.p.p.i.;.p.p.f.Y.@X#X#X#X#X#X$XP.0 R 3X5X3X8X3X3X3X8X8X6X5X6X3X3X3X3X3X6X3X3X8X3X6X",
"3X2X2X3X2X3X3X3X3X3X3X3X{.w 2 / ( ( @.p.p.p.p.p.p.p.i.i.p.p.U.#X#X#X#X#X#X#X@Xy.9 R.8X8X3X6X8X3X6X3X3X6X6X8X3X3X3X3X3X3X3X6X6X3X",
"1X3X2X2X3X3X3X3X3X3X3X<XS : Q ( ( ( @.p.p.p.p.p.p.p.p.p.p.p.K.#X@X#X#X#X#X#X X7.v - ].5X3X3X6X3X3X3X3X3X6X6X3X3X3X3X3X3X3X3X3X3X",
"3X2X2X2X2X3X3X3X2X3X3XN.# s ( ( ( ( @.p.p.p.p.p.p.p.p.p.p.p.K.#X#X#X#X#X#X#X#X5.% N _.3X3X3X3X3X3X3X3X3X6X3X3X3X3X3X3X3X3X3X3X3X",
"3X2X2X2X2X3X3X3X2X2X_.= r ( ( ( ( ( +.i.p.p.p.p.p.p.p.p.&.,.U.#X@X#X#X#X#X#X#XP.9 Z.6X3X3X3X3X3X3X3X3X6X6X3X3X6X3X6X6X3X3X3X3X3X",
"3X3X3X2X3X3X3X3X2X:XA : ! ( ( ( ( ( ( ;.p.p.p.p.p.p.p.a.-...Y.@X@X#X#X#X#X#XOXA.g I 3X3X3X3X3X3X3X3X3X6X3X3X3X3X6X3X3X3X3X3X3X3X",
"3X3X3X:X2X3X3X3X2X}.w a ( ( ( ( ( ( ( =.p.p.p.p.p.p.p.p.,.| OX@X@X#X#X#X#X#X XM z B :X3X3X3X6X3X5X3X6X3X3X6X3X5X3X6X6X3X3X3X3X3X",
"3X3X3X3X3X3X3X:X2X3X`.6./ ( ( ( ( f ( +.p.p.p.p.p.p.p.p.i.b  X@X@X@X#X#X#X$XL.5 W 9 }.3X3X6X3X6X3X6X6X8X6X3X3X8X5X6X3X5X3X3X3X3X",
"3X3X3X3X3X3X3X3X3X3X3X;XT.4.( ( ( t Q ( ;.p.p.p.p.p.p.a.i.g P.@X@X@X#X#X#X$X7.2 ^ 9 {.3X3X3X3X3X3X3X3X3X3X3X5X6X5X3X3X3X3X3X3X3X",
"3X3X3X3X3X2X2X2X3X3X3X3X3X;XQ.0.o.y a ( =.p.p.p.p.p.p.a.,.5 L.@X@X#X#X#X#XOXl p ^ B *X3X3X2X3X3X3X3X3X3X3X3X3X3X3X3X6X6X8X3X3X3X",
"3X3X3X2X3X2X3X2X3X3X3X3X3X3X3X3X;X`.T.0.q.w.d.d.p.p.a.a.&.1 P.@X@X@X@X@X@XE.A n.Q.}.3X3X3X3X3X3X5X6X3X3X3X3X3X6X3X3X8X3X3X3X3X3X",
"3X3X3X3X<X<X2X3X3X2X3X3X1X2X3X3X3X3X3X3X:X;X|.|.!.!.W.W.T.R oXoX&X&X&X>X>X;X:X3X3X3X3X3X3X3X3X3X3X3X3X3X3X3X3X3X6X6X3X6X3X3X3X3X",
"3X3X3X3X2X<X2X3X3X3X3X3X3X3X3X2X3X3X3X3X3X3X6X3X3X3X5X3X5X3X3X3X3X3X3X3X3X3X3X6X6X3X3X3X3X3X3X3X3X3X3X6X5X3X3X6X3X3X3X3X3X3X3X3X",
"3X3X3X2X3X2X3X3X3X3X3X3X3X3X2X3X3X3X3X3X3X3X3X3X3X6X8X3X3X3X3X3X3X3X<X3X6X3X6X3X6X6X3X3X3X3X3X3X3X3X3X6X3X3X3X5X3X3X3X3X3X3X3X3X",
"3X3X3X2X3X2X3X3X2X3X3X3X3X3X3X3X3X3X3X3X3X3X2X3X3X8X6X6X3X3X3X3X3X3X3X3X6X3X6X3X3X3X3X3X3X3X3X3X3X3X3X3X3X3X8X8X5X6X6X3X3X3X3X3X",
"3X2X3X3X3X3X3X3X3X2X2X3X3X3X3X3X2X3X3X3X3X3X<X3X6X3X6X3X3X3X3X3X3X3X3X3X3X3X3X3X3X3X3X3X3X3X3X3X3X3X3X3X6X8X6X6X6X3X3X2X3X3X3X3X",
"3X2X3X3X3X3X3X2X2X2X3X3X3X3X3X3X3X3X3X3X3X3X3X3X5X3X6X5X6X3X3X3X3X3X3X3X3X3X3X3X3X3X3X3X3X3X3X3X3X3X3X3X3X3X3X3X3X3X3X3X3X2X3X3X"
};
