/* XPM */
static const char *wall[] = {
/* columns rows colors chars-per-pixel */
"64 64 110 2 ",
"   c #124E27",
".  c #134F28",
"X  c #145027",
"o  c #16542B",
"O  c #18562C",
"+  c #17582C",
"@  c #1B5B2E",
"#  c #1D5E30",
"$  c #215C2F",
"%  c #235D31",
"&  c #1F602F",
"*  c #1F6030",
"=  c #20612F",
"-  c #236431",
";  c #2A6436",
":  c #266932",
">  c #2A6D33",
",  c #2D6738",
"<  c #2D6938",
"1  c #336B3B",
"2  c #2D7235",
"3  c #317636",
"4  c #337937",
"5  c #34743A",
"6  c #39723F",
"7  c #367C38",
"8  c #397E39",
"9  c #3D7441",
"0  c #427744",
"q  c #437A44",
"w  c #487C46",
"e  c #4A7F49",
"r  c #3C833A",
"t  c #3F883C",
"y  c #41863C",
"u  c #448B3D",
"i  c #488E3F",
"p  c #47903E",
"a  c #49923F",
"s  c #448343",
"d  c #498547",
"f  c #4C8D45",
"g  c #4D814B",
"h  c #4E8B48",
"j  c #51854D",
"k  c #548A4D",
"l  c #4C9441",
"z  c #4D9840",
"x  c #519642",
"c  c #539B43",
"v  c #589E45",
"b  c #55944B",
"n  c #59964F",
"m  c #5C9B4E",
"M  c #568A50",
"N  c #5B8D52",
"B  c #579150",
"V  c #5E9255",
"C  c #5F9A53",
"Z  c #608F56",
"A  c #619256",
"S  c #639C56",
"D  c #659659",
"F  c #6B9C5D",
"G  c #57A044",
"H  c #5CA446",
"J  c #5FA648",
"K  c #5FA848",
"L  c #60A748",
"P  c #64AC4A",
"I  c #6AB14C",
"U  c #6DA35C",
"Y  c #6FA85B",
"T  c #74A362",
"R  c #78A664",
"E  c #74AA61",
"W  c #7BAA66",
"Q  c #7EAC69",
"!  c #7EB069",
"~  c #81AE6B",
"^  c #80B267",
"/  c #84B26C",
"(  c #89B66F",
")  c #8BBA6F",
"_  c #8AB670",
"`  c #8EBA72",
"'  c #92BD75",
"]  c #8EC071",
"[  c #95C176",
"{  c #9AC377",
"}  c #97C379",
"|  c #9BC57A",
" . c #9EC97C",
".. c #A2CC7E",
"X. c #A5CE80",
"o. c #A8CF81",
"O. c #A7D182",
"+. c #AAD382",
"@. c #ABD283",
"#. c #ABD483",
"$. c #ACD483",
"%. c #A9D384",
"&. c #A9D385",
"*. c #ACD385",
"=. c #ABD484",
"-. c #ACD486",
";. c #A7D089",
":. c #ABD389",
">. c #ACD388",
",. c #ADD488",
/* pixels */
"+.%.=.%.+.+.=.%.=.=.=.-.=.-.*.-.-.-.-.-.-.-.-.-.-.-.-.-.-.*.=.%.=.-.*.-.-.-.-.-.*.-.=.=.=.%.#.%.%.%.%.=.-.*.*.-.%.%.%.%.%.=.%.+.",
"+.+.+.+.+.+.%.=.%.=.%.=.-.-.=.-.-.-.-.,.,.,.-.-.=.-.-.-.-.*.%.=.=.=.%.-.-.-.-.-.-.-.-.-.%.+.%.%.=.%.*.=.-.*.=.=.%.+.%.%.=.%.%.%.",
"+.+.+.+.+.#.+.=.+.=.=.=.=.=.-.-.=.,.,.,.,.,.-.-.-.-.-.-.-.-.-.*.=.%.-.-.-.-.*.*.*.=.-.%.=.%.%.%.=.%.*.*.-.=.-.%.#.=.+.=.=.%.%.%.",
"+.+.+.=.+.+.+.#.#.=.%.-.,.%.*.-.-.-.-.-.-.-.-.-.-.-.-.-.-.-.-.-.%.-.-.-.-.-.-.=.%.+.=.=.=.-.=.%.=.%.%.=.*.=.-.-.%.-.=.=.-.%.%.%.",
"=.#.+.%.+.%.=.+.=.-.-.-.-.-.-.-.*.-.-.,.-.-.-.-.,.=.-.*.%.-.%.=.=.-.-.-.-.-.-.%.+.%.%.%.=.%.+.+.=.%.-.%.=.=.%.-.%.%.%.%.%.=.=.%.",
"%.%.+.%.=.%.%.%.%.-.*.*.-.-.*.-.-.-.-.-.-.=.-.-.-.-.=.%.%.%.%.*.-.-.-.-.-.*.-.%.=.-.*.=.=.-.....-.%.-.-.%.=.%.-.%.%.*.%.%.=.=.-.",
"%.+.+.+.O.%.%.%.-.=.W / =.=.$.#. .( ~ +.-.=.-.-.%.=.=._ Q %.=.-.-.-.=.%.%.=.>.-.-.=.=.-.=.| k Y -.=.=.=.%.%.' X.%.-.-.-.=.%.%.%.",
"%.%.#.| n S ) +.-.` r f ..%.| A 5 # < | -.' _ +.+.%./ ; < | =.) ) =.-.%.` V ~ O.F ^ +.=.%.n 4 f ..%... .%.' , A =.*.X.~ | =.=.=.",
"%.%.+.[ r 4 8 U O.S 7 r ' ` 6 @ @ @ q O.=.g @ e ' ..9 @ @ W Y r n %...V % o F  .; # M ..) 7 4 r | ] m m +.T o 1 ..( 9 o T %.%.*.",
"%.=.+.X.b 4 3 3 S f 4 7 S 5 @ @ @ @ D ' | e o o 1 N @ @ @ s y r f [ g o o % ' %.q @ @ M C 4 4 8 Y l i b  .A o % D %   . R =.=.*.",
"%.-.*.+.^ 8 3 2 3 7 3 4 > @ @ @ @ # ; - , ; o o o @ @ @ & r r r f k = @ o 1 A D e + @ @ 3 3 3 8 i i i 8 1 ; o O O     % ' %.=.*.",
"=.%.+. .) h 2 2 2 2 3 4 > @ @ @ @ @ @ o o o o o o @ @ @ > t y y r 3 2 > @ o o o o o o @ > 3 3 y a a r @ o o o X       e %.-.-.%.",
"%.+.O.C 7 3 2 2 2 2 3 4 > @ @ @ : 2 @ o o o - - @ - 2 - 4 y y y 7 3 3 2 : - @ @ - 2 > - : 3 4 p l y - o o @ - @     , [ -.-.-.-.",
"%.+.=.E 2 2 2 3 r 8 4 4 : @ @ 2 3 3 - O O @ i v a 7 7 3 7 y u t 7 r r 4 2 2 > > r t t r 2 - 4 a r - o o @ 2 2 @ o @ Z R ~ %.-.-.",
"+.+.%.X.S 3 > 8 L L c 8 * @ > 3 3 2 @ @ @ @ y K K G i r r t u u p l z 8 2 2 > > 3 r t r 8 - @ - @ o O @ @ : @ o o O O o 9 X.-.-.",
"%.%.%.+.' s > 3 J P P c - * 3 3 3 : @ @ @ @ > c K K G r r r u p a z u 3 2 2 2 2 2 2 2 2 - @ @ @ @ O : > o o o O O o o @ W ,.-.-.",
"#.=.+.^ 8 > : > x P P P y - 3 3 > : 2 : @ @ @ 3 c K K i r r y a a y 3 2 2 y c i 2 2 2 - - : - @ @ @ 3 > o @ : 3 3 @ @ T *.-.*.%.",
"-.=.%.U > : : : 3 G I I G : : - > 3 4 : @ @ : 2 7 l G l r r 7 7 4 2 2 2 i P I z 2 2 - @ r z u 2 @ - 4 : @ 2 7 8 7 @ O V %.-.-.-.",
"-.%.%.X.W d > > : 3 l J K : @ - 3 3 3 - @ * 3 4 3 3 8 8 7 4 2 2 y l 2 r P I I y - @ @ @ > a a i 2 * 2 - 2 4 4 7 2 O o - } -.-.*.",
"=.+.+.%.X.B > > 8 r 3 3 3 # @ > 2 3 : @ @ @ > 4 3 3 2 2 2 2 2 3 L I 8 l I P K - o O @ @ @ 3 y u r @ @ - 4 3 3 3 $ o 1 R %.-.-.-.",
"-.#.=.+.S > > > 3 r t 3 > - @ 2 2 : - 2 # @ @ > 2 3 2 2 > 2 2 7 P I i z P L y - 2 > @ @ @ @ > 8 r * o > 3 3 3 - o o 9 } -.-.-.-.",
"-.*.#.} 5 > > > > 2 4 2 > : @ - * @ y J 4 @ @ @ - > 2 > @ - : 2 J I l l L x y z c i * O @ @ @ @ - @ O - > : @ o o o o 0 ..=.-.-.",
"-.=.%...! V q > - : > 2 2 > - @ @ - H L i @ - 3 > @ # # @ @ @ @ l I i 3 y a c c c 8 @ @ - - @ @ O O o O @ o @ : : @ o o T -.-.,.",
"=.-.%.+.+.W 6 @ @ @ - > > > > - @ > L L x 4 c K y @ @ - 2 2 - @ > H r @ r c c c y - o @ - - - = @ - > @ O o - > : O o o q %.-.-.",
"=.$.*.%.F # @ @ @ @ @ - 2 7 i r : > K L K G L K 8 @ # - 4 7 4 : # > - - i a a r - o O O = : - - = y a - o o O @ o o ; 1 M %.-.-.",
"+.+.+.' ; @ @ @ > 3 : * 2 r c c x 4 c L L K K c - # * - 3 7 7 4 - * @ @ - : - @ @ @ = = = - : : > a c r @ o o o o o 0  .+.-.-.*.",
"+.+.%.F @ @ @ @ 2 r r 3 2 4 z c G c l K K K G 7 @ @ * - : 4 4 4 > & @ @ @ @ @ @ @ - > > : > : : 3 z c i @ o O @ @ o @ ` =.%.-.*.",
"+.+.%.W 0 q 9 @ - r y y 3 2 8 c G G i G K c 3 @ @ @ @ @ @ - 4 7 2 @ o @ @ @ @ @ @ - > > > 8 8 > 2 c c a @ @ 4 y 3 o % ' -.%.-.=.",
"%.%.%.%.O.| 9 + @ 2 y i 8 2 2 8 i z y y r > @ @ @ * * @ @ O @ > - o o @ @ * 8 3 @ @ - > > r p r > z c i - r a i > o - e W *.-.-.",
"=.%.=.=.%.[ - o O @ > r 8 2 2 3 3 4 7 7 7 3 # * 2 3 2 @ o o o o o o o @ - i K i @ @ @ - - 7 i i 7 r c 8 7 l a r @ o o o D -.-.-.",
"%.+.+.%...' 5 o @ - - > 2 2 2 3 2 3 4 7 7 4 : 3 7 7 : @ @ @ o o o O O @ y K K y @ @ @ @ @ - y i y - r 3 i l y : o o o 1 | -.,.,.",
"%.%.+.F 6 ; @ O > 2 2 > > 2 2 2 - - 3 7 7 4 3 7 7 3 @ o > 7 > @ @ y y 2 G H H 7 o @ @ @ @ @ : y y - @ 2 p t : o o o , _ -.-.,.,.",
"%.%.+.N @ @ o o @ > 2 > > : : 7 - @ > 7 7 7 4 4 2 # @ @ : 7 7 2 > H L c K K c 2 3 y y - o @ @ - 2 * @ - 2 @ o o @ e ' -.=.*.:.:.",
"=.%.%.| w O o o o @ = - - @ 5 L y @ # 3 4 > > - @ o o o @ 7 7 4 7 H K K K H c z c c i @ o @ @ @ @ @ @ O o o o o ; N ~ X.%.-.>.:.",
"-.%.=.%...F ; o @ @ O O O - v P x @ @ @ @ o O o o O @ @ @ > 4 3 7 G K H G G G G c c > o o @ : - @ @ @ o o o o o o o O 9 ' -.=.:.",
"%.%.%.=.%.F @ @ > 4 > @ o 3 P P x @ @ @ @ @ @ o @ - > > > 2 2 3 3 l H G G G G G z 2 o o o * r r : @ @ o @ - : o o o o o A %.:.:.",
"%.%.%.#.%.F @ o > 7 7 3 - 8 P P i @ @ > 3 3 # o @ > 2 2 2 2 3 4 3 7 z i c G c y > @ @ o o - t t 7 @ o - 3 8 4 @ o O % k | :.:.:.",
"=.=.%.%.| W 5 o - 7 7 7 3 7 P P 3 # 3 7 7 3 @ o o @ : > 2 2 r i y 4 3 4 r r 3 > > > > - @ - r t r - @ 4 7 8 > o o w ` %.:.:.:.:.",
"=.%.%. .9 @ @ o @ 2 7 7 7 2 v c - 4 r 8 7 : o O @ o O - 2 2 7 i a r 3 3 7 8 8 7 2 2 2 : @ @ 3 t r : 2 7 7 7 @ o o % F %.=.:.:.;.",
"%.+.#.X.j o o o o @ 3 7 7 2 > > : r 8 7 2 @ @ : 2 - @ > 2 2 3 7 r r 3 4 7 r r r 4 > : @ @ @ * 4 7 : 4 7 3 - o O O o @ W %.%.,.:.",
"%.%.+.%.| j % O o o @ : 2 > @ @ 2 r 7 > @ @ @ : 4 3 - - > 2 2 3 4 4 3 2 3 r r t 7 @ @ @ @ @ @ @ * - 4 2 @ @ : 2 2 - o 9 X.%.:.:.",
"%.%.%.%.+.X.D @ @ - - - @ @ @ @ > 2 - @ o O @ @ - > - @ @ - - > 7 4 4 - @ - > 2 > @ @ @ @ @ O O o @ - @ @ 2 4 4 4 : o @ _ %.%.:.",
"+.+.+.O.+.| 5 O > 3 3 3 2 - @ @ @ @ @ @ : @ o O o o o o o o o > 7 7 > @ O o O O o O O @ - : @ o o o o o - 4 4 3 : % ; 1 _ =.%.>.",
"+.+.+.O.O.[ ; o @ > 2 3 3 > @ O O @ o 7 L i # o o # 3 - o o @ 2 4 > @ o o - > - @ o O * 2 2 @ o o o o o - : - @ o - R ..%.%.%.%.",
"=.%.+...) ~ 9 o o o @ @ @ O o @ @ O O i I I y O > v I y o o o & @ o o o O > r 8 2 @ @ > 2 2 @ o @ @ @ o o o o o o o 9 X.=.%.+.=.",
"%.+.+.U % @ @ o o o O o o o @ > : @ O y I I L 5 H I I r o o o o o o o o o - 7 8 8 : @ > 2 > - > > 2 - o o o @ - o o @ ' =.%.=.%.",
"+.+.+./ @ o o o o @ : @ o o O > 2 @ o 3 P P P L I I P > o @ @ o = 4 2 o o @ 3 r 8 4 @ > > > 2 2 2 > @ o o - 4 4 O o 1 ..+.+.*.*.",
"+.+.%.+.N o o o O > > @ o o o @ - @ o @ c L L L P P c > 7 y 3 @ r a 8 o o o @ 3 r 7 - - : 2 2 2 : @ o o @ 4 7 3 O @ F ` | $.%.=.",
"+.O.+.+...A @ o @ > > O o o o o o - > - 7 G G G L G r y p i - @ y r @ o o @ o @ : 2 @ o - > : = O o o o > 4 7 > o O % @ A =.=.%.",
"o.+.+.+.{ k @ o @ - @ o = 2 @ o @ y a i y i y i z r y y y 2 o o = @ o o > 4 @ o o o o o O @ o o o @ o O 2 3 3 =     o % _ +.#.%.",
"+.O.O.| q o o o o o o o 3 r > o o 7 l a a i 8 3 2 r y r > O o o o o o @ 8 r @ o o o o o o o o o @ 8 > O 2 3 - o     % W +.%.%.%.",
"+.+.+.` ; o o o @ @ o @ 7 r 3 O o @ 8 a a a r 2 2 7 7 > O o o o o o o @ r r @ o @ - : @ o o o o - t r = = - o . O 0 _ #.%.%.%.%.",
"%.+.+.X.` A ; @ 3 3 > @ 7 r 4 @ o o @ 3 r r 3 2 2 2 > > & o o o O o o @ r 7 @ > r y y - o o o o - r r 2 o o o o % 9 j F } %.%.%.",
"+.+.+.O.| e O O 2 4 4 2 3 7 3 O o O > 3 3 3 > - > 2 > > > O o = : = @ @ 4 > > y y y 7 @ o = - @ @ 7 r 2 o o @ @ @ @ @ @ R %.%.+.",
"%.+.%.+.M o o o : 4 4 3 > 3 > o o : 4 3 3 > @ o @ > > > > @ o @ : : : = - - r y y r - o o : r r > : r > o @ - = @ @ ; F X.+.+.%.",
"+.=.%...j % % O O > 3 3 > = @ o @ 3 4 2 - O o o o O @ - = o o o = : > : @ > r t 7 - o o o @ 3 r r > - @ o O @ @ ; N ' *.%.%.%.+.",
"+.+.+.%.../ 0 O o O = : - o o o O @ @ O o o O o o o o o o o o o O - : : @ - 3 : @ O - - @ o @ 2 7 3 o o o o o o O 1 D ..-.%.%.+.",
"+.+.+.+.} 9 o o . o o o o o o @ @ o o o o o o o o o o o o o o $ - @ @ & O o o o o @ 2 2 : O o o @ @ o o o @ = @ o o X g ..%.%.%.",
"+.+.+.O.M X o o o o o o o o o j T @ o o o o o o o o o o o o - > = o o o o o o o o o = - & o o o o @ @ o o @ = = @ o .   R +.%.%.",
"+.+.+.} ; o o % g % o o ; F T } A o o o o @ o o . q 0 O O O @ @ o o % 9 o o % O o o o O , o o o 0 / q o o O @ @ @ 1 e e ^ %.%.#.",
"+.+.#.` % ; g ( / O o o A +.%.| , o o o j F o o   F X./ W , o o o - W W o o e F % o o O F F 1 $ k +.w o o 6 1 O o 1  .+.%.+.%.%.",
"#.+.%...( [ +.+._ O o j ..+.+.` @ O 1 F ..X.j X O ( =.=.| % o O q ` +. .1 o T +./ q % o R +...'  .%.j o 6 ' } k ; ; } +.+.%.%.+.",
"%.+.+.+.+.+.+.+...N T ..+.+.+...T ~ | +.%.+. .A M ..%.%. .k N / X.+.%.%.~ N ..+.+.X.` R | +.%.=.%.+.~ A | *.=.=.| ` X.O.%.+.+.%.",
"+.+.+.+.+.+.+.O.+.+.%.%.+.+.%.%.+.+.+.+.+.%.+.+.o.+.=.*.=.+.#.+.+.%.%.%.+.+.+.%.+.+.+.+.%.%.+.+.+.+.+.+.+.%.%.+.%.+.+.+.%.O.+.+."
};
